<svg xmlns="http://www.w3.org/2000/svg" width="206.752" height="207.125" viewBox="0 0 206.752 207.125">
  <g id="Group_345" data-name="Group 345" transform="translate(-318 -326.796)">
    <g id="Group_242" data-name="Group 242" transform="translate(336 326.796)">
      <g id="Group_227" data-name="Group 227">
        <path id="Path_40047" data-name="Path 40047" d="M420.937,1097.654a265.489,265.489,0,0,0-3.066-32.555c-2.2-12.712-4.178-20.025-4.2-20.1-.289-1.118-4.473-5.641-13.774-5.5s-8.419,6.072-8.419,6.072h0a1.9,1.9,0,0,0,.066.527,284.739,284.739,0,0,1,8.258,71.235c-.005.561-.068,1.531-.029,2.177,0,0,21.555.556,21.56,0C422.085,1116.012,421.718,1106.332,420.937,1097.654Z" transform="translate(-391.455 -982.295)" fill="#b7d3f3"/>
        <path id="Path_40048" data-name="Path 40048" d="M432.383,1117.131c-.007.557-.3,1-.659,1h-.009c-.358-.008-.644-.454-.648-1H412.6c-.006.557-.3,1-.659,1h-.009c-.365-.008-.655-.469-.65-1.032a279.018,279.018,0,0,0-1.533-31.556c-2.456-23.516-7-39.234-7.06-39.452a1.953,1.953,0,0,1-.067-.527s-.882-5.932,8.418-6.072,13.486,4.384,13.776,5.5c.017.059,1.138,4.2,2.627,11.645.494,2.466,1.026,5.3,1.573,8.456a265.747,265.747,0,0,1,3.065,32.555C432.86,1106.332,433.134,1113.639,432.383,1117.131Z" transform="translate(-400.191 -982.295)" fill="#d2e3fc"/>
        <path id="Path_40049" data-name="Path 40049" d="M436.474,1382.3h72.421s-1.687-6.825-43.628-5.808C435.586,1377.211,436.474,1382.3,436.474,1382.3Z" transform="translate(-426.753 -1246.462)" fill="#c5dcf8"/>
        <g id="Group_222" data-name="Group 222" transform="translate(3.827 136.896)">
          <path id="Path_40050" data-name="Path 40050" d="M409.18,1478.9c8.4-42.508,6.238-68.593,6.227-68.921-.021-.655,1.185-1.249,1.834-1.27s3.555-.193,3.89.367c.44.734,2.131,32.872-10.384,69.825Z" transform="translate(-409.18 -1408.67)" fill="#b7d3f3"/>
        </g>
        <g id="Group_223" data-name="Group 223" transform="translate(59.168 136.896)">
          <path id="Path_40051" data-name="Path 40051" d="M677.8,1478.9c-8.4-42.508-6.238-68.593-6.227-68.921.021-.655-1.185-1.249-1.834-1.27s-3.555-.193-3.891.367c-.439.734-2.13,32.872,10.384,69.825Z" transform="translate(-665.525 -1408.67)" fill="#b7d3f3"/>
        </g>
        <g id="Group_224" data-name="Group 224" transform="translate(72.568 136.896)">
          <path id="Path_40052" data-name="Path 40052" d="M739.874,1478.9c-8.4-42.508-6.238-68.593-6.227-68.921.021-.655-1.185-1.249-1.834-1.27s-3.555-.193-3.891.367c-.439.734-2.13,32.872,10.384,69.825Z" transform="translate(-727.597 -1408.67)" fill="#b7d3f3"/>
        </g>
        <g id="Group_225" data-name="Group 225" transform="translate(17.317 136.896)">
          <path id="Path_40053" data-name="Path 40053" d="M471.669,1478.9c8.4-42.508,6.238-68.593,6.227-68.921-.021-.655,1.185-1.249,1.834-1.27s3.555-.193,3.89.367c.439.734,2.13,32.872-10.384,69.825Z" transform="translate(-471.669 -1408.67)" fill="#b7d3f3"/>
        </g>
        <rect id="Rectangle_310" data-name="Rectangle 310" width="75.388" height="3.942" rx="1.971" transform="translate(8.281 134.075)" fill="#b7d3f3"/>
        <g id="Group_226" data-name="Group 226" transform="translate(14.118)">
          <path id="Path_40054" data-name="Path 40054" d="M745.245,1091.973l24.073-5.214,1.418,3.456s-26.562,15.806-29.051,15.032S745.245,1091.973,745.245,1091.973Z" transform="translate(-679.722 -1019.359)" fill="#ffb27d"/>
          <path id="Path_40055" data-name="Path 40055" d="M656.978,1545.525a2.139,2.139,0,0,0-.381,2.288.019.019,0,0,0,.006.011c.552,1.525,2.375,3.228,4.493,4.928.271.219.511.417.721.6.055.048.11.1.162.145s.083.077.125.113c1.975,1.82,1.232,2.237,4.779,5.931,4.045,4.209,6.831,4.285,7.623,3.9.67-.327-.692-2.559-2.2-5.068-.073-.121-.145-.244-.22-.366-.2-.334-.4-.673-.6-1.008-1.769-3.02-1.315-4.437-.9-8.931.341-3.652,5.681-20.4,5.681-20.4l-7.752-1.335s-2.335,13.338-4.907,15.392c-1.376,1.095-2.915,1.108-4.237,1.92q-.141.085-.275.174A10.182,10.182,0,0,0,656.978,1545.525Z" transform="translate(-613.341 -1364.036)" fill="#ffb27d"/>
          <path id="Path_40056" data-name="Path 40056" d="M656.978,1608.4a2.138,2.138,0,0,0-.381,2.287.019.019,0,0,0,.006.011c.676,1.523,2.453,3.218,4.5,4.913.267.222.5.426.714.616.055.048.11.1.162.145s.083.077.125.113c1.975,1.82,1.232,2.238,4.779,5.931,4.045,4.209,6.831,4.285,7.623,3.9.67-.327-.692-2.559-2.2-5.068a17.243,17.243,0,0,1-7.211-5.313c-2.436-3.108-4.06-7.1-5.719-9.416q-.141.085-.275.174A10.176,10.176,0,0,0,656.978,1608.4Z" transform="translate(-613.341 -1426.915)" fill="#1c468a"/>
          <path id="Path_40057" data-name="Path 40057" d="M926.008,1532.113c.479,2.393,3.89,1.994,7.7,1.063s2.9.176,8.329-.425,7.067-2.623,7.232-3.429c.148-.715-2.532-.968-5.406-1.3-.361-.041-.724-.085-1.088-.13-3.245-.407-5.622-2.5-8.57-4.221-2.792-1.629-6.959-8.267-6.959-8.267l-7.438.589s3.9,5.928,5.413,8.506a8.99,8.99,0,0,1,.73,5.069A9.544,9.544,0,0,0,926.008,1532.113Z" transform="translate(-819.862 -1355.466)" fill="#ffb27d"/>
          <path id="Path_40058" data-name="Path 40058" d="M955.815,1579.006c3.811-.931,2.9.176,8.329-.425s7.067-2.623,7.232-3.429c.148-.715-2.532-.968-5.406-1.3l-.027.055a15.29,15.29,0,0,1-7.767,2.414c-3.68.089-7.577-.965-10.118-.923a9.544,9.544,0,0,0,.057,2.544C948.593,1580.336,952,1579.937,955.815,1579.006Z" transform="translate(-841.968 -1401.296)" fill="#1c468a"/>
          <path id="Path_40059" data-name="Path 40059" d="M871.866,1068.047s1.772-4.342,3.721-4.519,8.152-1.152,8.6-.266a6.132,6.132,0,0,1-1.329,5.228c-1.329,1.152-9.57,3.013-9.57,3.013Z" transform="translate(-782.27 -1000.647)" fill="#ffb27d"/>
          <path id="Path_40060" data-name="Path 40060" d="M723.815,1329.186l-16.031,43.141a14.672,14.672,0,0,1-4.824-.442,20.762,20.762,0,0,1-4.662-2.27s3.977-41.423,11.267-50.039S723.815,1329.186,723.815,1329.186Z" transform="translate(-646.174 -1200.1)" fill="#163560"/>
          <path id="Path_40061" data-name="Path 40061" d="M490.576,1245.437s46.062-15.575,56.335-12.261,41.117,64.68,41.117,64.68a5.954,5.954,0,0,1-2.6,1.639c-1.767.663-6.046.62-6.046.62s-27.836-23.86-31.15-30.819-4.64-13.587-7.953-12.924-42.748,16.238-51.7,6.959S481.981,1242,481.981,1242Z" transform="translate(-476.339 -1133.803)" fill="#1c468a"/>
          <path id="Path_40062" data-name="Path 40062" d="M505.569,776.363a11.169,11.169,0,0,0-6.046-1.157,2.828,2.828,0,0,1,1.275-.605,9.372,9.372,0,0,0-3.345.873c-14.4-5.547-16.658,15.65-16.356,20.574s.337,10.592-6.85,15.009c-14.14,8.69-2.209,23.861-2.209,23.861.111.066,6.579,11.035,6.579,11.035-.363-3.98,18-24.98,27.578-31.269,2.332-3.433,3.161-9.5,3.223-9.975-.4,4.809-1.225,7.506-1.961,9.025C515.569,806.266,510.847,779.361,505.569,776.363Z" transform="translate(-465.072 -774.555)" fill="#b5453c"/>
          <path id="Path_40063" data-name="Path 40063" d="M595.451,910.366c.048.022-4.625,2.448-8.14,1.487-3.307-.9-5.467-5.189-5.421-5.2,1.4-.278,1.8-2.2,1.774-10.471l.633.125,10.644,2.108s-.242,3.35-.25,6.505C594.684,907.57,594.845,910.083,595.451,910.366Z" transform="translate(-554.895 -869.925)" fill="#ffb27d"/>
          <path id="Path_40064" data-name="Path 40064" d="M603.687,898.868s-.242,3.35-.25,6.505c-5.956-.168-9.1-5.6-10.394-8.613Z" transform="translate(-563.641 -870.378)" fill="#ed975d"/>
          <path id="Path_40065" data-name="Path 40065" d="M573.562,811.961s-3.121-4.932-3.87-9.149c-.535-3.011,1-14.171,12.213-12.564a15.236,15.236,0,0,1,6.319,2.389c2.435,1.644,5.949,5.195,2.02,14.933l-1.02,3.29Z" transform="translate(-545.259 -786.737)" fill="#b5453c"/>
          <path id="Path_40066" data-name="Path 40066" d="M599.766,834s-14.092.233-14.1-8.545-1.835-14.66,7.162-15.179,10.749,2.828,11.465,5.757S603.431,833.711,599.766,834Z" transform="translate(-557.731 -802.52)" fill="#ffb27d"/>
          <path id="Path_40067" data-name="Path 40067" d="M582.787,802.992s-3.858,10.3-9.78,11.821-8.49-.064-8.49-.064A16.768,16.768,0,0,0,570,804.843S579.877,798.09,582.787,802.992Z" transform="translate(-541.274 -795.454)" fill="#b5453c"/>
          <path id="Path_40068" data-name="Path 40068" d="M644.713,807.246s2.881,2.3,3.584,4.535,1.019,6.837,2.36,6.68c0,0,2.907-7-.36-10.959C646.833,803.3,644.713,807.246,644.713,807.246Z" transform="translate(-604.156 -798.871)" fill="#b5453c"/>
          <path id="Path_40069" data-name="Path 40069" d="M477.385,986.285c-1.39-5.828,3.338-17.138,8.274-26.5,4.478-8.486,9.127-15.37,9.544-15.123,11.811,7.01,12.878,1.182,12.878,1.182h0s10.729,1.424,13.766,6.653c3.768,6.488,7.839,24.618,11.883,28.05-.621,1.9-.354,2.913.3,5.267q.212.757.468,1.439a27.745,27.745,0,0,0,2.03,4.169c-2.055,1.249-6.025,3.624-8.949,1.916-4.458-2.609-7.936-10.552-9.894-13.715l-.022-.036c-4.255,24.087,1.531,29.572-1.4,32.112-3.093,2.682-7.512-1.277-17.233,2.936-6.376,2.766-15.224,6.765-21.181,7.461-3.124.367-5.455-.177-6.215-2.287C469.432,1013.678,480.037,997.4,477.385,986.285Z" transform="translate(-468.209 -907.933)" fill="#1c468a"/>
          <path id="Path_40070" data-name="Path 40070" d="M637.048,893.126s.263,1.115,3.037.943c0,0,2.329-.144,2.258-1.37A7.5,7.5,0,0,0,637.048,893.126Z" transform="translate(-598.146 -866.969)" fill="#fff"/>
          <path id="Path_40071" data-name="Path 40071" d="M471.641,1114.229c.76,2.11,3.091,2.653,6.215,2.287,4.123-1.8,21.932-8.7,21.733-13.371-.3-6.922-3.424-7.143-1.215-15.686,1.774-6.86-14.682-19.615-17.306-22.388-4.936,9.363-5.072,9.806-3.682,15.634C480.037,1091.816,469.432,1108.1,471.641,1114.229Z" transform="translate(-468.209 -1002.353)" fill="#163560"/>
          <path id="Path_40072" data-name="Path 40072" d="M458.27,994.864a26.111,26.111,0,0,1,8.613-7.96c-.5-1.284,13.285-18.181,13.285-20.8,0-2.651,3.678-21.425,3.678-21.425s-11.484.709-15.461,6.254C463.412,957.87,453.084,984.56,458.27,994.864Z" transform="translate(-456.85 -907.952)" fill="#1c468a"/>
          <path id="Path_40073" data-name="Path 40073" d="M471.5,1140.268l22.95,5.988-2.154,3.866s-27.929-.195-29.409-1.895S471.5,1140.268,471.5,1140.268Z" transform="translate(-461.467 -1061.316)" fill="#ffb27d"/>
          <path id="Path_40074" data-name="Path 40074" d="M686.049,1106.629c1.958,3.163,5.436,11.106,9.894,13.715,2.924,1.708,6.894-.667,8.949-1.916a27.742,27.742,0,0,1-2.03-4.168c-1.641.375-3.643.855-4.933,1.244C695.418,1116.264,686.049,1106.629,686.049,1106.629Z" transform="translate(-636.568 -1034.939)" fill="#163560"/>
          <path id="Path_40075" data-name="Path 40075" d="M601.8,1162.069s7.207-2.039,8.924-1.562,7.6,4.371,6.771,5.429-6.009-.634-8.393-.313-4.228,1.5-5.945,1.242a19.923,19.923,0,0,1-3.512-.929Z" transform="translate(-568.82 -1077.129)" fill="#ffb27d"/>
          <path id="Path_40076" data-name="Path 40076" d="M609.625,1157.38a27.012,27.012,0,0,0,4.529-2.843.281.281,0,0,1,.438.05c.269.424.521,1.242-.716,2.056A6.652,6.652,0,0,1,609.625,1157.38Z" transform="translate(-576.643 -1072.439)" fill="#ffb27d"/>
        </g>
      </g>
      <g id="Group_228" data-name="Group 228" transform="translate(46.782 58.461)">
        <path id="Path_40077" data-name="Path 40077" d="M641.777,1205.239H608.153a2.68,2.68,0,0,1,2.68-2.68h30.944Z" transform="translate(-608.153 -1168.62)" fill="#ed7d2b"/>
        <path id="Path_40078" data-name="Path 40078" d="M716.94,1045.351h51.984l-12.469,36.619H704.134Z" transform="translate(-683.413 -1045.351)" fill="#ed7d2b"/>
        <path id="Path_40079" data-name="Path 40079" d="M772.474,1045.351,760,1081.969h-52.32l12.806-36.618Z" transform="translate(-686.196 -1045.351)" fill="#f99746"/>
        <path id="Path_40080" data-name="Path 40080" d="M859.326,1119.391a3.38,3.38,0,0,1-3.118,2.533,1.951,1.951,0,0,1-1.949-2.533,3.38,3.38,0,0,1,3.118-2.533A1.951,1.951,0,0,1,859.326,1119.391Z" transform="translate(-801.075 -1101.421)" fill="#f9ddbf"/>
        <path id="Path_40081" data-name="Path 40081" d="M836.656,1045.351l-12.471,36.618H789.536c22.952-7.834,29.062-31.721,30.087-36.618Z" transform="translate(-750.378 -1045.351)" fill="#ed893e"/>
      </g>
    </g>
    <g id="Group_243" data-name="Group 243" transform="translate(335.53 427.521)">
      <g id="Group_230" data-name="Group 230" transform="translate(0 0)">
        <path id="Path_40082" data-name="Path 40082" d="M305.249,1347.523a1.344,1.344,0,0,0,1.332-1.093l6.529-37.008L322.5,1256.2l2.626-14.883-6.689-.191-1.161,8.64-8.149,60.716-4.831,35.99A.942.942,0,0,0,305.249,1347.523Z" transform="translate(-304.289 -1241.123)" fill="#95c0f4"/>
      </g>
      <path id="Path_40083" data-name="Path 40083" d="M364.451,1249.763a9.6,9.6,0,0,1,5.224,6.434l2.626-14.883-6.689-.191Z" transform="translate(-351.463 -1241.123)" fill="#78acea"/>
    </g>
    <g id="Group_244" data-name="Group 244" transform="translate(482.988 427.521)">
      <g id="Group_232" data-name="Group 232" transform="translate(0 0)">
        <path id="Path_40084" data-name="Path 40084" d="M1007.2,1347.523a1.344,1.344,0,0,1-1.332-1.093l-6.529-37.008-9.391-53.225-2.626-14.883,6.689-.191,1.161,8.64,8.149,60.716,4.831,35.99A.942.942,0,0,1,1007.2,1347.523Z" transform="translate(-987.326 -1241.123)" fill="#95c0f4"/>
      </g>
      <path id="Path_40085" data-name="Path 40085" d="M995.176,1249.763a9.6,9.6,0,0,0-5.224,6.434l-2.626-14.883,6.689-.191Z" transform="translate(-987.326 -1241.123)" fill="#78acea"/>
    </g>
    <rect id="Rectangle_314" data-name="Rectangle 314" width="179.457" height="11.687" rx="5.843" transform="translate(497.457 433.555) rotate(180)" fill="#78acea"/>
    <g id="Group_245" data-name="Group 245" transform="translate(471.005 336.085)">
      <path id="Path_40103" data-name="Path 40103" d="M976.882,817.585h-36.37a8.714,8.714,0,0,0-8.688,8.688v13.759a8.647,8.647,0,0,0,2.161,5.715l-2.161,9.877,12.46-6.9h32.6a8.714,8.714,0,0,0,8.688-8.688V826.273A8.714,8.714,0,0,0,976.882,817.585Z" transform="translate(-931.824 -817.585)" fill="#d2e3fc"/>
      <path id="Path_40104" data-name="Path 40104" d="M1001.635,855.895H963.929a1.415,1.415,0,0,1-1.411-1.411h0a1.415,1.415,0,0,1,1.411-1.411h37.705a1.415,1.415,0,0,1,1.411,1.411h0A1.415,1.415,0,0,1,1001.635,855.895Z" transform="translate(-955.892 -845.411)" fill="#b7d3f3"/>
      <path id="Path_40105" data-name="Path 40105" d="M1001.635,884.5H963.929a1.415,1.415,0,0,1-1.411-1.411h0a1.415,1.415,0,0,1,1.411-1.411h37.705a1.415,1.415,0,0,1,1.411,1.411h0A1.415,1.415,0,0,1,1001.635,884.5Z" transform="translate(-955.892 -867.841)" fill="#b7d3f3"/>
      <path id="Path_40106" data-name="Path 40106" d="M1001.635,912.034H963.929a1.415,1.415,0,0,1-1.411-1.411h0a1.415,1.415,0,0,1,1.411-1.411h37.705a1.415,1.415,0,0,1,1.411,1.411h0A1.415,1.415,0,0,1,1001.635,912.034Z" transform="translate(-955.892 -889.431)" fill="#b7d3f3"/>
    </g>
  </g>
</svg>
