<svg id="Group_82" data-name="Group 82" xmlns="http://www.w3.org/2000/svg" xmlns:xlink="http://www.w3.org/1999/xlink" width="494.688" height="288.488" viewBox="0 0 494.688 288.488">
  <defs>
    <clipPath id="clip-path">
      <rect id="Rectangle_216" data-name="Rectangle 216" width="494.688" height="288.488" fill="none"/>
    </clipPath>
    <clipPath id="clip-path-3">
      <rect id="Rectangle_202" data-name="Rectangle 202" width="54.281" height="244.436" fill="none"/>
    </clipPath>
    <clipPath id="clip-path-4">
      <rect id="Rectangle_204" data-name="Rectangle 204" width="138.286" height="118.565" fill="none"/>
    </clipPath>
    <clipPath id="clip-path-5">
      <rect id="Rectangle_212" data-name="Rectangle 212" width="138.287" height="232.77" fill="none"/>
    </clipPath>
    <clipPath id="clip-path-6">
      <rect id="Rectangle_206" data-name="Rectangle 206" width="32.563" height="107.988" fill="none"/>
    </clipPath>
    <clipPath id="clip-path-7">
      <rect id="Rectangle_207" data-name="Rectangle 207" width="18.203" height="17.081" fill="none"/>
    </clipPath>
    <clipPath id="clip-path-8">
      <rect id="Rectangle_208" data-name="Rectangle 208" width="1.837" height="1.863" fill="none"/>
    </clipPath>
    <clipPath id="clip-path-9">
      <rect id="Rectangle_209" data-name="Rectangle 209" width="1.837" height="1.864" fill="none"/>
    </clipPath>
    <clipPath id="clip-path-13">
      <rect id="Rectangle_213" data-name="Rectangle 213" width="61.47" height="19.063" fill="#19a8a8"/>
    </clipPath>
    <clipPath id="clip-path-14">
      <rect id="Rectangle_214" data-name="Rectangle 214" width="61.47" height="19.062" fill="#242424"/>
    </clipPath>
  </defs>
  <g id="Group_81" data-name="Group 81" clip-path="url(#clip-path)">
    <g id="Group_52" data-name="Group 52" transform="translate(0 0.001)">
      <g id="Group_51" data-name="Group 51" clip-path="url(#clip-path)">
        <path id="Path_144" data-name="Path 144" d="M412.207,509.867s53.2,9.908,70.131-27.575c21.97-48.629-23.167-85.5-57.784-78.631-75.433,14.969-57.269-150.173-178.329-116.469-34.04,9.477-126.013-46.821-151.664,43.448-6.1,21.465-27.711,23.829-59.083,37.45C-25.92,394.745,2.154,510.317,46.025,510.77s366.182-.9,366.182-.9" transform="translate(0 -222.564)" fill="#e6fffb"/>
        <path id="Path_145" data-name="Path 145" d="M1254.1,744.6s14.686-60.257,32.761-52.755-29.371,67.649-29.371,67.649,27.112-29.214,43.492-15.466-24.288,59-4.519,68.166,33.325-4.853,47.446,5.88,10.744,21.921,10.744,21.921-110.307.242-110.307,0S1254.1,744.6,1254.1,744.6" transform="translate(-998.123 -552.493)" fill="#5f8ad4"/>
        <path id="Path_146" data-name="Path 146" d="M343.333,1121.827s-17.57-18.448-3.872-29.2,29.888,16.74,36.665,10.249-36.146-38.567-23.344-53.458,28.239,5.728,28.992,9.928,0,63.025,0,63.025Z" transform="translate(-268.099 -834.568)" fill="#5f8ad4"/>
        <path id="Path_147" data-name="Path 147" d="M527.046,1432.552H41.023a.019.019,0,0,1-.018-.019v-1.048a.019.019,0,0,1,.018-.019H527.046a.019.019,0,0,1,.018.019v1.048a.019.019,0,0,1-.018.019" transform="translate(-32.891 -1144.208)" fill="#2e3552"/>
        <path id="Path_148" data-name="Path 148" d="M2164.36,1332.066s3.881,3.647,3.123,6.239-4.259,4.319-4.732,7.487-2.366,4.9-4.07,4.9h-8.122s-1.254-2.229,1.774-2.9,4.17-4.394,3.981-7.849a62.754,62.754,0,0,1,.284-8.062l6.436-1.536Z" transform="translate(-1724.811 -1063.373)" fill="#2c3a64"/>
        <path id="Path_149" data-name="Path 149" d="M1887.835,1384.249a1.275,1.275,0,0,1-.255.089h-21.724c.189-.78.885-2.262,3.429-2.681,3.393-.557,9.271-2.557,10.583-6.957.041-.142.079-.287.112-.434,1.042-4.7,8.613,1.441,8.613,1.441s.023.187.056.506c.175,1.725.624,7.307-.813,8.037" transform="translate(-1496.65 -1097.069)" fill="#2c3a64"/>
        <path id="Path_150" data-name="Path 150" d="M1887.738,796.178s1.15,14.55,2.5,32.04c1.837,23.759,4.046,52.942,4.265,58.471.378,9.6,1.894,24.957,1.894,24.957s3.595,3.648,10.789,2.11a254.337,254.337,0,0,0,8.242-45.115c.028-.38.057-.763.085-1.146,1.7-23.612,4.353-73.332,4.353-73.332Z" transform="translate(-1514.202 -634.794)" fill="#35488b"/>
        <path id="Path_151" data-name="Path 151" d="M1887.738,796.178s1.15,14.55,2.5,32.04l25.19,40.423c.028-.38.057-.763.085-1.146,1.7-23.612,4.353-73.332,4.353-73.332Z" transform="translate(-1514.202 -634.794)" fill="#2c3a64"/>
        <path id="Path_152" data-name="Path 152" d="M1914.278,774.967s20.727,52.695,34.355,77.458,17.888,31.674,17.888,31.674,7.808-3.167,8.518-5.327c0,0-5.212-47.807-14.339-59.461-5.157-6.585-11.215-26.347-11.5-33.258s-1.846-20.588-1.846-20.588Z" transform="translate(-1535.49 -611.855)" fill="#35488b"/>
        <path id="Path_153" data-name="Path 153" d="M1784.674,740.324l-1.184,2.395s-6.025.854-4.367,7.223c0,0,.894,2.621,2.555,1.791s.843-.759,3.224-1.875,3.759-3.26,3.226-5.227l.382-2.085Z" transform="translate(-1426.848 -591.76)" fill="#a16d3c"/>
        <path id="Path_154" data-name="Path 154" d="M1945.824,338.244a62.6,62.6,0,0,1-.95-8.789l10.516-8.6c-.391,11.819,7.077,17.5,7.077,17.5s-14.014,7-22.114,4.4a19.473,19.473,0,0,1,5.471-4.522" transform="translate(-1556.406 -256.472)" fill="#935c2f"/>
        <path id="Path_155" data-name="Path 155" d="M1940.1,273.311s13.379,2.254,14.635-6.217,3.828-13.885-4.66-15.683-10.631,1.182-11.729,3.906-1.693,17.189,1.755,17.994" transform="translate(-1554.108 -200.523)" fill="#a16d3c"/>
        <path id="Path_156" data-name="Path 156" d="M1954.522,244.583a14,14,0,0,0-12.46-13.168c-8.349-1.247-3.293-8.323-2.339-9.444,0,0,6.383,1.235,12.915,2.689,13.712,3.052,3.333,18.235,1.883,19.923" transform="translate(-1553.985 -177.428)" fill="#2c3a64"/>
        <path id="Path_157" data-name="Path 157" d="M1802.809,501.738a23.215,23.215,0,0,1-3.116-4.284s15.2-19.153,16.436-21.139,10.467-33.844,10.467-33.844l23.345-4.8s-19.486,40.771-22.714,45.741c-5.334,8.213-21.293,20.438-21.293,20.438a9.6,9.6,0,0,1-3.125-2.116" transform="translate(-1443.579 -349.845)" fill="#f2564b"/>
        <path id="Path_158" data-name="Path 158" d="M1882.131,475.761a1.3,1.3,0,0,0,.851.329c3.042-.042,11.911,1.671,19.416.89a55.326,55.326,0,0,0,17.94-5.25c.8-.363,2.636-1.358,2.6-2.263-.027-.991-.124-2.429-.246-4.239a229.905,229.905,0,0,1-.444-29.614c.13-2.326.2-4.633.207-6.9.062-16.93-3.248-31.82-9.9-36.86-.568-.413-4.056,1.316-7.261,2.919a13.1,13.1,0,0,1-8.72,1.071l-2.8,2.508a28.4,28.4,0,0,0-8.761,14.191c-1.38,5.635-2.19,15.8-2.636,26.326-.2,4.771-.366,9.585-.407,14.151v.164c-.039.453-.039.947-.039,1.4-.163,11.723,0,21.018.2,21.184" transform="translate(-1509.488 -313.165)" fill="#fb7369"/>
        <path id="Path_159" data-name="Path 159" d="M2035.643,565.451a230,230,0,0,1-.444-29.614c.13-2.326.2-4.633.207-6.9-2.771-6.817-5.036-11.76-5.036-11.76h-6.984s-5.12,35.469,12.257,48.278" transform="translate(-1622.444 -413.39)" fill="#f2564b"/>
        <path id="Path_160" data-name="Path 160" d="M2156.85,760.633l1.326,2.317s-2.6,5.578,3.564,7.662c0,0,2.651.678,2.878-1.185s-.164-1.13.22-3.762-.629-4.975-2.542-5.6l-1.51-1.466Z" transform="translate(-1730.063 -606.366)" fill="#a16d3c"/>
        <path id="Path_161" data-name="Path 161" d="M2029.306,472.8a22.571,22.571,0,0,1-5.241.3s-7.466-23.391-8.427-25.528-22.177-27.427-22.177-27.427l8.839-22.432s22.948,38.874,25.278,44.336c3.851,9.026,5.187,29.264,5.187,29.264a9.545,9.545,0,0,1-3.457,1.491" transform="translate(-1599.004 -317.897)" fill="#fb7369"/>
        <path id="Path_162" data-name="Path 162" d="M675.256,287.262H531.1a2.589,2.589,0,0,1-2.563-2.6V2.6A2.589,2.589,0,0,1,531.1,0H675.256a2.589,2.589,0,0,1,2.563,2.6v282.06a2.589,2.589,0,0,1-2.563,2.6" transform="translate(-423.955 -0.003)" fill="#0d6d75"/>
        <path id="Path_163" data-name="Path 163" d="M748.385,287.262H604.232a2.589,2.589,0,0,1-2.563-2.6V2.6A2.589,2.589,0,0,1,604.232,0H748.385a2.589,2.589,0,0,1,2.563,2.6v282.06a2.589,2.589,0,0,1-2.563,2.6" transform="translate(-482.614 -0.003)" fill="#1fc2c2"/>
        <rect id="Rectangle_165" data-name="Rectangle 165" width="138.286" height="232.77" transform="translate(124.394 22.967)" fill="#d9e9fe"/>
        <path id="Path_164" data-name="Path 164" d="M926.009,54.187H887.2a1.531,1.531,0,0,0,0,3.062h38.805a1.531,1.531,0,0,0,0-3.062" transform="translate(-710.437 -43.314)" fill="#159298"/>
        <path id="Path_165" data-name="Path 165" d="M852.374,54.187a1.531,1.531,0,1,0,1.51,1.531,1.525,1.525,0,0,0-1.51-1.531" transform="translate(-682.499 -43.314)" fill="#ff9591"/>
        <path id="Path_166" data-name="Path 166" d="M939.005,1331.281a7.732,7.732,0,1,1,7.732,7.841,7.787,7.787,0,0,1-7.732-7.841" transform="translate(-753.199 -1057.859)" fill="#159298"/>
        <path id="Path_167" data-name="Path 167" d="M1611.974,457.958h0a22.162,22.162,0,0,1-24.27-19.789l-21.393-199.689a22.324,22.324,0,0,1,19.513-24.613h0a22.161,22.161,0,0,1,24.269,19.789l21.393,199.689a22.324,22.324,0,0,1-19.513,24.613" transform="translate(-1256.273 -170.845)" fill="#c7e1ff"/>
        <path id="Path_168" data-name="Path 168" d="M1641.637,58.689a4.431,4.431,0,1,1-8.807.971l-2-18.677-3.171-29.6a4.491,4.491,0,0,1,3.925-4.951l.03,0a4.459,4.459,0,0,1,4.852,3.983l3.178,29.663Z" transform="translate(-1305.564 -5.121)" fill="#c7e1ff"/>
        <path id="Path_169" data-name="Path 169" d="M1639.966,40.042l-8.813.908-3.172-29.6a4.491,4.491,0,0,1,3.925-4.951l.03,0a4.459,4.459,0,0,1,4.852,3.983Z" transform="translate(-1305.823 -5.095)" fill="#d6716b"/>
        <path id="Path_401" data-name="Path 401" d="M0,0,44.216-.063l-.034,24.568-44.216.063Z" transform="translate(325.501 215.911) rotate(-5.803)" fill="#d6716b"/>
        <path id="Path_402" data-name="Path 402" d="M0,0,9.472-.013V.546L0,.559Z" transform="matrix(0.995, -0.101, 0.101, 0.995, 328.655, 73.146)" fill="#35488b"/>
        <path id="Path_403" data-name="Path 403" d="M0,0,9.472-.013V.546L0,.559Z" transform="translate(328.999 76.581) rotate(-5.803)" fill="#35488b"/>
        <path id="Path_404" data-name="Path 404" d="M0,0,9.472-.013V.546L0,.559Z" transform="translate(329.343 80.015) rotate(-5.803)" fill="#35488b"/>
        <path id="Path_405" data-name="Path 405" d="M0,0,9.472-.013V.546L0,.559Z" transform="translate(329.688 83.45) rotate(-5.802)" fill="#35488b"/>
        <path id="Path_406" data-name="Path 406" d="M0,0,9.472-.013V.546L0,.559Z" transform="translate(330.032 86.885) rotate(-5.803)" fill="#35488b"/>
        <path id="Path_407" data-name="Path 407" d="M0,0,25.717-.037l0,1.152L0,1.152Z" transform="translate(322.31 91.289) rotate(-5.802)" fill="#35488b"/>
        <path id="Path_408" data-name="Path 408" d="M0,0,9.472-.013V.546L0,.559Z" transform="translate(330.793 94.483) rotate(-5.803)" fill="#35488b"/>
        <path id="Path_409" data-name="Path 409" d="M0,0,9.472-.013V.546L0,.559Z" transform="translate(331.137 97.918) rotate(-5.801)" fill="#35488b"/>
        <path id="Path_410" data-name="Path 410" d="M0,0,9.472-.013V.546L0,.559Z" transform="translate(331.481 101.352) rotate(-5.803)" fill="#35488b"/>
        <path id="Path_411" data-name="Path 411" d="M0,0,9.472-.013V.546L0,.559Z" transform="matrix(0.995, -0.101, 0.101, 0.995, 331.826, 104.787)" fill="#35488b"/>
        <path id="Path_412" data-name="Path 412" d="M0,0,9.472-.013V.546L0,.559Z" transform="translate(332.17 108.222) rotate(-5.803)" fill="#35488b"/>
        <path id="Path_413" data-name="Path 413" d="M0,0,9.472-.013V.546L0,.559Z" transform="translate(333.199 118.498) rotate(-5.803)" fill="#35488b"/>
        <path id="Path_414" data-name="Path 414" d="M0,0,9.472-.013V.546L0,.559Z" transform="translate(333.543 121.933) rotate(-5.801)" fill="#35488b"/>
        <path id="Path_415" data-name="Path 415" d="M0,0,9.472-.013V.546L0,.559Z" transform="translate(333.888 125.368) rotate(-5.803)" fill="#35488b"/>
        <path id="Path_416" data-name="Path 416" d="M0,0,9.472-.013V.546L0,.559Z" transform="translate(334.232 128.803) rotate(-5.801)" fill="#35488b"/>
        <path id="Path_417" data-name="Path 417" d="M0,0,9.472-.013V.546L0,.559Z" transform="translate(334.576 132.238) rotate(-5.803)" fill="#35488b"/>
        <path id="Path_418" data-name="Path 418" d="M0,0,25.717-.037l0,1.152L0,1.152Z" transform="translate(326.854 136.641) rotate(-5.802)" fill="#35488b"/>
        <path id="Path_419" data-name="Path 419" d="M0,0,9.472-.013V.546L0,.559Z" transform="translate(335.622 142.683) rotate(-5.803)" fill="#35488b"/>
        <path id="Path_420" data-name="Path 420" d="M0,0,9.472-.013V.546L0,.559Z" transform="translate(335.967 146.117) rotate(-5.803)" fill="#35488b"/>
        <path id="Path_421" data-name="Path 421" d="M0,0,9.472-.013V.546L0,.559Z" transform="translate(336.311 149.552) rotate(-5.803)" fill="#35488b"/>
        <path id="Path_422" data-name="Path 422" d="M0,0,9.472-.013V.545L0,.559Z" transform="translate(336.655 152.987) rotate(-5.803)" fill="#35488b"/>
        <path id="Path_423" data-name="Path 423" d="M0,0,9.472-.013V.546L0,.559Z" transform="translate(336.999 156.422) rotate(-5.803)" fill="#35488b"/>
        <path id="Path_424" data-name="Path 424" d="M0,0,25.717-.037l0,1.153L0,1.153Z" transform="translate(329.277 160.826) rotate(-5.803)" fill="#35488b"/>
        <path id="Path_425" data-name="Path 425" d="M0,0,9.472-.013V.545L0,.559Z" transform="translate(338.015 166.556) rotate(-5.803)" fill="#35488b"/>
        <path id="Path_426" data-name="Path 426" d="M0,0,9.472-.013V.546L0,.559Z" transform="translate(338.359 169.991) rotate(-5.803)" fill="#35488b"/>
        <path id="Path_427" data-name="Path 427" d="M0,0,9.472-.013V.546L0,.559Z" transform="translate(338.703 173.426) rotate(-5.803)" fill="#35488b"/>
        <path id="Path_428" data-name="Path 428" d="M0,0,9.472-.013V.545L0,.559Z" transform="translate(339.047 176.861) rotate(-5.803)" fill="#35488b"/>
        <path id="Path_429" data-name="Path 429" d="M0,0,9.472-.013V.546L0,.559Z" transform="translate(339.391 180.296) rotate(-5.803)" fill="#35488b"/>
        <path id="Path_430" data-name="Path 430" d="M0,0,25.717-.037l0,1.152L0,1.152Z" transform="translate(331.67 184.699) rotate(-5.803)" fill="#35488b"/>
        <path id="Path_431" data-name="Path 431" d="M0,0,9.472-.013V.546L0,.559Z" transform="matrix(0.995, -0.101, 0.101, 0.995, 340.466, 191.019)" fill="#35488b"/>
        <path id="Path_432" data-name="Path 432" d="M0,0,9.472-.013V.546L0,.559Z" transform="matrix(0.995, -0.101, 0.101, 0.995, 340.81, 194.454)" fill="#35488b"/>
        <path id="Path_433" data-name="Path 433" d="M0,0,9.472-.013V.546L0,.559Z" transform="translate(341.154 197.888) rotate(-5.803)" fill="#35488b"/>
        <path id="Path_434" data-name="Path 434" d="M0,0,9.472-.013V.546L0,.559Z" transform="matrix(0.995, -0.101, 0.101, 0.995, 341.498, 201.323)" fill="#35488b"/>
        <path id="Path_435" data-name="Path 435" d="M0,0,9.472-.013V.546L0,.559Z" transform="matrix(0.995, -0.101, 0.101, 0.995, 341.843, 204.758)" fill="#35488b"/>
        <path id="Path_436" data-name="Path 436" d="M0,0,25.717-.037l0,1.153L0,1.153Z" transform="translate(334.121 209.162) rotate(-5.803)" fill="#35488b"/>
        <g id="Group_47" data-name="Group 47" transform="translate(315.484 42.85)" opacity="0.1">
          <g id="Group_46" data-name="Group 46">
            <g id="Group_45" data-name="Group 45" clip-path="url(#clip-path-3)">
              <path id="Path_170" data-name="Path 170" d="M1633.743,457.878h0a16.689,16.689,0,0,1-18.17-15.028L1594.45,232.041a16.583,16.583,0,1,1,32.988-3.4l21.123,210.809a16.8,16.8,0,0,1-14.818,18.427" transform="translate(-1594.364 -213.528)" fill="#35488b"/>
            </g>
          </g>
        </g>
        <path id="Path_171" data-name="Path 171" d="M1744.6,548.279a1.165,1.165,0,1,1,1.276,1.055,1.176,1.176,0,0,1-1.276-1.055" transform="translate(-1399.385 -437.214)" fill="#d6716b"/>
        <path id="Path_437" data-name="Path 437" d="M0,0,15.929-.023l0,1.152L0,1.152Z" transform="translate(325.673 112.5) rotate(-5.802)" fill="#d6716b"/>
        <path id="Path_172" data-name="Path 172" d="M1671.842,267.684l16.749,167.162a1.249,1.249,0,1,1-2.485.256l-16.75-167.162a1.266,1.266,0,0,1,1.118-1.387,1.232,1.232,0,0,1,.913.279,1.267,1.267,0,0,1,.455.853" transform="translate(-1339.027 -213.057)" fill="#35488b"/>
        <path id="Path_173" data-name="Path 173" d="M1671.842,267.684l5.343,53.32-2.486.256-5.343-53.32a1.266,1.266,0,0,1,1.118-1.387,1.232,1.232,0,0,1,.913.279,1.267,1.267,0,0,1,.455.853" transform="translate(-1339.027 -213.057)" fill="#d6716b"/>
        <g id="Group_50" data-name="Group 50" transform="translate(124.552 137.172)" opacity="0.3">
          <g id="Group_49" data-name="Group 49">
            <g id="Group_48" data-name="Group 48" clip-path="url(#clip-path-4)">
              <path id="Path_174" data-name="Path 174" d="M629.446,723.245s9.274-22.659,27.434-19.976,50.211,1.908,71.409-11.276,39.443-6.98,39.443-6.98V802.121H629.446Z" transform="translate(-629.446 -683.555)" fill="#7dabbd"/>
            </g>
          </g>
        </g>
        <path id="Path_175" data-name="Path 175" d="M133.792,893.093s49.324.257,82.317,15.485c0,0-4.938,80.279-59.316,92.553,0,0-46.169-27.828-23-108.038" transform="translate(-102.101 -713.872)" fill="#fff"/>
        <path id="Path_176" data-name="Path 176" d="M165.074,923.179s44.827,2.485,70.531,13.181c0,0-2.66,65.453-50.176,80.953,0,0-37.532-18.782-20.355-94.134" transform="translate(-128.8 -737.921)" fill="#2e49d3"/>
        <path id="Path_177" data-name="Path 177" d="M271.273,1040.523l-13.122-2.452,2.358-12.979-12.018-2.246-2.358,12.979-12.474-2.331-2.215,12.188,12.474,2.331-2.358,12.979,12.018,2.246,2.358-12.979,13.122,2.452Z" transform="translate(-185.647 -817.587)" fill="#fff"/>
      </g>
    </g>
    <g id="Group_72" data-name="Group 72" transform="translate(124.552 22.968)">
      <g id="Group_71" data-name="Group 71" clip-path="url(#clip-path-5)">
        <path id="Path_178" data-name="Path 178" d="M832.49,533.315c-7.723,2.47-21.086-4.2-21.086-4.2s6.025-4.585,6.7-14.1c.011-.131.019-.261.024-.394.04-.7.049-1.439.025-2.2l2.114,1.727,7.912,6.47s-.405,3.189-.568,8.5a16.515,16.515,0,0,1,3.019,2.153,12.23,12.23,0,0,1,1.86,2.034" transform="translate(-775.399 -432.563)" fill="#f4ac75"/>
        <path id="Path_179" data-name="Path 179" d="M768.089,588.245s20.412-3.266,33.861,5.763c0,0,9.136,60.573,1.181,66.3s-35.042,0-35.042,0Z" transform="translate(-740.655 -492.707)" fill="#f4ac75"/>
        <path id="Path_180" data-name="Path 180" d="M756.224,721.709H719.337s4.286-63.831,5.51-79.37c.995-12.6,3.1-42.822,3.857-53.793l.28-4.069,8.806-1.521,15.125,19.88s2.392,53.017,2.305,61.373.955,40.914,1,46.389,0,11.111,0,11.111" transform="translate(-701.55 -488.939)" fill="#e9f2ff"/>
        <path id="Path_181" data-name="Path 181" d="M889.033,612.979l3.307,118.872h17.379s-.8-78.183-.863-85.366,1.889-38.126-3.535-42.929c-4.534-4.014-15.443-7.912-15.443-7.912Z" transform="translate(-837.667 -499.082)" fill="#e9f2ff"/>
        <path id="Path_182" data-name="Path 182" d="M889.99,581.975s4.954,3.462,4.768,4.7a23.534,23.534,0,0,1-.866,3.208l-3.031-.624,2.557,1.825s-2.9,8.577-4.386,10.964Z" transform="translate(-837.667 -488.155)" fill="#e9f2ff"/>
        <g id="Group_55" data-name="Group 55" transform="translate(17.787 124.781)" opacity="0.2">
          <g id="Group_54" data-name="Group 54">
            <g id="Group_53" data-name="Group 53" clip-path="url(#clip-path-6)">
              <path id="Path_183" data-name="Path 183" d="M726.625,740.709c2.168-13.52,27.234,6.459,25.15,24.193-3.855,32.808-20.27,69.389-32.44,79.348Z" transform="translate(-719.336 -736.261)" fill="#b2cbfd"/>
            </g>
          </g>
        </g>
        <path id="Path_184" data-name="Path 184" d="M844.81,521.9a.961.961,0,0,0-.112-.363l.136-.031,2.139-.471,7.912,6.47s-.342,3.012-.587,8.518c-.02-.027-8.153-4.593-9.488-14.123" transform="translate(-802.105 -439.441)" fill="#c97c47"/>
        <path id="Path_185" data-name="Path 185" d="M858.109,468.224s-13.775-.391-13.4-9.087-1.155-14.6,7.655-14.721,10.376,3.276,10.948,6.209-1.608,17.477-5.2,17.6" transform="translate(-802.106 -378.198)" fill="#f4ac75"/>
        <path id="Path_186" data-name="Path 186" d="M827.352,430.845a3.153,3.153,0,0,0,3.214-1.441c1.421-1.921,3.788-9.317,6.914-9.8s7.245,1.873,8.574.528c1.936-1.96,4.435-5.167,4.435-5.167s-15.5-11.209-21.69-6.022-8.354,12.774-1.446,21.9" transform="translate(-784.759 -348.753)" fill="#2c3a64"/>
        <path id="Path_187" data-name="Path 187" d="M925.688,621.546c-.291-5.385-3.189-14.16-3.214-14.245l.827.372c.1.35,2.408,8.359,2.7,13.86Z" transform="translate(-864.491 -508.399)" fill="#2c3a64"/>
        <path id="Path_188" data-name="Path 188" d="M812.684,695.843c-.291-.306-7.382-7.223-5.869-12.068a4.805,4.805,0,0,1,2.826-3.181c1.074-.4,3.579-.81,4.874.016,2.362,1.508,3.553,5.674,3.9,12.6l-.288.015c-.415-8.218-2.505-11.194-4.066-11.865-1.962-.843-5.4-.493-6.488,2.689-.746,2.193.718,5.259,2.076,7.364,1.508,2.338,3.151,4.41,3.169,4.428Z" transform="translate(-771.548 -566.615)" fill="#2c3a64"/>
        <path id="Path_189" data-name="Path 189" d="M834.257,755.373h0a.694.694,0,0,1-.988,0l-.485-.492a.717.717,0,0,1,0-1,.694.694,0,0,1,.988,0l.485.493a.717.717,0,0,1,0,1" transform="translate(-792.385 -625.397)" fill="#fb7369"/>
        <path id="Path_190" data-name="Path 190" d="M862.884,743.487h0a.706.706,0,0,1-.7-.708v-.7a.7.7,0,1,1,1.4,0v.7a.705.705,0,0,1-.7.708" transform="translate(-816.132 -615.567)" fill="#fb7369"/>
        <path id="Path_191" data-name="Path 191" d="M929.639,670.633a1.894,1.894,0,1,1,1.894,1.921,1.908,1.908,0,0,1-1.894-1.921" transform="translate(-870.238 -557.486)" fill="#2c3a64"/>
        <path id="Path_192" data-name="Path 192" d="M934.705,674.4a.963.963,0,1,1,.963.976.97.97,0,0,1-.963-.976" transform="translate(-874.302 -561.248)" fill="#d6716b"/>
        <path id="Path_193" data-name="Path 193" d="M890.006,800.8a199.213,199.213,0,0,1-.861-22.5c.145-4.4.023-9.567-.1-14.566-.169-7.131-.547-14,.021-18.476.972-7.663.778-42.494.38-46.269a30.478,30.478,0,0,1,.343-8.935c.367-1.24-1.2-8.033-1.222-8.1l.183-.048c.072.284,1.768,6.974,1.386,8.266a28.363,28.363,0,0,0-.5,8.8c.4,3.779,1.163,38.6.19,46.274a137.68,137.68,0,0,0-.589,18.488c.119,5,.242,10.175.1,14.577a150.3,150.3,0,0,0,1.408,22.494Z" transform="translate(-837.295 -568.032)" fill="#b2cbfd"/>
        <path id="Path_194" data-name="Path 194" d="M1027.3,797.9s4.667,8.148-.227,10.292-5.422-.115-5.422-.115Z" transform="translate(-944.042 -660.748)" fill="#e9f2ff"/>
        <path id="Path_195" data-name="Path 195" d="M705.645,629.807a6.954,6.954,0,0,1,.659,2.913,20.066,20.066,0,0,1-.753,3.618s-28.814,6.22-34.413,1.02c-6.012-5.582,5.143-47.526,9.916-51.629,2.057-1.769,6.394-2.849,10.4-3.495,2.207-.357,4.311-.582,5.878-.718,1.614-.142,2.659-.188,2.659-.188l-.65,2.436-2.527,9.47-2.945,11.046s-8.808,18.386-9.092,20.114,20.87,5.413,20.87,5.413" transform="translate(-661.495 -487.638)" fill="#e9f2ff"/>
        <g id="Group_58" data-name="Group 58" transform="translate(29.957 93.879)" opacity="0.2">
          <g id="Group_57" data-name="Group 57">
            <g id="Group_56" data-name="Group 56" clip-path="url(#clip-path-7)">
              <path id="Path_196" data-name="Path 196" d="M799.043,599.348s-7.348-3.244-12.629-6.2c-3.448-1.93-5.213-5.544-5.575-10.162,2.207-.357,4.311-.582,5.878-.718.254.082.405.138.405.138l1.6,2.109Z" transform="translate(-780.84 -582.267)" fill="#b2cbfd"/>
            </g>
          </g>
        </g>
        <path id="Path_197" data-name="Path 197" d="M819.526,593.864,808.081,571.73s-4.269.878-5.7,2.24c0,0,.728,6.657,1.3,8.129a10.585,10.585,0,0,1,2.526-.064,12.9,12.9,0,0,1-1.389,1.857s9.949,4.7,14.714,9.971" transform="translate(-768.16 -479.966)" fill="#e9f2ff"/>
        <path id="Path_198" data-name="Path 198" d="M796.963,604.356c-.782-1.752-7.674-16.68-5.919-20.478l.674-.085c-1.329,2.877,3.448,15.854,5.523,20.5Z" transform="translate(-758.839 -489.608)" fill="#2c3a64"/>
        <g id="Group_61" data-name="Group 61" transform="translate(53.312 126.739)" opacity="0.5">
          <g id="Group_60" data-name="Group 60">
            <g id="Group_59" data-name="Group 59" clip-path="url(#clip-path-8)">
              <path id="Path_199" data-name="Path 199" d="M898.87,746.949a.919.919,0,1,1,.919.932.925.925,0,0,1-.919-.932" transform="translate(-898.87 -746.017)" fill="#b2cbfd"/>
            </g>
          </g>
        </g>
        <g id="Group_64" data-name="Group 64" transform="translate(53.312 178.936)" opacity="0.5">
          <g id="Group_63" data-name="Group 63">
            <g id="Group_62" data-name="Group 62" clip-path="url(#clip-path-9)">
              <path id="Path_200" data-name="Path 200" d="M898.87,1007.058a.919.919,0,1,1,.919.932.926.926,0,0,1-.919-.932" transform="translate(-898.87 -1006.126)" fill="#b2cbfd"/>
            </g>
          </g>
        </g>
        <g id="Group_67" data-name="Group 67" transform="translate(53.776 155.082)" opacity="0.5">
          <g id="Group_66" data-name="Group 66">
            <g id="Group_65" data-name="Group 65" clip-path="url(#clip-path-8)">
              <path id="Path_201" data-name="Path 201" d="M901.214,888.185a.919.919,0,1,1,.919.932.925.925,0,0,1-.919-.932" transform="translate(-901.214 -887.253)" fill="#b2cbfd"/>
            </g>
          </g>
        </g>
        <g id="Group_70" data-name="Group 70" transform="translate(53.776 201.617)" opacity="0.5">
          <g id="Group_69" data-name="Group 69">
            <g id="Group_68" data-name="Group 68" clip-path="url(#clip-path-9)">
              <path id="Path_202" data-name="Path 202" d="M901.214,1120.076a.919.919,0,1,1,.919.932.925.925,0,0,1-.919-.932" transform="translate(-901.214 -1119.144)" fill="#b2cbfd"/>
            </g>
          </g>
        </g>
        <path id="Path_203" data-name="Path 203" d="M849.848,607.3s3.185,1.589,8.332.606L857.6,622.3Z" transform="translate(-806.236 -508.399)" fill="#7a97f3"/>
        <path id="Path_204" data-name="Path 204" d="M884.91,692.134l29.8,2.708L896.527,727.6l-28.05-1.633Z" transform="translate(-821.179 -576.208)" fill="#d6716b"/>
        <path id="Path_205" data-name="Path 205" d="M965.4,674.149s.013-4.63,2.536-4.31,3.286,4.972,3.286,4.972Z" transform="translate(-898.924 -558.374)" fill="#b2cbfd"/>
        <path id="Path_206" data-name="Path 206" d="M913.728,692.782l-29.8-2.708-16.433,33.834.2.42L884.129,690.5l29.8,2.708Z" transform="translate(-820.39 -574.562)" fill="#fb7369"/>
        <path id="Path_207" data-name="Path 207" d="M978.219,669.9s4.211,2.1,2.723,8.815-3.342,10.4-2.262,14.377l20.075,1.869a14.573,14.573,0,0,1,.242-10.63c2.424-5.347.7-11.458-1.523-11.989Z" transform="translate(-909.206 -558.438)" fill="#e9f2ff"/>
        <path id="Path_208" data-name="Path 208" d="M1018.726,801.892s-3.052-3.719-2.42-6.408,2.9-3.311,4.293-2.36,3.409,3.128,3.031,4.793-3.367,4.749-4.9,3.975" transform="translate(-939.687 -656.597)" fill="#f4ac75"/>
        <path id="Path_209" data-name="Path 209" d="M841,820.462s5.17-2.305,7.538-1.633,5.562,1.153,5.812,2.017-1.7,4.065-4.61,4.226-8.021,1.537-9.252,0,.512-4.61.512-4.61" transform="translate(-798.378 -677.38)" fill="#f4ac75"/>
      </g>
    </g>
    <g id="Group_80" data-name="Group 80" transform="translate(0 0.001)">
      <g id="Group_79" data-name="Group 79" clip-path="url(#clip-path)">
        <path id="Path_210" data-name="Path 210" d="M1114.238,396.184h-71.631a3.079,3.079,0,0,0-3.048,3.091V430.7a3.079,3.079,0,0,0,3.048,3.091h4.064v8.243l12.671-8.243h54.9a3.079,3.079,0,0,0,3.048-3.091V399.275a3.079,3.079,0,0,0-3.048-3.091" transform="translate(-833.856 -316.68)" fill="#0d6d75"/>
        <g id="Group_75" data-name="Group 75" transform="translate(213.832 88.005)" opacity="0.4">
          <g id="Group_74" data-name="Group 74">
            <g id="Group_73" data-name="Group 73" clip-path="url(#clip-path-13)">
              <path id="Path_211" data-name="Path 211" d="M1140.075,442.667h-57.406a2.061,2.061,0,0,1,0-4.122h57.406a2.061,2.061,0,0,1,0,4.122" transform="translate(-1080.638 -438.545)" fill="#19a8a8"/>
              <path id="Path_212" data-name="Path 212" d="M1140.075,479.895h-57.406a2.061,2.061,0,0,1,0-4.122h57.406a2.061,2.061,0,0,1,0,4.122" transform="translate(-1080.638 -468.302)" fill="#19a8a8"/>
              <path id="Path_213" data-name="Path 213" d="M1140.075,517.122h-57.406a2.061,2.061,0,0,1,0-4.122h57.406a2.061,2.061,0,0,1,0,4.122" transform="translate(-1080.638 -498.059)" fill="#19a8a8"/>
            </g>
          </g>
        </g>
        <path id="Path_214" data-name="Path 214" d="M2181.869,137.159h-71.631a3.079,3.079,0,0,0-3.048,3.091v31.428a3.079,3.079,0,0,0,3.048,3.091h4.064v8.244l12.67-8.244h54.9a3.079,3.079,0,0,0,3.048-3.091V140.25a3.079,3.079,0,0,0-3.048-3.091" transform="translate(-1690.23 -109.635)" fill="#22d1d1"/>
        <g id="Group_78" data-name="Group 78" transform="translate(425.089 36.025)" opacity="0.4">
          <g id="Group_77" data-name="Group 77">
            <g id="Group_76" data-name="Group 76" clip-path="url(#clip-path-14)">
              <path id="Path_215" data-name="Path 215" d="M2207.707,183.643H2150.3a2.061,2.061,0,0,1,0-4.122h57.406a2.061,2.061,0,0,1,0,4.122" transform="translate(-2148.269 -179.521)" fill="#242424"/>
              <path id="Path_216" data-name="Path 216" d="M2207.707,220.87H2150.3a2.061,2.061,0,0,1,0-4.122h57.406a2.061,2.061,0,0,1,0,4.122" transform="translate(-2148.269 -209.277)" fill="#242424"/>
              <path id="Path_217" data-name="Path 217" d="M2207.707,258.1H2150.3a2.061,2.061,0,0,1,0-4.122h57.406a2.061,2.061,0,0,1,0,4.122" transform="translate(-2148.269 -239.034)" fill="#242424"/>
            </g>
          </g>
        </g>
        <path id="Path_218" data-name="Path 218" d="M735.463,196.537H681.076a.513.513,0,0,1-.507-.515V167.087a.513.513,0,0,1,.507-.515h54.387a.513.513,0,0,1,.507.515v28.936a.513.513,0,0,1-.507.515" transform="translate(-545.901 -133.146)" fill="#eaf1f8"/>
        <path id="Path_219" data-name="Path 219" d="M1055.663,196.537h-54.93a.513.513,0,0,1-.507-.515V167.087a.512.512,0,0,1,.507-.515h54.93a.512.512,0,0,1,.507.515v28.936a.512.512,0,0,1-.507.515" transform="translate(-802.306 -133.146)" fill="#eaf1f8"/>
        <path id="Path_220" data-name="Path 220" d="M723.9,200.733c-4-.69-6.15,3.536-6.15,3.536s-2.152-4.226-6.15-3.536-5.151,4.744-4.074,7.591,10.224,10.351,10.224,10.351,9.148-7.5,10.224-10.351-.077-6.9-4.074-7.591" transform="translate(-567.218 -160.39)" fill="#0c6c75"/>
        <path id="Path_221" data-name="Path 221" d="M732.058,232.214l.373-3.175H729.16v-1.773l-1.7,4.93v-3.459h-1.732l-1.11,3.284-.834-5.014-1.259,2.543-.169-.087,1.519-3.068.806,4.847.912-2.7h2.056v2.523l1.7-4.931v2.709h3.3l-.259,2.2,2.2-4.781v2.5h1.973v1.357l.813-1.923.174.076-1.176,2.783v-2.1H734.4v-1.825Z" transform="translate(-579.416 -180.758)" fill="#eaf1f8"/>
        <path id="Path_222" data-name="Path 222" d="M852.6,207.73H834.093a.925.925,0,0,1,0-1.849H852.6a.925.925,0,0,1,0,1.849" transform="translate(-668.315 -164.566)" fill="#b2cbfd"/>
        <path id="Path_223" data-name="Path 223" d="M852.6,226.808H834.093a.925.925,0,0,1,0-1.849H852.6a.925.925,0,0,1,0,1.849" transform="translate(-668.315 -179.816)" fill="#b2cbfd"/>
        <path id="Path_224" data-name="Path 224" d="M852.6,248.014H834.093a.925.925,0,0,1,0-1.849H852.6a.925.925,0,0,1,0,1.849" transform="translate(-668.315 -196.766)" fill="#b2cbfd"/>
        <path id="Path_225" data-name="Path 225" d="M852.6,269.221H834.093a.925.925,0,0,1,0-1.849H852.6a.925.925,0,0,1,0,1.849" transform="translate(-668.315 -213.718)" fill="#b2cbfd"/>
        <path id="Path_226" data-name="Path 226" d="M1148.39,207.73h-18.507a.925.925,0,0,1,0-1.849h18.507a.925.925,0,0,1,0,1.849" transform="translate(-905.576 -164.566)" fill="#b2cbfd"/>
        <path id="Path_227" data-name="Path 227" d="M1148.39,226.808h-18.507a.925.925,0,0,1,0-1.849h18.507a.925.925,0,0,1,0,1.849" transform="translate(-905.576 -179.816)" fill="#b2cbfd"/>
        <path id="Path_228" data-name="Path 228" d="M1148.39,248.014h-18.507a.925.925,0,0,1,0-1.849h18.507a.925.925,0,0,1,0,1.849" transform="translate(-905.576 -196.766)" fill="#b2cbfd"/>
        <path id="Path_229" data-name="Path 229" d="M1148.39,269.221h-18.507a.925.925,0,0,1,0-1.849h18.507a.925.925,0,0,1,0,1.849" transform="translate(-905.576 -213.718)" fill="#b2cbfd"/>
        <path id="Path_230" data-name="Path 230" d="M1133.144,1111.171h-30.692a1.533,1.533,0,0,0,0,3.067h30.692a1.533,1.533,0,0,0,0-3.067" transform="translate(-883.091 -888.187)" fill="#eaf1f8"/>
        <path id="Path_231" data-name="Path 231" d="M1133.144,1142.809h-30.692a1.534,1.534,0,0,0,0,3.067h30.692a1.534,1.534,0,0,0,0-3.067" transform="translate(-883.091 -913.476)" fill="#eaf1f8"/>
        <path id="Path_232" data-name="Path 232" d="M1133.144,1177.978h-30.692a1.533,1.533,0,0,0,0,3.067h30.692a1.533,1.533,0,0,0,0-3.067" transform="translate(-883.091 -941.588)" fill="#eaf1f8"/>
        <path id="Path_233" data-name="Path 233" d="M1133.144,1213.146h-30.692a1.534,1.534,0,0,0,0,3.067h30.692a1.534,1.534,0,0,0,0-3.067" transform="translate(-883.091 -969.698)" fill="#eaf1f8"/>
        <path id="Path_234" data-name="Path 234" d="M1133.144,944.948h-30.692a1.533,1.533,0,0,0,0,3.067h30.692a1.533,1.533,0,0,0,0-3.067" transform="translate(-883.091 -755.321)" fill="#eaf1f8"/>
        <path id="Path_235" data-name="Path 235" d="M1133.144,976.586h-30.692a1.533,1.533,0,0,0,0,3.067h30.692a1.533,1.533,0,0,0,0-3.067" transform="translate(-883.091 -780.61)" fill="#eaf1f8"/>
        <path id="Path_236" data-name="Path 236" d="M1133.144,1011.755h-30.692a1.533,1.533,0,0,0,0,3.067h30.692a1.533,1.533,0,0,0,0-3.067" transform="translate(-883.091 -808.722)" fill="#eaf1f8"/>
        <path id="Path_237" data-name="Path 237" d="M1133.144,1046.923h-30.692a1.533,1.533,0,0,0,0,3.067h30.692a1.533,1.533,0,0,0,0-3.067" transform="translate(-883.091 -836.832)" fill="#eaf1f8"/>
        <path id="Path_238" data-name="Path 238" d="M1036.4,200.488c-.428,2.031.015,5.512,4.5,6.944s7.784-2.129,8.158-5.641-6.787-16.478-6.787-16.478-5.01,11.1-5.867,15.174" transform="translate(-831.219 -148.127)" fill="#0d6d75"/>
        <path id="Path_239" data-name="Path 239" d="M1058.48,249.507H1056.5v-2a.576.576,0,1,0-1.152,0v2h-1.975a.584.584,0,0,0,0,1.168h1.975v2a.576.576,0,1,0,1.152,0v-2h1.975a.584.584,0,0,0,0-1.168" transform="translate(-844.478 -197.37)" fill="#eaf1f8"/>
        <path id="Path_240" data-name="Path 240" d="M1031.609,957.251h-11.715a.21.21,0,0,1-.208-.211V945.159a.21.21,0,0,1,.208-.211h11.715a.211.211,0,0,1,.209.211V957.04a.211.211,0,0,1-.209.211" transform="translate(-817.916 -755.321)" fill="#eaf1f8"/>
        <path id="Path_241" data-name="Path 241" d="M1031.609,1123.474h-11.715a.21.21,0,0,1-.208-.211v-11.881a.21.21,0,0,1,.208-.211h11.715a.211.211,0,0,1,.209.211v11.881a.211.211,0,0,1-.209.211" transform="translate(-817.916 -888.187)" fill="#eaf1f8"/>
        <path id="Path_242" data-name="Path 242" d="M1032.055,1124.516l2.23,4.96,5.4-8.65-5.76,4.912Z" transform="translate(-827.837 -895.905)" fill="#d6716b"/>
        <path id="Path_243" data-name="Path 243" d="M1032.055,957.741l2.23,4.96,5.4-8.65-5.76,4.913Z" transform="translate(-827.837 -762.597)" fill="#d6716b"/>
      </g>
    </g>
  </g>
</svg>
