<?xml version="1.0" encoding="utf-8"?>
<!-- Generator: Adobe Illustrator 25.2.0, SVG Export Plug-In . SVG Version: 6.00 Build 0)  -->
<svg version="1.1" id="income" xmlns="http://www.w3.org/2000/svg" xmlns:xlink="http://www.w3.org/1999/xlink" x="0px" y="0px"
	 viewBox="0 0 157.1 134.6" style="enable-background:new 0 0 157.1 134.6;" xml:space="preserve">
<style type="text/css">
	.st0{fill:#FAE0B2;}
	.st1{fill:#466EB6;}
	.st2{fill:#355389;}
	.st3{fill:#F48C7F;}
	.st4{fill:#F47458;}
	.st5{fill:#F7CC7F;}
	.st6{fill:#FFFFFF;}
	.st7{fill:#96D9C9;}
	.st8{fill:#86B1F2;}
	.st9{fill:#50BFA5;}
	.st10{fill:#F7A491;}
	.st11{fill:#3C8F7C;}
	.st12{fill:#184655;}
	.st13{fill:#B75742;}
	.st14{fill:#F8A492;}
</style>
<g id="Group_627" transform="translate(0 84.832)">
	<path id="Path_40634" class="st0" d="M14,10.7l-1.6-0.9c-0.4,0.7-0.9,1.3-1.5,1.9c-0.4,0.4-1.1,0.4-1.6,0l-0.1-0.1
		c-0.5-0.4-0.5-1.2,0-1.6c0,0,0,0,0.1-0.1c0.6-0.5,1-1.1,1.4-1.7c0.6-1,0.6-1.9-0.1-2.3C9.9,5.5,9.1,5.9,8,6.9
		C6.3,8.4,4.7,9.1,3.1,8.2C1.5,7.3,1,5.6,1.6,3.5L0,2.6l1-1.7l1.5,0.9c0.3-0.5,0.7-1,1.1-1.4c0.4-0.4,1.2-0.5,1.6,0l0,0
		c0.5,0.4,0.5,1.2,0,1.6c0,0,0,0,0,0C4.8,2.4,4.4,2.8,4.1,3.4c-0.6,1.1-0.4,1.8,0.1,2c0.6,0.3,1.3-0.1,2.7-1.2
		c1.9-1.6,3.3-1.9,4.9-1.1C13.3,4,14,5.8,13.2,8L15,9L14,10.7z"/>
</g>
<g id="Group_630" transform="translate(65.404 85.647)">
	<g id="Group_629" transform="translate(0 0)">
		<g id="Group_628" transform="translate(0.431 0.029)">
			<path id="Path_40635" class="st1" d="M27,36.1c4.1-5.6,7.4-5.6,7.4-5.6s1.5-9.8,0.3-13.9s-6.6-0.5-6.6-0.5S35.3,2,32.4,0.4
				c-5.5-3-14.2,12-14.2,12s2-6.6-1.9-6.6C10.5,5.9,10,21,10,21s-1.2-3-4.8-1.3c-3.9,1.8-5,12.9-5.2,21.5h20.6
				C23.5,39.4,25.9,37.6,27,36.1z"/>
		</g>
		<path id="Path_40636" class="st2" d="M19.3,11.2c0,0,0.2-7.5-3.7-7.5C9.8,3.8,10.4,21,10.4,21s-2.5-4.9-6.1-3.2
			C0.3,19.7-0.1,32,0,41.2h6.8L32.8,0.4C27.3-2.5,19.3,11.2,19.3,11.2z"/>
	</g>
</g>
<g id="Group_635" transform="translate(110.079 79.396)">
	<g id="Group_632" transform="translate(6.627 24.003)">
		<g id="Group_631" transform="translate(0 1.583)">
			<path id="Path_40637" class="st1" d="M0,21.4c0,0,18.7,2.2,23.3,0.6s1.5-4.1,1.5-4.1s9.6-1.2,10.5-4.1s-3.6-2.9-3.6-2.9
				s9.6-5.3,8.6-7.4c-2-3.8-12.8,1.4-12.8,1.4s3.7-3,1.5-4.5c-3.4-2.3-9.6,6.2-9.6,6.2s0.5-2.2-2.3-2.6C12.2,3.3,0,21.4,0,21.4z"/>
		</g>
		<path id="Path_40638" class="st2" d="M17.1,4c2.7,0.4,2.3,4.2,2.3,4.2s6.4-10.1,9.8-7.9c2.2,1.5-0.8,5.7-0.8,5.7s9.9-4.8,11.9-1
			L1.8,21.8C3.2,19.6,12.5,3.3,17.1,4z"/>
	</g>
	<g id="Group_634">
		<g id="Group_633" transform="translate(3.635 0.028)">
			<path id="Path_40639" class="st1" d="M2.9,47.2c0,0,17-11.9,19.5-17.1s-2.2-4.8-2.2-4.8s7-9.2,5.3-12.4S20,13.6,20,13.6
				s3.5-12.7,0.9-13.5c-5-1.5-9.8,14.6-9.8,14.6S9.2,5.8,6,6.4c-4.8,1,0,14.2,0,14.2s-1.4-4.3-4.1-2.3C-2.9,21.9,2.9,47.2,2.9,47.2z
				"/>
		</g>
		<path id="Path_40640" class="st2" d="M0.9,18.5C2.7,17.7,4,16,4.5,14.1c0,0,0-7.4,4.8-8.4C12.5,5,14.7,11,14.7,11
			s4.8-12.4,9.8-10.9L6.5,47C5.8,44-2.7,20.2,0.9,18.5z"/>
	</g>
</g>
<g id="Group_638" transform="translate(72.164 90.241)">
	<path id="Path_40641" class="st3" d="M39.2,36.4H4.8c-1.1,0-2-0.9-2-2l0,0c0-1.1,0.9-2,2-2h34.4c1.1,0,2,0.9,2,2l0,0
		C41.2,35.5,40.3,36.4,39.2,36.4z"/>
	<path id="Path_40642" class="st4" d="M45.2,32.6H10.8c-1.1,0-2-0.9-2-2l0,0c0-1.1,0.9-2,2-2h34.4c1.1,0,2,0.9,2,2c0,0,0,0,0,0l0,0
		C47.2,31.7,46.3,32.6,45.2,32.6C45.2,32.6,45.2,32.6,45.2,32.6z"/>
	<path id="Path_40643" class="st3" d="M40.4,28.9H6c-1.1,0-2-0.9-2-2l0,0c0-1.1,0.9-2,2-2h34.4c1.1,0,2,0.9,2,2l0,0
		C42.4,28,41.5,28.9,40.4,28.9z"/>
	<path id="Path_40644" class="st4" d="M36.4,25H2c-1.1,0-2-0.9-2-2l0,0c0-1.1,0.9-2,2-2h34.4c1.1,0,2,0.9,2,2l0,0
		C38.3,24.1,37.5,25,36.4,25z"/>
	<g id="Group_637" transform="translate(23.129 0)">
		<circle id="Ellipse_71" class="st0" cx="20.4" cy="20.4" r="17.2"/>
		<circle id="Ellipse_72" class="st5" cx="20.4" cy="20.4" r="14.4"/>
		<g id="Group_636" transform="translate(13.522 10.259)">
			<path id="Path_40645" class="st6" d="M2.4,19.4l0.8-2.3c-1-0.4-1.9-0.9-2.7-1.5c-0.6-0.5-0.7-1.3-0.3-2l0.1-0.1
				c0.5-0.7,1.4-0.8,2-0.4c0,0,0.1,0,0.1,0.1c0.7,0.6,1.5,1.1,2.4,1.4c1.4,0.5,2.5,0.3,2.8-0.6C8,13,7.4,12.2,5.9,11
				C3.7,9.2,2.4,7.4,3.2,5C4,2.9,6,1.8,8.8,2.3L9.6,0l2.3,0.8l-0.8,2.1c0.7,0.3,1.4,0.7,2.1,1.1c0.7,0.5,0.8,1.4,0.4,2l0,0
				c-0.5,0.7-1.4,0.8-2,0.4c0,0,0,0,0,0c-0.6-0.4-1.3-0.8-2-1.1C8,4.8,7.2,5.3,7,6C6.7,6.7,7.4,7.6,9.1,9c2.5,2,3.1,3.8,2.4,5.9
				c-0.8,2.1-2.9,3.4-5.8,2.9l-0.9,2.4L2.4,19.4z"/>
		</g>
	</g>
</g>
<g id="Group_643" transform="translate(5.257 62.65)">
	<g id="Group_640" transform="translate(8.892)">
		<g id="Group_639" transform="translate(0 0)">
			<path id="Path_40646" class="st2" d="M39.6,63.3c0,0-26.7-13.2-31.3-20s2.2-7.3,2.2-7.3S-1.5,24.4,0.2,19.6s7.9-0.2,7.9-0.2
				S0.4,2.1,4,0.4c6.7-3.2,16.2,15.2,16.2,15.2s-2-8,2.6-7.7c7,0.4,6.7,18.4,6.7,18.4s0.8-6.9,5-4.7C42,25.6,39.6,63.3,39.6,63.3z"
				/>
		</g>
		<path id="Path_40647" class="st1" d="M36,18.8c-3.3-1.8-6.6,3.5-6.6,3.5s0.3-14.1-6.7-14.5c-4.6-0.3-2.6,7.7-2.6,7.7
			S10.7-2.8,4,0.4L39.6,63C39.8,58.7,42.5,22.4,36,18.8z"/>
	</g>
	<g id="Group_642" transform="translate(0 33.333)">
		<g id="Group_641" transform="translate(0 2.054)">
			<path id="Path_40648" class="st2" d="M47.8,28.1c0,0-21.8,2.7-27.5,0.3S18.7,23,18.7,23S6.5,20.6,5.6,16.9s4.9-3.4,4.9-3.4
				S-1.4,5.9,0.1,3.4C3-1.3,16.4,6.3,16.4,6.3s-4.5-4.2-1.5-5.9c4.5-2.6,11.7,8.8,11.7,8.8s-0.4-2.8,3.1-3.1
				C36,5.5,47.8,28.1,47.8,28.1z"/>
		</g>
		<path id="Path_40649" class="st1" d="M29.8,6.1c-3.5,0.3-3.2,5.1-3.2,5.1S19.3-2.3,14.8,0.3c-3,1.7,0.5,7.4,0.5,7.4S3,0.7,0.1,5.4
			L47.8,30C46.2,27.2,35.7,5.5,29.8,6.1z"/>
	</g>
</g>
<path id="Path_40651" class="st1" d="M114.7,20.4l-0.8,1.9l-3.3-0.9l-1.5,2.7l-2.6-0.3l-0.1,1.3l3.4,0.4l1.4-2.6l3.4,0.9l1.2-2.9
	L114.7,20.4z"/>
<g id="Group_645" transform="translate(124.334 55.401)">
	<path id="Path_40652" class="st7" d="M2,17l0.8-2c-0.8-0.4-1.6-0.9-2.3-1.5c-0.5-0.4-0.6-1.2-0.2-1.8l0-0.1
		c0.4-0.6,1.2-0.7,1.8-0.3c0,0,0.1,0,0.1,0.1c0.6,0.5,1.3,1,2.1,1.3c1.2,0.5,2.2,0.3,2.5-0.5c0.3-0.8-0.1-1.6-1.5-2.7
		C3.4,8,2.3,6.3,3.1,4.3c0.7-1.8,2.6-2.8,5-2.3L9,0L11,0.8l-0.7,1.8c0.6,0.3,1.2,0.6,1.8,1c0.6,0.4,0.7,1.2,0.3,1.8l0,0
		c-0.4,0.6-1.2,0.7-1.8,0.3c0,0,0,0,0,0C10,5.4,9.4,5,8.8,4.8c-1.4-0.5-2-0.1-2.3,0.4C6.2,5.9,6.8,6.7,8.3,8
		c2.1,1.9,2.7,3.4,1.9,5.3c-0.8,1.9-2.7,2.9-5.3,2.4L4,17.9L2,17z"/>
</g>
<path id="Path_40653" class="st0" d="M82.3,126.7H41.9c-1.6,0-2.9-1.3-2.9-2.9l0,0c0-1.6,1.3-2.9,2.9-2.9h40.4
	c1.6,0,2.9,1.3,2.9,2.9l0,0C85.2,125.3,83.9,126.7,82.3,126.7z"/>
<path id="Path_40654" class="st5" d="M88.3,120.9h-38c-1.6,0-2.9-1.3-2.9-2.9l0,0c0-1.6,1.3-2.9,2.9-2.9h38c1.6,0,2.9,1.3,2.9,2.9
	l0,0C91.2,119.6,89.9,120.9,88.3,120.9z"/>
<path id="Rectangle_495" class="st0" d="M46.6,109.2h36.2c1.6,0,2.9,1.3,2.9,2.9l0,0c0,1.6-1.3,2.9-2.9,2.9H46.6
	c-1.6,0-2.9-1.3-2.9-2.9l0,0C43.7,110.5,45,109.2,46.6,109.2z"/>
<path id="Rectangle_496" class="st5" d="M46.5,103.4h36.3c1.6,0,2.9,1.3,2.9,2.9c0,0,0,0,0,0l0,0c0,1.6-1.3,2.9-2.9,2.9l0,0H46.5
	c-1.6,0-2.9-1.3-2.9-2.9l0,0C43.6,104.7,44.9,103.4,46.5,103.4z"/>
<path id="Path_40655" class="st0" d="M84.1,103.8H47.2c-1.6,0-2.9-1.3-2.9-2.9l0,0c0-1.6,1.3-2.9,2.9-2.9h36.9
	c1.6,0,2.9,1.3,2.9,2.9l0,0C87,102.5,85.7,103.8,84.1,103.8C84.1,103.8,84.1,103.8,84.1,103.8z"/>
<path id="Path_40656" class="st5" d="M82.5,98H45.6c-1.6,0-2.9-1.3-2.9-2.9l0,0c0-1.6,1.3-2.9,2.9-2.9h36.9c1.6,0,2.9,1.3,2.9,2.9
	l0,0C85.4,96.7,84.1,98,82.5,98z"/>
<path id="Rectangle_497" class="st5" d="M49.1,80.9h35.2c1.6,0,2.9,1.3,2.9,2.9c0,0,0,0,0,0l0,0c0,1.6-1.3,2.9-2.9,2.9l0,0H49.1
	c-1.6,0-2.9-1.3-2.9-2.9l0,0C46.2,82.2,47.5,80.9,49.1,80.9z"/>
<path id="Rectangle_498" class="st0" d="M53.7,86.5h33.7c1.6,0,2.9,1.3,2.9,2.9l0,0c0,1.6-1.3,2.9-2.9,2.9H53.7
	c-1.6,0-2.9-1.3-2.9-2.9l0,0C50.8,87.8,52.1,86.5,53.7,86.5z"/>
<circle id="Ellipse_73" class="st3" cx="36.7" cy="110.4" r="17.1"/>
<path id="Path_40657" class="st5" d="M46.4,99.8c5.8,5.4,6.2,14.5,0.8,20.3c-5.4,5.8-14.5,6.2-20.3,0.8c-5.8-5.4-6.2-14.5-0.8-20.3
	C31.5,94.8,40.6,94.5,46.4,99.8C46.4,99.8,46.4,99.8,46.4,99.8z"/>
<path id="Path_40658" class="st6" d="M46.1,114.9c0.3,0.4,0.3,1-0.1,1.4c-0.9,1-2.1,1.9-3.3,2.5c-2.1,1.1-4.6,1.3-6.9,0.6
	c-1.5-0.6-2.9-1.6-3.9-2.9l-1.3,0.6c-0.4,0.2-0.9,0-1.2-0.4c0,0,0,0,0,0l0,0c-0.2-0.4,0-0.9,0.4-1.2c0,0,0,0,0,0l1-0.5
	c-0.2-0.3-0.4-0.6-0.4-0.7c-0.2-0.4-0.3-0.8-0.5-1.2l-1.1,0.5c-0.4,0.2-0.9,0-1.2-0.4c0,0,0,0,0,0l0,0c-0.2-0.4,0-0.9,0.4-1.2
	c0,0,0,0,0,0l1.3-0.6c-0.4-1.6-0.3-3.2,0.2-4.8c0.9-2.4,2.6-4.3,4.9-5.4c1-0.5,2.1-0.9,3.3-1c0.6-0.1,1.2,0.4,1.3,1v0
	c0.1,0.6-0.4,1.2-1,1.3c0,0,0,0,0,0c-0.9,0.1-1.8,0.4-2.6,0.8c-1.5,0.7-2.7,2-3.2,3.5c-0.4,1-0.4,2.1-0.1,3.2l7.3-3.6
	c0.4-0.2,0.9,0,1.2,0.4c0,0,0,0,0,0l0,0c0.2,0.4,0,0.9-0.4,1.2c0,0,0,0,0,0l-7.6,3.7c0.1,0.4,0.3,0.7,0.4,1c0.1,0.3,0.3,0.6,0.5,1
	l7.6-3.7c0.4-0.2,1,0,1.2,0.4l0,0c0.2,0.4,0,1-0.4,1.2l-7.3,3.6c0.6,0.8,1.5,1.4,2.4,1.7c1.6,0.5,3.4,0.4,4.9-0.4
	c0.9-0.4,1.7-1,2.4-1.7c0.5-0.4,1.2-0.4,1.6,0C46,114.8,46.1,114.8,46.1,114.9L46.1,114.9z"/>
<path id="Path_40659" class="st8" d="M46.1,64.5c0.2,0.4,0.2,0.8-0.2,1.1c-0.8,0.7-1.8,1.3-2.8,1.7c-1.8,0.7-3.7,0.7-5.5-0.1
	c-1.2-0.6-2.2-1.5-2.8-2.6l-1,0.4c-0.4,0.1-0.7,0-0.9-0.4l0,0c-0.1-0.4,0-0.7,0.4-0.9l0.9-0.3c-0.1-0.3-0.2-0.5-0.3-0.6
	c-0.1-0.3-0.2-0.6-0.3-1l-0.9,0.3c-0.4,0.1-0.7,0-0.9-0.4l0,0c-0.1-0.4,0-0.7,0.4-0.9l1.1-0.4c-0.2-1.3,0-2.6,0.5-3.8
	c0.9-1.8,2.4-3.2,4.3-3.9c0.9-0.3,1.8-0.5,2.7-0.5c0.5,0,0.9,0.4,0.9,0.9v0c0,0.5-0.4,0.9-0.9,1c0,0,0,0,0,0c-0.7,0-1.4,0.2-2.1,0.4
	c-1.2,0.4-2.2,1.3-2.8,2.5c-0.4,0.8-0.5,1.7-0.3,2.5l6-2.3c0.4-0.1,0.7,0,0.9,0.4l0,0c0.1,0.4,0,0.7-0.4,0.9L35.8,61
	c0.1,0.3,0.2,0.6,0.2,0.8c0.1,0.2,0.2,0.5,0.3,0.8l6.3-2.4c0.4-0.1,0.8,0,0.9,0.4l0,0c0.1,0.4,0,0.8-0.4,0.9l-6,2.3
	c0.4,0.7,1,1.2,1.8,1.5c1.2,0.6,2.6,0.6,3.9,0c0.7-0.3,1.4-0.7,2-1.1C45.1,63.9,45.7,64,46.1,64.5C46,64.4,46,64.5,46.1,64.5
	L46.1,64.5z"/>
<path id="Path_40660" class="st5" d="M102,44.4l1.9-1l1.9,1c0.1,0.1,0.3,0,0.4-0.1c0-0.1,0-0.1,0-0.2l-0.3-2.1l1.6-1.5
	c0.1-0.1,0.1-0.3,0-0.4c0,0-0.1-0.1-0.2-0.1l-2.1-0.3l-0.9-1.9c-0.1-0.1-0.3-0.2-0.4-0.1c-0.1,0-0.1,0.1-0.1,0.1l-1,1.9l-2.1,0.3
	c-0.2,0-0.3,0.2-0.2,0.3c0,0.1,0,0.1,0.1,0.2l1.5,1.5l-0.4,2.1c0,0.2,0.1,0.3,0.2,0.3C101.8,44.4,101.9,44.4,102,44.4z"/>
<path id="Path_40661" class="st9" d="M63.4,5.3l-2,0.2l-0.7-3.2l-2.9-0.1L56.9,0l-1.2,0.5l1.2,3.1l2.8,0.1l0.7,3.3l3-0.3L63.4,5.3z"
	/>
<g id="Group_646" transform="translate(101.845 49.166)">
	<path id="Path_40662" class="st0" d="M2.4,3.5l2.1,0.7c0,0,3.4-1.1,3.7-1.8S8.6,0.1,9.1,0c0.8-0.1,1.5,0.5,1.6,1.3
		c0.2,0.8-1.1,3.2-0.9,3.5c0.7,0.4,1.4,0.7,2.2,0.9c0.6,0.2,1,0.7,1.1,1.3l0,0c0.1,0.4-0.2,0.8-0.6,1L12,8.2l0.2,0.6
		c0.1,0.5-0.1,1-0.6,1.1l-0.5,0.2l0.2,0.4c0.2,0.5-0.1,1-0.5,1.2c0,0,0,0-0.1,0l-0.4,0.1l0,0.1c0.1,0.5-0.2,0.9-0.7,1L9.2,13
		l-5.7-1.9c-0.5-0.2-1-0.5-1.4-0.8l-1.9-1C0,9.2,0,9,0,8.8l1.7-5C1.9,3.5,2.1,3.4,2.4,3.5z"/>
</g>
<path id="Path_40663" class="st5" d="M36.1,45.8c0-0.1-0.7-1.2-1.6-2.5c-4-5.8-9.9-11.3-16.9-11.1v0c3.1-0.3,6.2,0.4,8.9,2
	c4.4,2.6,8.3,6.2,11.2,10.5L36.1,45.8z"/>
<g id="Group_647" transform="translate(143.847 83.154)">
	<path id="Path_40664" class="st5" d="M0,13.5l0.3-1.1c1.8-0.3,3.2-1.5,3.8-3.2C4.3,8.5,4.4,8,4.4,7.4L2.1,6.8l0.4-1.4l2.1,0.6
		c0.1-0.9,0.2-1.7,0.5-2.5C5.6,1,8-0.4,10.4,0.1c0.1,0,0.3,0.1,0.4,0.1C11.4,0.4,12,0.6,12.5,1c0.4,0.3,0.5,0.8,0.2,1.1l0,0
		c-0.2,0.4-0.8,0.5-1.1,0.3c-0.4-0.2-0.8-0.4-1.2-0.5C8.5,1.3,7.4,2.3,7,4C6.7,4.8,6.6,5.6,6.5,6.5l3.3,1L9.4,8.9L6.3,8
		c-0.1,0.9-0.4,1.7-0.8,2.5c-0.5,0.9-1.3,1.6-2.3,2l0,0l6,1.7c0.4,0.1,0.7,0.6,0.6,1l0,0.1c-0.1,0.4-0.6,0.7-1,0.6c0,0,0,0,0,0
		L0,13.5z"/>
</g>
<g id="Group_652" transform="translate(9.014 2.083)">
	<path id="Path_40665" class="st10" d="M71.4,41.8c0.2-0.4,0.2-0.9,0.2-1.4c0-1-0.1-2.1-0.3-3.1c-0.1-0.3,3.7-1.5,3.7-1.5
		s6.1-0.3,7-1s1.7-1,1.2-0.3c-0.8,1.3-1.8,2.4-3,3.4c-0.4,0.3-5.1,1.4-5.2,1.4s-0.1,3-0.1,3L71.4,41.8z"/>
	<g id="Group_648" transform="translate(48.394 40.137)">
		<path id="Path_40666" class="st11" d="M27,0.4c0,0-4-0.7-4-0.3c-1.6,8.7-1.9,11.6-2,11.7c-0.6,0.3-9.2-7.2-10.6-7.7
			C9.6,3.9,8.9,3.9,8.2,3.9C6.5,4,7.1,4,6.2,4l0,0L6.1,4l0,1.6c1.9,1.7,6.3,27.7,6.6,27.7c0.4,0,9,2.2,8.9,1.4
			c0-0.1-5.8-4.9-7.5-11.8c-0.6-2.3-0.8-4.8-1.1-7c1.9,1,9.4,4.6,10.6,4.2C27.3,18.6,27,0.4,27,0.4z"/>
		<path id="Path_40667" class="st10" d="M41.9,46.5c0,0,8,6.3,8.3,7.4c0.4,1.6,7.7-0.5,6-0.8c-0.4-0.1-1.7-0.4-1.8-0.5
			c-0.6-0.3-7.7-8.9-7.7-8.9L41.9,46.5z"/>
		<path id="Path_40668" class="st12" d="M59.6,53.1l-5.1-0.4c-1.3,0.9-2.8,1.3-4.3,1.3c-0.3,0.9-0.4,1.9-0.2,2.8c0,0.3,0.1,1,0.3,1
			c0.9-0.1,3.5-0.7,6.3-1.3c2.1-0.4,4.2-1.2,6.1-2.2C64.9,53,59.6,53.1,59.6,53.1z"/>
		<path id="Path_40669" class="st13" d="M5.9,30.8c4.1,0.6,8.3,0.4,12.4-0.5c7.5-1.8,15.8-3.4,18.3-2c2,1.1,14.2,19.6,14.2,19.6
			L46,51.4L32.5,36.3c0,0-17.2,6.3-21.1,5.6C2.7,40.3,2.6,33.3,5.9,30.8z"/>
		<path id="Path_40670" class="st13" d="M12.3,27l5.9,7L7.3,37.3l-1.4-6.6L12.3,27z"/>
		<path id="Path_40671" class="st10" d="M24.3,58.9c0,0-0.4,9.7-0.6,11.3s4.1,6.6,3.6,4.9c-0.1-0.4-0.5-1.7-0.5-1.8
			c0-0.7,1.6-11.7,1.6-11.7L24.3,58.9z"/>
		<path id="Path_40672" class="st12" d="M28.9,78.2l-2.1-4.7c-1.4-0.7-2.5-1.8-3.1-3.2c-0.9,0.2-1.8,0.6-2.6,1.1
			c-0.2,0.2-1.6,1.2-1.5,1.4c0.4,0.9,2.3,2.8,4.5,4.9c1.7,1.4,3.4,2.6,5.3,3.8C31.5,82.9,28.9,78.2,28.9,78.2z"/>
		<path id="Path_40673" class="st4" d="M33.8,39.8c-2.1-2.7-18.6-5.3-18.6-5.3l-4.6-8.9L0.3,31.9c0,0,1,8.1,1.8,10.3
			c1,2.9,7.9,3,12.1,3c3.9,0,10.9,0.7,10.9,0.7l-2.4,21c0,0,4.7,1.1,6,0.9C28.9,67.9,36.4,43.2,33.8,39.8z"/>
		<path id="Path_40674" class="st6" d="M6.1,4L0.4,4.3c0,0-0.1,0-0.2,0.1c-0.5,0.1,0,16.9,0.4,23.2c0.1,3,0.5,6,1.3,8.9
			c0,0,7.8-1.4,10.2-2.3c1-0.4,3.4-3.4,3.4-3.4c-1.8-2.6-3-5.6-3.7-8.7c-1-4.2-2.1-11.5-2.8-13C8.2,7.2,7.3,5.6,6.1,4z"/>
	</g>
	<path id="Path_40675" class="st10" d="M48.9,39.4l-0.2,5.1c0,0,3.7,6.4,5.7,5.5c1.6-0.8,0.2-5.6,0.2-5.6s-0.3-1.1-0.7-2.4
		c-0.3-0.8-0.4-1.7-0.5-2.6C53.5,37.6,48.9,39.4,48.9,39.4z"/>
	<g id="Group_649" transform="translate(42.765 25.022)">
		<path id="Path_40676" class="st12" d="M10.6,2.7c1.1,1.6,1.8,3.4,2,5.3c0.1,1.4,0,2.7-0.4,4.1L6.2,4.8L10.6,2.7z"/>
		<path id="Path_40677" class="st3" d="M13.3,7.5c0.1,0.8-0.2,1.6-0.7,1.6s-1-0.6-1-1.4s0.2-1.6,0.7-1.6S13.2,6.7,13.3,7.5z"/>
		<path id="Path_40678" class="st10" d="M4.2,6c-0.1,0-0.1,7,1.9,8.7s5.6,1.8,6.6,0.1c1.1-1.8,0.1-9.2-3-10.8S4.2,6,4.2,6z"/>
		<path id="Path_40679" class="st12" d="M3.7,1.6C2.2,2.9,1,4.5,0.3,6.4c-1.3,3,1.3,6.1,3.4,7.3s2.3,2.7,2.3,2.7l0.1-0.9
			c0.1-0.5-0.1-1.1-0.3-1.6c-0.2-0.4-0.8-1.7-1-2.1c-0.6-0.9-0.7-1.1-0.4-2c0.2-0.7,0-2.2,0.3-3.3l2.9-0.6c1-0.3,2-0.8,2.7-1.5
			C13,1.3,7.8-2.1,3.7,1.6z"/>
		<path id="Path_40680" class="st10" d="M5.1,10.5c0.4,0.8,0.3,1.6-0.2,1.8s-1.1-0.2-1.5-1S3.2,9.7,3.7,9.5S4.8,9.8,5.1,10.5z"/>
	</g>
	<path id="Path_40681" class="st5" d="M8.9,38.1l-0.5-3.2l2.4-2.2c0.2-0.2,0.2-0.5,0-0.6c-0.1-0.1-0.2-0.1-0.3-0.1l-3.2-0.6l-1.4-3
		c-0.1-0.2-0.4-0.3-0.6-0.2c-0.1,0-0.2,0.1-0.2,0.2l-1.5,2.9l-3.2,0.4c-0.2,0-0.4,0.3-0.4,0.5c0,0.1,0.1,0.2,0.1,0.3l2.3,2.3
		l-0.6,3.2c0,0.2,0.1,0.5,0.4,0.5c0.1,0,0.2,0,0.3,0L5.3,37l2.9,1.6c0.2,0.1,0.5,0.1,0.6-0.2C8.9,38.3,8.9,38.2,8.9,38.1z"/>
	<path id="Path_40682" class="st14" d="M28.1,16.2c0.3,1.4,0.9,3.5,0.9,3.5c0,0.6-0.2,3-0.4,6l4.4-1.8c0-1.7,0-3.5,0.1-5.2
		c0.2-0.3,0.4,0.1,1.8-1.9c0.3-0.5,0.4-1,0.5-1.6c0,0,0.1-1.2-0.2-1.3c-0.3-0.1-0.6,0-0.7,0.3c-0.1,0.2-0.1,0.7-0.2,0.9
		c-0.3,0.3-0.6,0.4-1,0.5c-0.3,0,0-3.6,0-3.6s0.2-1,0.2-1.4c0.1-0.3,0.3-1.1,0.3-1.1s0.3-1.2-0.1-1.3c-0.2-0.1-0.8,0.9-1.2,2
		c-0.2,0.8-0.5,1.6-0.8,2.3c-0.3,0-0.1-2-0.1-2c0.1-0.4,0.2-0.9,0.3-1.3c0.3-0.5,0.4-1.5,0-1.6c-0.3,0.4-0.5,0.8-0.7,1.2
		c0,0-0.2,0.9-0.4,1.3c-0.2,0.7-0.3,1.9-0.4,2.4c-0.1,0.4-0.2,0.2-0.2,0.3c0-0.5,0-0.9,0.1-1.3c0-0.4,0-0.9,0.1-1.3
		c0.1-0.5,0.2-0.9,0.2-1.4c0.1-1-0.6-0.9-0.8,0c-0.1,0.4-0.2,0.7-0.3,1.1c-0.3,1.5-0.3,3-0.5,3c-0.2,0-0.1-2.7-0.1-2.7
		s-0.3-1.5-0.7-0.1c-0.2,1-0.3,2-0.3,3C28,14.1,28,15.1,28.1,16.2z"/>
	<path id="Path_40683" class="st11" d="M48.8,44.5c0,0-5.7-0.3-7.2-0.9c-0.9-0.4-8.2-6.3-8.2-6.3l0.1-15.9L28.2,21
		c0,0-2.7,17.5-1.8,19.4c1,2,11.7,10.1,13.9,13.7c1.2,2,3.8,29.8,4.2,30c2.8,1.4,11.4,2.9,11.2,2C52.5,72.4,50.2,58.5,48.8,44.5z"/>
	<g id="Group_651" transform="translate(53.904 0)">
		<circle id="Ellipse_74" class="st0" cx="20.4" cy="20.4" r="17.2"/>
		<circle id="Ellipse_75" class="st5" cx="20.4" cy="20.4" r="14.4"/>
		<g id="Group_650" transform="translate(13.522 10.259)">
			<path id="Path_40684" class="st6" d="M2.4,19.4l0.8-2.3c-1-0.4-1.9-0.9-2.7-1.5c-0.6-0.5-0.7-1.3-0.3-2l0.1-0.1
				c0.5-0.7,1.4-0.8,2-0.4c0,0,0.1,0,0.1,0.1c0.7,0.6,1.5,1.1,2.4,1.4c1.4,0.5,2.5,0.3,2.8-0.6C8,13,7.4,12.2,5.9,11
				C3.7,9.2,2.4,7.4,3.2,5C4,2.9,6,1.8,8.8,2.3L9.6,0l2.3,0.8l-0.8,2.1c0.7,0.3,1.4,0.7,2.1,1.1c0.7,0.5,0.8,1.4,0.4,2l0,0
				c-0.5,0.7-1.4,0.8-2,0.4c0,0,0,0,0,0c-0.6-0.4-1.3-0.8-2-1.1C8,4.8,7.2,5.3,7,6C6.7,6.7,7.4,7.6,9.1,9c2.5,2,3.1,3.8,2.4,5.9
				c-0.8,2.1-2.9,3.4-5.8,2.9l-0.9,2.4L2.4,19.4z"/>
		</g>
	</g>
	<path id="Path_40685" class="st10" d="M73.9,37.7c0,0,1.6-0.7,2-0.8s1.8-0.4,1.8-0.4s2.1-2.2,2.7-2.2s-1.2,2.4-1.2,2.4l-0.7,0.7
		c0,0,1.2-1,1.4-1.2s2-2.7,2.5-2.6s-0.8,2-1.4,3s-3.3,1.6-3.3,1.6L73.9,37.7z"/>
	<path id="Path_40686" class="st5" d="M92.9,44.7c0,0.4-9.7,0.5-11.7,9.1l-1.3-0.4C82.8,44.7,92.4,45,92.9,44.7
		C92.8,44.7,92.8,44.7,92.9,44.7L92.9,44.7z"/>
</g>
</svg>
