<svg xmlns="http://www.w3.org/2000/svg" width="96.922" height="96.739" viewBox="0 0 96.922 96.739">
  <g id="care_1_" data-name="care (1)" transform="translate(0.001)">
    <path id="Path_109" data-name="Path 109" d="M90.841,110.374a24.261,24.261,0,0,0-18.094-8.57,24.579,24.579,0,0,0-4.729.458q-.983.193-1.946.468a23.031,23.031,0,0,0-13.277,9.739c-.632,1.057-1.166,2.17-1.709,3.274-.59,1.2-.851,3.038-2.5,3.124-1.546.081-2.1-1.6-2.617-2.745a23.48,23.48,0,0,0-6.367-8.618,24.5,24.5,0,0,0-15.679-5.7,24.261,24.261,0,0,0-18.1,8.57C-4.48,122.259.307,140.8,9.175,152.437c8.936,11.724,22.726,22.783,36.978,26.552a8.535,8.535,0,0,0,4.366,0C64.77,175.219,78.56,164.161,87.5,152.437,96.364,140.8,101.151,122.259,90.841,110.374Zm0,0" transform="translate(0 -82.533)" fill="#e63950"/>
    <path id="Path_110" data-name="Path 110" d="M282.37,152.43c-8.934,11.723-22.725,22.783-36.973,26.553a8.637,8.637,0,0,1-4.372,0c-.214-.056-.431-.115-.646-.176,14.018-3.927,27.528-14.832,36.327-26.377,8.871-11.635,13.654-30.176,3.345-42.059a24.61,24.61,0,0,0-15.341-8.4,23.5,23.5,0,0,1,21.006,8.4C296.024,122.254,291.242,140.795,282.37,152.43Zm0,0" transform="translate(-194.876 -82.527)" fill="#cc2e43"/>
    <path id="Path_111" data-name="Path 111" d="M358.615,10.911h-6.477a2.217,2.217,0,0,1-2.218-2.217V2.217A2.217,2.217,0,0,0,347.7,0h-9.039a2.217,2.217,0,0,0-2.217,2.217V8.695a2.217,2.217,0,0,1-2.218,2.217h-6.477a2.217,2.217,0,0,0-2.218,2.218v9.039a2.217,2.217,0,0,0,2.218,2.217h6.477a2.217,2.217,0,0,1,2.218,2.217v6.478a2.217,2.217,0,0,0,2.217,2.217H347.7a2.217,2.217,0,0,0,2.217-2.217V26.6a2.217,2.217,0,0,1,2.218-2.218h6.477a2.217,2.217,0,0,0,2.217-2.217V13.129A2.217,2.217,0,0,0,358.615,10.911Zm0,0" transform="translate(-263.912)" fill="#6fd6a2"/>
    <path id="Path_112" data-name="Path 112" d="M438.163,13.133v9.038a2.218,2.218,0,0,1-2.22,2.217h-6.476a2.218,2.218,0,0,0-2.217,2.219v6.477a2.216,2.216,0,0,1-2.216,2.216h-4.112a2.218,2.218,0,0,0,2.22-2.216V25.966a5.222,5.222,0,0,1,5.222-5.222H430.7a1.329,1.329,0,0,0,1.328-1.329V16.439a1.325,1.325,0,0,0-1.325-1.326h-2.337a5.223,5.223,0,0,1-5.223-5.222V2.22A2.217,2.217,0,0,0,420.922,0h4.112A2.216,2.216,0,0,1,427.25,2.22V8.7a2.218,2.218,0,0,0,2.217,2.219h6.476A2.218,2.218,0,0,1,438.163,13.133Zm0,0" transform="translate(-341.242 -0.003)" fill="#43cd8e"/>
  </g>
</svg>
