<svg xmlns="http://www.w3.org/2000/svg" xmlns:xlink="http://www.w3.org/1999/xlink" width="467" height="374" viewBox="0 0 467 374">
  <defs>
    <clipPath id="clip-path">
      <rect id="Rectangle_157" data-name="Rectangle 157" width="467" height="374" transform="translate(0 -0.4)" fill="none"/>
    </clipPath>
    <clipPath id="clip-path-4">
      <rect id="Rectangle_137" data-name="Rectangle 137" width="54.757" height="61.46" fill="none"/>
    </clipPath>
    <clipPath id="clip-path-5">
      <rect id="Rectangle_138" data-name="Rectangle 138" width="7.917" height="9.12" fill="none"/>
    </clipPath>
    <clipPath id="clip-path-6">
      <rect id="Rectangle_139" data-name="Rectangle 139" width="63.561" height="49.267" fill="none"/>
    </clipPath>
    <clipPath id="clip-path-7">
      <rect id="Rectangle_141" data-name="Rectangle 141" width="4.221" height="13.825" fill="none"/>
    </clipPath>
    <clipPath id="clip-path-8">
      <rect id="Rectangle_142" data-name="Rectangle 142" width="7.514" height="7.623" fill="none"/>
    </clipPath>
    <clipPath id="clip-path-9">
      <rect id="Rectangle_144" data-name="Rectangle 144" width="78.195" height="91.492" fill="none"/>
    </clipPath>
    <clipPath id="clip-path-10">
      <rect id="Rectangle_146" data-name="Rectangle 146" width="53.528" height="39.338" fill="none"/>
    </clipPath>
    <clipPath id="clip-path-11">
      <rect id="Rectangle_148" data-name="Rectangle 148" width="28.826" height="7.289" fill="none"/>
    </clipPath>
    <clipPath id="clip-path-12">
      <rect id="Rectangle_149" data-name="Rectangle 149" width="17.933" height="47.401" fill="none"/>
    </clipPath>
    <clipPath id="clip-path-13">
      <rect id="Rectangle_151" data-name="Rectangle 151" width="34.641" height="10.304" fill="none"/>
    </clipPath>
  </defs>
  <g id="Group_42" data-name="Group 42" transform="translate(0 0.4)">
    <g id="Group_41" data-name="Group 41" clip-path="url(#clip-path)">
      <g id="Group_2" data-name="Group 2">
        <g id="Group_1" data-name="Group 1" clip-path="url(#clip-path)">
          <path id="Path_7" data-name="Path 7" d="M451.039,646.3H88.4c-11.47,0-20.856,4.287-20.856,9.526,0,3.628,4.5,6.8,11.078,8.405H46.686c-11.471,0-20.856,4.287-20.856,9.526s9.385,9.525,20.856,9.525H57.813c-3.108,1.665-4.993,3.818-4.993,6.164v3.81c0,5.239,9.385,9.526,20.855,9.526H430.919c11.47,0,20.856-4.287,20.856-9.526v-3.81c0-5.239-9.385-9.526-20.856-9.526l-24.291.212a13.955,13.955,0,0,0,6.87-2.007c3.534-2.35,3.691-5.927,1.963-8.888-1.12-1.919-2.915-3.441-7.36-4.013l42.937.128c11.47,0,20.856-4.287,20.856-9.526s-9.385-9.526-20.856-9.526" transform="translate(-13.767 -344.48)" fill="#1fc2c2"/>
        </g>
      </g>
      <g id="Group_40" data-name="Group 40">
        <g id="Group_39" data-name="Group 39" clip-path="url(#clip-path)">
          <path id="Path_8" data-name="Path 8" d="M249.593,91.991c-8.639.99-18.438,7.643-19.555,15.407-3.989-6.754-17.915-8.64-26.279-6.266-22.073,6.266-24.718,32.787-11.878,47.729,6.911,8.043,15.835,14.5,25.267,20.026,7.9,4.623,27.734,13.82,27.778,13.767.061.033,14.9-16.024,20.443-23.307,6.62-8.7,12.411-18.07,15.739-28.138,6.184-18.706-8.72-41.829-31.516-39.218" transform="translate(-98.156 -48.923)" fill="#d34e4e"/>
          <g id="Group_5" data-name="Group 5" transform="translate(130.023 72.508)" opacity="0.12" style="mix-blend-mode: multiply;isolation: isolate">
            <g id="Group_4" data-name="Group 4">
              <g id="Group_3" data-name="Group 3" clip-path="url(#clip-path-4)">
                <path id="Path_9" data-name="Path 9" d="M327.411,168.03a124.368,124.368,0,0,1-15.427,22.318c-5.755,6.609-12.813,12.772-21.275,16.039a31.338,31.338,0,0,1-12.287,2.158c8.248,4.107,17.142,8.215,17.172,8.179.061.032,14.9-16.024,20.443-23.307,6.62-8.7,12.411-18.07,15.739-28.138a28.325,28.325,0,0,0,1.38-10.015,90.175,90.175,0,0,1-5.745,12.766" transform="translate(-278.422 -155.264)"/>
              </g>
            </g>
          </g>
          <path id="Path_10" data-name="Path 10" d="M287.308,146.358l-17.535,3.934-10.955-21.875a1.258,1.258,0,0,0-2.314.458l-5.677,42.973q-.165,1.245-.329,2.489L235.976,149.66l-2.329-3.957a1.269,1.269,0,0,0-2.246.164l-4.2,14.215-19.723,3.9a1.151,1.151,0,1,0,.447,2.258l20.466-4.048a1.228,1.228,0,0,0,.925-.764l3.6-12.181q7.451,12.657,14.9,25.316l2.329,3.958a1.258,1.258,0,0,0,2.314-.458l5.677-42.974.272-2.056,9.576,19.122a1.231,1.231,0,0,0,1.321.6l18.453-4.14a1.151,1.151,0,1,0-.447-2.258" transform="translate(-110.077 -68.12)" fill="#fff"/>
          <path id="Path_11" data-name="Path 11" d="M729.529,153.341h0a.505.505,0,0,1-.672.244l-19.713-9.2a.506.506,0,1,1,.428-.917l19.713,9.2a.505.505,0,0,1,.244.672" transform="translate(-377.818 -76.443)" fill="#3b455a"/>
          <path id="Path_12" data-name="Path 12" d="M746.5,159.278l-1.1,2.358-10.522-4.911a1.3,1.3,0,0,1,1.1-2.357Z" transform="translate(-391.289 -82.212)" fill="#8ec3cb"/>
          <path id="Path_13" data-name="Path 13" d="M921.533,241.025l-1.5,2.854-12.671-6.646-4.528,8.633,12.671,6.646-1.5,2.854a2.359,2.359,0,0,0,4.177,2.191l7.522-14.342a2.358,2.358,0,0,0-4.177-2.191" transform="translate(-481.212 -126.445)" fill="#474ebb"/>
          <g id="Group_8" data-name="Group 8" transform="translate(428.865 114.586)" opacity="0.12">
            <g id="Group_7" data-name="Group 7">
              <g id="Group_6" data-name="Group 6" clip-path="url(#clip-path-5)">
                <path id="Path_14" data-name="Path 14" d="M918.341,254l4.528-8.632,3.388,1.777-6.988,7.343Z" transform="translate(-918.341 -245.366)"/>
              </g>
            </g>
          </g>
          <path id="Path_15" data-name="Path 15" d="M914.769,227.6l-10.776,20.544a1.294,1.294,0,0,1-1.747.545l-4.981-2.613,11.978-22.835,4.981,2.613a1.294,1.294,0,0,1,.544,1.747" transform="translate(-478.242 -118.988)" fill="#3b455a"/>
          <path id="Path_16" data-name="Path 16" d="M835.012,179.27a2.218,2.218,0,0,0-2.834,1.042l-.88,1.677a2.135,2.135,0,0,1-2.881.9l-57.6-30.216a3.356,3.356,0,0,0-2.26-.309L752.065,155.9a1.072,1.072,0,0,0-.726.552l-1.707,3.278a1.069,1.069,0,0,0-.038.908l6.491,15.5a3.357,3.357,0,0,0,1.535,1.674l57.608,30.218a2.133,2.133,0,0,1,.9,2.881l-.879,1.677a2.22,2.22,0,0,0,.753,2.924,2.171,2.171,0,0,0,3.056-.842l17-32.406a2.169,2.169,0,0,0-1.043-2.993" transform="translate(-399.49 -81.17)" fill="#8ec3cb"/>
          <g id="Group_11" data-name="Group 11" transform="translate(352.302 74.388)" opacity="0.17">
            <g id="Group_10" data-name="Group 10">
              <g id="Group_9" data-name="Group 9" clip-path="url(#clip-path-6)">
                <path id="Path_17" data-name="Path 17" d="M773.5,159.716a3.607,3.607,0,0,0-2.1-.4l-14.938,1.862a.8.8,0,0,0-.632.411l-1.357,2.61a.805.805,0,0,0,.024.752l6.978,13.29A3.6,3.6,0,0,0,763,179.728l54.956,28.827Z" transform="translate(-754.393 -159.288)" fill="#dbe8eb"/>
              </g>
            </g>
          </g>
          <path id="Path_18" data-name="Path 18" d="M826.918,219.722l-3.842,7.325-1.4-.737,3.842-7.325a.148.148,0,0,1,.2-.062l1.142.6a.148.148,0,0,1,.063.2" transform="translate(-437.951 -116.677)" fill="#3b455a"/>
          <path id="Path_19" data-name="Path 19" d="M784.921,197.693l-3.842,7.325-1.4-.737,3.842-7.325a.148.148,0,0,1,.2-.062l1.142.6a.148.148,0,0,1,.062.2" transform="translate(-415.566 -104.936)" fill="#3b455a"/>
          <path id="Path_20" data-name="Path 20" d="M868.915,241.752l-3.842,7.325-1.4-.737,3.842-7.324a.149.149,0,0,1,.2-.063l1.142.6a.148.148,0,0,1,.063.2" transform="translate(-460.335 -128.419)" fill="#3b455a"/>
          <path id="Path_21" data-name="Path 21" d="M846.038,238.5l-1.946,3.71-1.153-.6,1.946-3.71a.122.122,0,0,1,.164-.051l.937.491a.122.122,0,0,1,.051.164" transform="translate(-449.286 -126.765)" fill="#3b455a"/>
          <path id="Path_22" data-name="Path 22" d="M804.041,216.473l-1.946,3.71-1.153-.6,1.946-3.71a.122.122,0,0,1,.164-.051l.937.491a.122.122,0,0,1,.051.164" transform="translate(-426.902 -115.023)" fill="#3b455a"/>
          <path id="Path_23" data-name="Path 23" d="M387.23,512.882l-2.427,33.21-8.036,54.983h-6.179l-3.9-50.733L364.957,509.3Z" transform="translate(-194.522 -271.455)" fill="#ccd2d9"/>
          <path id="Path_24" data-name="Path 24" d="M377.092,704.249v3.341l6.682,3.341,3.341-3.341-3.341-3.341Z" transform="translate(-200.99 -375.365)" fill="#3b455a"/>
          <path id="Path_25" data-name="Path 25" d="M318.929,495.726l2.349,46.552,5.377,53.441h6.329l5.144-50.633,7.514-53.293Z" transform="translate(-169.989 -262.126)" fill="#ccd2d9"/>
          <path id="Path_26" data-name="Path 26" d="M337.229,712.72v3.422l-6.844,3.422-3.422-3.422,3.422-3.422Z" transform="translate(-174.271 -379.88)" fill="#3b455a"/>
          <path id="Path_27" data-name="Path 27" d="M353.281,313.963l-6.477-.633a32.492,32.492,0,0,1,.344-5.173c-1.8-.63-3.881-1.576-4.2-3.457a5.386,5.386,0,0,1,.1-1.79l1.259-7.343a6.567,6.567,0,0,1,.759-2.444,5.51,5.51,0,0,1,3.857-2.092,13.408,13.408,0,0,1,10.861,2.63,5.872,5.872,0,0,1,1.837,2.416,7.964,7.964,0,0,1-.261,4.652l-1.1,4.228c-.424,1.621-1.035,3.464-2.6,4.074-.828.324-1.808.231-2.557.709-1.323.844-1.142,2.812-1.829,4.222" transform="translate(-182.771 -155.002)" fill="#efbfa5"/>
          <path id="Path_28" data-name="Path 28" d="M359.377,273.809a17.455,17.455,0,0,0-.123-5.609c-.242-1.147-1.709-4.759-1.263-5.778-.834,1.768-3.085,2.255-5.029,2.449-7.288.728-15.419-1.074-22.12,2.666a8.653,8.653,0,0,0-2.959,2.926,13.033,13.033,0,0,0-.017,13.782A18.642,18.642,0,0,0,329.9,286.8c1.531,1.655,3.361,3.7,5.464,4.311.048-1.88-1.673-7.807-.231-9.351,2.025-2.166,5.707-1.744,8.338-1.369a38.653,38.653,0,0,0,10.072.053,11.871,11.871,0,0,0,3.23-.686c2.44-1.019,2.354-3.285,2.573-5.6.011-.112.022-.228.033-.348" transform="translate(-173.707 -139.871)" fill="#3b455a"/>
          <path id="Path_29" data-name="Path 29" d="M265.515,265.432l-.786-4.021,2.065-2.965-.406-.757-.952.462,1.009-2.952-.9-2.367-3.257-.86-3.2,1.368-.511,3.325,1.452,3.728.837,5.551Z" transform="translate(-137.822 -134.301)" fill="#efbfa5"/>
          <path id="Path_30" data-name="Path 30" d="M267.484,274.278l-6.174-.386,2.756,33.686,26.21,13.862,6.038-16.36-20.72-9.531Z" transform="translate(-139.278 -145.985)" fill="#ebb044"/>
          <path id="Path_31" data-name="Path 31" d="M423.264,233.722l.21-4.092-2.462-2.644.3-.807,1.007.323-1.415-2.78.554-2.47,3.1-1.311,3.361.9.976,3.219-.911,3.9-.045,5.614Z" transform="translate(-224.339 -117.229)" fill="#efbfa5"/>
          <path id="Path_32" data-name="Path 32" d="M396.61,242.16l6.057-1.254.48,23.306-2.38,18.012-15.49,22.734L372.6,286.609l14.725-10.821Z" transform="translate(-198.593 -128.403)" fill="#ebb044"/>
          <path id="Path_33" data-name="Path 33" d="M331.219,336.822l-20.463.866-10.33,39.317-8.53,54.5,65.858,1.6-15.49-77.031Z" transform="translate(-155.581 -179.526)" fill="#ebb044"/>
          <path id="Path_34" data-name="Path 34" d="M585.706,291.69l-.752-3.929,2.027-2.887-.394-.74-.931.448,1-2.878-.868-2.315-3.177-.852-3.13,1.324-.511,3.245,1.4,3.644.8,5.423Z" transform="translate(-308.588 -148.46)" fill="#c1796b"/>
          <path id="Path_35" data-name="Path 35" d="M586.79,297.875l-6.182,5.253.878,26.979,10.4,7.242,19.872-2.546L609.1,317.729l-16.6,3.2Z" transform="translate(-309.464 -158.767)" fill="#474ebb"/>
          <path id="Path_36" data-name="Path 36" d="M718.479,696.454l.777,3.565L713.1,705.1l-4.245-2.809,2.69-4.321,6.159-5.077Z" transform="translate(-377.819 -369.31)" fill="#3b455a"/>
          <path id="Path_37" data-name="Path 37" d="M662.412,465.786l6.872,15.848.648,44.587,14.13,47.959-6.57,2.914-28.836-55.688-3.282-17.638-1.3-37.148Z" transform="translate(-343.29 -248.264)" fill="#474ebb"/>
          <path id="Path_38" data-name="Path 38" d="M611.48,468.589l-.54,46.728,8.8,60.247h6.771l4.276-55.591,9.265-55.591Z" transform="translate(-325.631 -247.515)" fill="#474ebb"/>
          <path id="Path_39" data-name="Path 39" d="M631.674,700.734V704.4l-7.322,3.661-3.661-3.661,3.661-3.661Z" transform="translate(-330.828 -373.491)" fill="#3a332d"/>
          <path id="Path_40" data-name="Path 40" d="M614.506,337.143l17.985-.666s10.759,9.441,16.32,33.972c5.662,24.979-1.045,60.939-1.045,60.939s-48.252-6.431-56.164-7.424l12.07-49.32Z" transform="translate(-315.324 -179.342)" fill="#474ebb"/>
          <path id="Path_41" data-name="Path 41" d="M644.894,316.131l6.3-.616a31.558,31.558,0,0,0-.335-5.032c1.751-.613,3.775-1.533,4.083-3.363a5.231,5.231,0,0,0-.1-1.742l-1.224-7.143a6.388,6.388,0,0,0-.738-2.378,5.363,5.363,0,0,0-3.753-2.035,13.043,13.043,0,0,0-10.565,2.559,5.719,5.719,0,0,0-1.787,2.35,7.75,7.75,0,0,0,.254,4.526l1.074,4.113c.412,1.577,1.007,3.37,2.525,3.963.807.315,1.759.225,2.488.69,1.287.821,1.11,2.735,1.779,4.107" transform="translate(-339.267 -156.492)" fill="#c1796b"/>
          <path id="Path_42" data-name="Path 42" d="M610.5,279.035a20.241,20.241,0,0,1,.515-4.773c.56-2.558,3.578-3.707,6.19-3.888,5.641-.392,11.087-2.95,16.6-.976,3.149,1.129,7.379,1.4,10.229,2.991a8.41,8.41,0,0,1,2.879,2.846,12.68,12.68,0,0,1,.016,13.407,18.174,18.174,0,0,1-1.976,2.484c-1.489,1.61-3.269,3.6-5.315,4.194-.046-1.83,1.628-7.6.225-9.1-2.226-2.382-7.268-1.559-10.035-.977-3.018.635-5.71,2.768-8.7,3.22-2.152.326-4.9-.734-6.727-1.848-2.866-1.747-3.822-4.634-3.9-7.583" transform="translate(-325.396 -143.195)" fill="#3b455a"/>
          <path id="Path_43" data-name="Path 43" d="M627.92,341.6l-18.907,75.63-1.55,9.919,23.557,3.1s-.93-36.216-.62-41.045,3.8-15.273,4.339-26.526c.31-6.509,2.377-18.2.93-22.007Z" transform="translate(-323.778 -181.579)" fill="#fff"/>
          <path id="Path_44" data-name="Path 44" d="M104.949,705.865l-.1,1.013-.323,3.362-6.806,2.915L94.8,709.571l3.565-3.139.329-.141.04.418Z" transform="translate(-50.53 -376.226)" fill="#3b455a"/>
          <path id="Path_45" data-name="Path 45" d="M102.832,638.473l-.346.047h-.363l-5.849.844-5.428-57.17-.663-2.681c5.092.075,11.143.15,17.24.2Z" transform="translate(-48.068 -308.88)" fill="#c1796b"/>
          <path id="Path_46" data-name="Path 46" d="M152.614,579.875l-1.253,14.855L138.8,633.244l-6.139-.816-.1.753-.035,0,4.524-39.691-3.874-13.558c7.125.044,14.1.042,19.441-.052" transform="translate(-70.635 -309.073)" fill="#c1796b"/>
          <path id="Path_47" data-name="Path 47" d="M138.432,694.083l.387.051,2.808,3.854-3.717,2.987-6.071-4.288.355-2.668,6,.8Z" transform="translate(-70.27 -369.912)" fill="#3b455a"/>
          <path id="Path_48" data-name="Path 48" d="M138.837,693.224l-.24.734-6-.8.1-.753Z" transform="translate(-70.675 -369.053)" fill="#3e3d3b"/>
          <path id="Path_49" data-name="Path 49" d="M76.837,388.826c-.789,3.717-3.73,6.443-6.6,9.024a156.546,156.546,0,0,1,6.432-14.362,12.682,12.682,0,0,1,.17,5.338" transform="translate(-37.435 -204.399)" fill="#8ec3cb"/>
          <path id="Path_50" data-name="Path 50" d="M58.984,453.182s5.551.11,13.357.225c5.092.075,11.143.15,17.24.2l3.183.022c7.126.044,14.1.042,19.442-.052,4.04-.071,7.153-.2,8.705-.394l-13.034-67.426-.051-.208-3.467-14.115L99.3,350.853l-12.6-6.006a7.321,7.321,0,0,1-3.6-1.714l-.458-.218a10.219,10.219,0,0,0,.536,1.6q.13.3.277.566c1.051,1.916,2.677,3.715,2.636,5.9a5.125,5.125,0,0,1-.177,1.194,19.8,19.8,0,0,1-.742,2.093c-2.8,7.327.279,15.6,4.828,21.789,2.33,3.171,5.407,5.919,6.735,9.624a8.194,8.194,0,0,1,.435,2.006c.309,3.338-1.263,6.974-4.477,7.517a8.668,8.668,0,0,0-2.256.4c-2.375,1.1-1.348,5-3.106,6.939-1.136,1.254-3.057,1.3-4.748,1.25a3.052,3.052,0,0,1-1.6-.344c-.988-.644-.893-2.08-1.185-3.224-.528-2.072-2.6-3.432-4.684-3.889a29.616,29.616,0,0,0-6.393-.211,16.354,16.354,0,0,1-7.756-1.651,10.171,10.171,0,0,1-2.514-1.9c-4.211,25.755.532,60.6.532,60.6" transform="translate(-30.226 -182.774)" fill="#8ec3cb"/>
          <path id="Path_51" data-name="Path 51" d="M111.62,322.225c-1.182-5.117.1-13.2,3.521-16.221a6.5,6.5,0,0,1,4.6-1.414c.811-.006,1.081.2,1.5.13a8.291,8.291,0,0,1,1.974,5.536c-.132,1.593-1.05,2.809-1.124,4.52-.146,3.115-4.6,6.242-2.889,9.336a7.329,7.329,0,0,1-3.46.309l-3.6-1.714q-.268-.228-.521-.481" transform="translate(-59.264 -162.346)" fill="#c1796b"/>
          <path id="Path_52" data-name="Path 52" d="M116.823,345.1a7.329,7.329,0,0,1-3.6-1.714Z" transform="translate(-60.349 -183.023)" fill="#e1cfb5"/>
          <path id="Path_53" data-name="Path 53" d="M130.78,312.055c.073-1.712.991-2.926,1.124-4.52A8.292,8.292,0,0,0,129.93,302a2.047,2.047,0,0,0,.715-.315,4.6,4.6,0,0,0,1.449-2.2,7.2,7.2,0,0,1,3.065,5.588,20.866,20.866,0,0,1-.689,9.187c-1.031,3.008-3.23,5.837-6.083,6.954-.167.065-.332.122-.5.176-1.711-3.093,2.744-6.221,2.889-9.336" transform="translate(-67.958 -159.627)" fill="#c1796b"/>
          <path id="Path_54" data-name="Path 54" d="M55.55,356.577a8.092,8.092,0,0,0,2.228,4.217q.135-.827.283-1.642-.148.814-.283,1.642a10.181,10.181,0,0,0,2.514,1.9,16.353,16.353,0,0,0,7.756,1.651,29.617,29.617,0,0,1,6.393.211c2.088.458,4.156,1.818,4.684,3.889.291,1.143.2,2.579,1.184,3.224a3.052,3.052,0,0,0,1.6.344c1.691.049,3.612,0,4.748-1.25,1.758-1.941.731-5.836,3.106-6.939a8.661,8.661,0,0,1,2.256-.4c3.213-.544,4.785-4.18,4.476-7.517a8.173,8.173,0,0,0-.434-2.007c-1.328-3.7-4.4-6.453-6.735-9.624-4.549-6.191-7.625-14.463-4.828-21.789a19.949,19.949,0,0,0,.742-2.093,5.153,5.153,0,0,0,.177-1.194c.041-2.185-1.585-3.984-2.637-5.9q-.147-.268-.277-.565a10.268,10.268,0,0,1-.536-1.6c-.022-.087-.043-.174-.064-.263a12.719,12.719,0,0,1-2.4-13.664q.181-.381.384-.745-.2.364-.384.745a12.719,12.719,0,0,0,2.4,13.664c-1.181-5.118.1-13.2,3.521-16.221a6.5,6.5,0,0,1,4.6-1.414c.811-.006,1.082.2,1.5.13a2.054,2.054,0,0,0,.714-.315,4.6,4.6,0,0,0,1.449-2.2,7.2,7.2,0,0,1,3.066,5.588,20.865,20.865,0,0,1-.689,9.187c-1.031,3.009-3.23,5.838-6.083,6.954-.166.065-.331.122-.5.176a4.062,4.062,0,0,0,.553.769c1.563,1.719,4.069,2.118,6.373,2.415a1.7,1.7,0,0,0,.835-.032,1.2,1.2,0,0,0,.658-1.132,4.853,4.853,0,0,0-.291-1.355c-1.338-4.661,1.033-9.985,1.429-14.684s-.573-9.793-4.338-12.964a10.171,10.171,0,0,0-1.851.712c-.059-.078-.119-.156-.182-.231-5.449-6.543-13.142-.949-17.281,4.047a36.188,36.188,0,0,0-7.56,14.075,56.4,56.4,0,0,0-1.111,17.068c.3,2.917,1.455,5.78,2.065,8.637a12.682,12.682,0,0,1,.17,5.338c-.789,3.717-3.73,6.443-6.6,9.023q-.392,1.006-.781,2.04t-.771,2.1q-.247.686-.478,1.394.231-.708.478-1.394.382-1.064.771-2.1t.781-2.04c-.4.357-.793.711-1.182,1.065-3.2,2.911-6.347,6.809-5.619,11.073M84.2,291.812a12.7,12.7,0,0,1,1.3-.756,12.7,12.7,0,0,0-1.3.756" transform="translate(-29.552 -150.988)" fill="#3b455a"/>
          <path id="Path_55" data-name="Path 55" d="M801.79,510.91l26.559-9.767-5.475,46.528,3.172,40.141.281,2.554-5.219.137-12.167-37.576-6.192-38.1Z" transform="translate(-427.354 -267.109)" fill="#efbfa5"/>
          <path id="Path_56" data-name="Path 56" d="M835.079,692.333l5.434-.137,1.387,4.585-.137.041.035,0-8.983,5.323-4.271.474L828,697.742l1.154-.845Z" transform="translate(-441.325 -368.941)" fill="#3b455a"/>
          <path id="Path_57" data-name="Path 57" d="M763.051,516.976l8.158,81.533,5.252.771,5.1-45.418,9.156-42.839Z" transform="translate(-406.706 -272.376)" fill="#efbfa5"/>
          <path id="Path_58" data-name="Path 58" d="M772.2,698.315l-6.963,3.948.652,3.286,12.442-1.875-.731-4.734Z" transform="translate(-407.872 -372.202)" fill="#3b455a"/>
          <path id="Path_59" data-name="Path 59" d="M734.43,448.576c-1.681-1.167-1.717-3.2-1.714-5.234a50.84,50.84,0,0,1,1.569-11.441,171.89,171.89,0,0,0,4.39-24.384c2.148-23.33,9.516-38.986,9.516-38.986l2.378-6.34q.708-1.236,1.474-2.442c2.969-4.66,8.124-12.577,13.638-13.874l.347-.079c5.8-1.272,13.225-.682,18.464,2.137a18.344,18.344,0,0,1,2.756,1.955c2.561,2.066,4.651,3.185,5.755,6.334.959,2.734,1.182,5.717,1.711,8.551,1.074,5.757,1.715,11.582,2.573,17.372,1.608,10.858,2.974,21.751,4.694,32.592.886,5.579,1.777,11.169,2.2,16.807.37,4.985,4.867,10.047,7.394,14.513.879,1.555-11.75,5.583-12.882,5.846-5.239,1.219-10.812.908-16.212.933q-17.753.081-35.481-1.094c-3.924-.26-8.76-1.009-12.242-2.963-.115-.064-.223-.133-.325-.2" transform="translate(-390.538 -183.97)" fill="#d34e4e"/>
          <path id="Path_60" data-name="Path 60" d="M788.089,345.083s6.666-1.8,7.587,13.242,2.456,53.107,4.6,63.544,5.372,30.909,5.372,30.909l-20.414.709-23.33-1.842s7.982-14.735,9.21-25.172-.921-49.731,4.3-64.466,6.314-16.661,12.673-16.926" transform="translate(-406.098 -183.894)" fill="#fff"/>
          <path id="Path_61" data-name="Path 61" d="M741.213,379.412l-10.647-1.642V368.6l25.688-19.578,8.289-2.455-3.991,10.744Z" transform="translate(-389.392 -184.719)" fill="#d34e4e"/>
          <path id="Path_62" data-name="Path 62" d="M791.035,305.087c-1.009,3.029.451,6.258,1.733,9.018,1.137,2.448,1.532,4.058-1.353,4.719-1.626.372-4.51,1.067-5.936-.178-1.079-.943-.473-3.855.052-5.011.4-.884,1.463-1.332,1.84-2.226a3.121,3.121,0,0,0,.184-1.177,16.256,16.256,0,0,0-.668-4.835,16.494,16.494,0,0,1-.837-3.212c-.138-1.6.995-3.469,1.59-4.94,1.108-2.739,4.962-6.412,8.191-4.262a4.708,4.708,0,0,1,1.52,2.124,3.924,3.924,0,0,1,.424,1.513c.024,2.1-1.9,2.457-3.221,3.458a10.529,10.529,0,0,0-3.518,5.01" transform="translate(-418.341 -155.815)" fill="#3b455a"/>
          <path id="Path_63" data-name="Path 63" d="M803.207,320.62a9.105,9.105,0,0,1-6.041-5.688,18.234,18.234,0,0,1-.816-8.507c.969-9.523,12.815-8.912,16.826-1.613,3.5,6.361-1.828,17.725-9.969,15.808" transform="translate(-424.374 -159.53)" fill="#efbfa5"/>
          <path id="Path_64" data-name="Path 64" d="M811.146,340.043l.141,3.254a.5.5,0,0,0,.643.573l2.652-.092a2.886,2.886,0,0,0,1.281-.242,2.431,2.431,0,0,0,.885-2.549,8.233,8.233,0,0,1-.275-2.846c-1.825.9-3.559-1.132-5.384-.233Z" transform="translate(-432.31 -179.979)" fill="#efbfa5"/>
          <path id="Path_65" data-name="Path 65" d="M808.954,278.809c3.111,1.057,5.105,4.2,8.141,5.459,1.74.721,3.8.812,5.221,2.05,3.183,2.774.625,8.595,3.24,11.91.544.689,1.277,1.21,1.823,1.9,1.178,1.483,1.331,3.507,1.437,5.4a5.957,5.957,0,0,1-.045,1.316c-.409,4.366-6.748,4.088-9.265,3.809-2.763-.307-1.842-1.842-1.842-1.842l.1-.122a5.284,5.284,0,0,0-1.856-4.792,6.481,6.481,0,0,1-1.493-1.309c-.818-1.25-.037-2.9-.157-4.394-.485-5.995-10.546-4.71-13.386-8.979-3.482-5.234,2.209-12.4,8.083-10.4" transform="translate(-426.297 -148.423)" fill="#3b455a"/>
          <path id="Path_66" data-name="Path 66" d="M865.248,255.46,861.4,250.07l-2.375,1.546,1.82,4.274-1.462.21,3.857,4.21,2.686-1.273Z" transform="translate(-457.858 -133.288)" fill="#efbfa5"/>
          <path id="Path_67" data-name="Path 67" d="M837.44,309.68l20.149-16.274-7.479-24.862,7.431-3.026L871.394,298.3l-20.175,25.452Z" transform="translate(-446.355 -141.522)" fill="#d34e4e"/>
          <path id="Path_68" data-name="Path 68" d="M774.818,414.339l6.017-.995-.313-2.59-4.272-.231.421-1.294-5.045,1.479-.038,2.736Z" transform="translate(-411.256 -218.119)" fill="#efbfa5"/>
          <path id="Path_69" data-name="Path 69" d="M736.607,399.33l-.031.524,14.726,4.5-.353,5.426-20.383-5.227Z" transform="translate(-389.392 -212.843)" fill="#d34e4e"/>
          <path id="Path_70" data-name="Path 70" d="M595.524,655.936h-58.41a8.354,8.354,0,0,1-8.354-8.354v-39.6a8.353,8.353,0,0,1,8.354-8.353h58.41a8.353,8.353,0,0,1,8.354,8.353v39.6a8.353,8.353,0,0,1-8.354,8.354" transform="translate(-281.829 -319.603)" fill="#d34e4e"/>
          <path id="Path_71" data-name="Path 71" d="M603.031,578.692V567.9a1.953,1.953,0,0,0-2.025-1.8H571.752a1.952,1.952,0,0,0-2.025,1.8v10.77a3.065,3.065,0,0,0-2.951,3.088H576.7a3.066,3.066,0,0,0-2.923-3.086V569.7h25.2v8.962h-.2a3.065,3.065,0,0,0-3.038,3.092h9.924a3.073,3.073,0,0,0-2.633-3.062" transform="translate(-302.092 -301.727)" fill="#d34e4e"/>
          <path id="Path_72" data-name="Path 72" d="M604.213,631.232H590.868v-13.58a.938.938,0,0,0-.916-.932h-7.583a.937.937,0,0,0-.916.932v13.58H568.108a.937.937,0,0,0-.916.932v7.717a.868.868,0,0,0,.263.652.838.838,0,0,0,.653.28h13.345v13.58a.937.937,0,0,0,.916.932h7.583a.839.839,0,0,0,.641-.268.866.866,0,0,0,.275-.665v-13.58h13.345a.937.937,0,0,0,.916-.932v-7.717a.938.938,0,0,0-.916-.932" transform="translate(-302.313 -328.712)" fill="#fff"/>
          <path id="Path_73" data-name="Path 73" d="M319.647,373.294a17.54,17.54,0,1,0,13.409-20.925,17.571,17.571,0,0,0-13.409,20.925" transform="translate(-170.156 -187.599)" fill="#3b455a"/>
          <path id="Path_74" data-name="Path 74" d="M331.267,378.413a12.056,12.056,0,1,0,9.217-14.383,12.078,12.078,0,0,0-9.217,14.383" transform="translate(-176.417 -193.881)" fill="#ccd2d9"/>
          <rect id="Rectangle_140" data-name="Rectangle 140" width="4.7" height="56.114" transform="matrix(0.977, -0.212, 0.212, 0.977, 165.885, 189.645)" fill="#ccd2d9"/>
          <path id="Path_75" data-name="Path 75" d="M348.466,386.678a4.127,4.127,0,1,0,3.156-4.924,4.135,4.135,0,0,0-3.156,4.924" transform="translate(-185.682 -203.425)" fill="#3b455a"/>
          <g id="Group_14" data-name="Group 14" transform="translate(163.813 185.733)" opacity="0.13">
            <g id="Group_13" data-name="Group 13">
              <g id="Group_12" data-name="Group 12" clip-path="url(#clip-path-7)">
                <path id="Path_76" data-name="Path 76" d="M352.1,398.139l2.9,13.367a21.177,21.177,0,0,1-4.222-.175l.591-13.616Z" transform="translate(-350.776 -397.715)"/>
              </g>
            </g>
          </g>
          <path id="Path_77" data-name="Path 77" d="M456.586,488.91c-1.021.181-1.9,1.061-3.026.953.253,1.612-.319-2.133-.162-.5q.316,3.267.4,6.558.043,1.865.006,3.733c0,.214-.049,1.382-.011.5-.014.328-.026.656-.042.984q-.047.95-.117,1.9A65.478,65.478,0,0,1,452.5,511.3c-.286,1.4-.624,2.787-1.024,4.172q-.315,1.087-.681,2.169c-.1.308-.216.615-.325.922-.02.057-.055.151-.083.225-.022.058-.044.116-.067.174a39.847,39.847,0,0,1-4.079,7.746c-.208.3-.426.6-.644.9.227-.315-.347.447-.464.59q-.632.78-1.323,1.532a34.133,34.133,0,0,1-3.133,2.973c.213-.186-.673.522-.838.643q-.48.352-.978.689-.9.61-1.86,1.168-.644.376-1.311.725c-.149.078-.3.152-.45.232l-.043.023-.046.02c-.721.316-1.429.643-2.167.932q-1.391.547-2.837.988-.608.186-1.223.353c-.183.05-.368.1-.552.146l-.036.008a57.079,57.079,0,0,1-5.943.992c-.574.057-1.148.1-1.723.137l-.111.007-.069,0-.385.019.23-.012-.225.007c-.865.006-1.726.007-2.586-.036q-1.381-.067-2.741-.24c-.382-.048-.758-.111-1.138-.163l-.026,0-.057-.013c-.161-.037-.328-.064-.49-.1a32.7,32.7,0,0,1-4.672-1.34c-.225-.084-1.608-.672-.739-.282-.321-.144-.645-.283-.962-.432q-1.009-.472-1.967-1a36.422,36.422,0,0,1-3.665-2.341c-.091-.067-.211-.157-.267-.2-.177-.141-.358-.28-.535-.423q-.4-.322-.786-.652-.826-.7-1.6-1.439a44.143,44.143,0,0,1-3.11-3.276q-.775-.9-1.5-1.832c-.135-.174-.631-.842-.354-.461-.2-.271-.4-.543-.59-.816a69.941,69.941,0,0,1-8.009-15.227q-.708-1.818-1.334-3.658c-.11-.323-.217-.647-.325-.97l-.027-.078-.046-.148c-.175-.559-.35-1.118-.517-1.678q-.867-2.9-1.552-5.849c-.419-1.8-.816-3.621-1.076-5.452-.512-3.607-7.8-2.57-7.291,1.03.019.127.042.254.059.381a65.7,65.7,0,0,0,1.793,8.173,96.158,96.158,0,0,0,5.34,15.1c4.877,10.695,12.575,22,26.283,26.96,14.356,5.191,33.242.613,43.275-9.707,9.481-9.75,11.8-22.49,12.155-33.928.173-5.512.746-5.744-.189-11.177-1.28.547-2.958.164-4.287.4m-28.188,49.7c.508-.131.189-.044,0,0m21.961-19.747h0" transform="translate(-198.345 -260.376)" fill="#7fc5a3"/>
          <path id="Path_78" data-name="Path 78" d="M553.8,247.986l15.746-2.639a2.134,2.134,0,0,1,2.42,1.732q3.014,17.991,6.027,35.982l.85,5.076c.448,2.676-3.695,3.375-4.144.694q-3.014-17.991-6.026-35.982-.252-1.5-.5-3L554.5,252.145c-2.667.446-3.368-3.712-.7-4.159" transform="translate(-294.278 -130.755)" fill="#ccd2d9"/>
          <path id="Path_79" data-name="Path 79" d="M540.192,255.835l4.781-.8-1.393-8.319-4.782.8a3.555,3.555,0,0,0-2.92,4.092l.219,1.308a3.555,3.555,0,0,0,4.094,2.918" transform="translate(-285.597 -131.499)" fill="#3b455a"/>
          <path id="Path_80" data-name="Path 80" d="M552.423,254.333l4.052-.679a4.108,4.108,0,0,0,3.373-4.729l-.254-1.512a4.107,4.107,0,0,0-4.73-3.372l-4.051.679Z" transform="translate(-293.584 -130.044)" fill="#ccd2d9"/>
          <path id="Path_81" data-name="Path 81" d="M447.714,265.134l-15.747,2.639a2.136,2.136,0,0,0-1.724,2.427q3.014,17.991,6.027,35.982.425,2.539.85,5.076c.448,2.677,4.593,1.987,4.144-.694q-3.014-17.992-6.026-35.982-.251-1.5-.5-3l13.675-2.292c2.666-.447,1.974-4.607-.7-4.159" transform="translate(-229.305 -141.298)" fill="#ccd2d9"/>
          <path id="Path_82" data-name="Path 82" d="M475.577,266.563l-4.782.8-1.394-8.319,4.781-.8a3.555,3.555,0,0,1,4.094,2.918l.219,1.308a3.555,3.555,0,0,1-2.919,4.092" transform="translate(-250.191 -137.618)" fill="#3b455a"/>
          <path id="Path_83" data-name="Path 83" d="M463.621,268.012l-4.052.679a4.107,4.107,0,0,1-4.731-3.372l-.254-1.512a4.108,4.108,0,0,1,3.374-4.729l4.052-.679Z" transform="translate(-242.264 -137.727)" fill="#ccd2d9"/>
          <g id="Group_17" data-name="Group 17" transform="translate(255.23 230.683)" opacity="0.13">
            <g id="Group_16" data-name="Group 16">
              <g id="Group_15" data-name="Group 15" clip-path="url(#clip-path-8)">
                <path id="Path_84" data-name="Path 84" d="M546.53,496.021s.3,2.578.5,5.569l7.015-4.52-.487-3.1Z" transform="translate(-546.53 -493.968)"/>
              </g>
            </g>
          </g>
          <path id="Path_85" data-name="Path 85" d="M521.792,333.968a122,122,0,0,1,2.737,22.918c.462,13.57-.786,28.655-8.826,40.082-8.509,12.093-25.551,17.237-39.105,10.855-12.943-6.093-20.8-19.633-26.023-32.4a146.45,146.45,0,0,1-5.953-18.009c-.846-3.2-1.684-6.455-2.213-9.729-.025-.151-.056-.3-.08-.453-.719-4.282,5.91-5.4,6.63-1.111.366,2.178.856,4.34,1.366,6.488q.833,3.5,1.831,6.966c.192.667.392,1.333.591,2,.264.882-.157-.483.083.27.122.386.242.772.365,1.157q.7,2.192,1.479,4.361a101.412,101.412,0,0,0,8.414,18.195c.22.365.445.726.668,1.089-.421-.68.142.218.288.441q.729,1.113,1.5,2.2c.97,1.356,2,2.674,3.085,3.935q.764.885,1.571,1.733.379.4.768.785c.172.172.347.34.52.511.141.138.708.651.074.077a38.074,38.074,0,0,0,3.715,3q.918.643,1.877,1.22c.3.181.61.351.914.527-.826-.477.486.243.7.346a26.975,26.975,0,0,0,4.387,1.662c.151.043.307.078.457.124.781.237-.728-.133.077.021.353.068.7.148,1.058.212q1.259.224,2.536.326c.793.063,1.584.075,2.379.082.208,0,.817-.037,0,.007.172-.01.346-.014.518-.027.526-.04,1.05-.078,1.574-.137a39.881,39.881,0,0,0,5.395-1.087c.161-.041.635-.205-.1.034.209-.068.417-.136.625-.207q.553-.19,1.1-.4c.864-.334,1.713-.71,2.54-1.128.659-.333,1.286-.709,1.927-1.073.721-.409-.594.427.079-.05.13-.092.266-.178.4-.268q.589-.4,1.155-.84.841-.648,1.628-1.358.435-.392.852-.8c.167-.164,1.184-1.266.547-.545a33.329,33.329,0,0,0,2.852-3.686q.583-.88,1.11-1.8c.11-.19.7-1.309.277-.481.217-.423.433-.844.638-1.273a49.48,49.48,0,0,0,3.213-9.131c.041-.16.078-.319.116-.48-.191.785-.048.206-.005.009.078-.363.159-.725.234-1.089q.263-1.277.476-2.564.408-2.455.652-4.935a97.012,97.012,0,0,0,.464-9.787q0-1.126-.023-2.252c-.008-.39-.02-.779-.029-1.169.026,1.047-.014-.337-.025-.592q-.093-2.217-.264-4.431-.3-3.905-.817-7.79c-.4-3.021-.961-6-1.514-9-.027-.145-.062-.29-.1-.435a3.361,3.361,0,1,1,6.63-1.111" transform="translate(-235.732 -176.503)" fill="#7fc5a3"/>
          <path id="Path_86" data-name="Path 86" d="M481.9,612.777l-.006-.026.313-.08h.013l0,.012s0,.007-.011.014h0l-.009,0c-.031.012-.11.032-.3.078" transform="translate(-256.85 -326.553)" fill="#a0a2a5"/>
          <path id="Path_87" data-name="Path 87" d="M535.7,564.5l-.025-.01.011-.025.024.009Z" transform="translate(-285.516 -300.859)" fill="#a0a2a5"/>
          <path id="Path_88" data-name="Path 88" d="M541.981,472.357l0-.026c.063-.006.1-.009.117-.009v.026Z" transform="translate(-288.875 -251.748)" fill="#a0a2a5"/>
          <path id="Path_89" data-name="Path 89" d="M556.08,475.508l-.008-.025c.05-.016.212-.069.222-.07l.012,0,0,.012s0,.008-.01.015h0a2.1,2.1,0,0,1-.215.068" transform="translate(-296.386 -253.394)" fill="#a0a2a5"/>
          <path id="Path_90" data-name="Path 90" d="M591.769,431.4h0l-.026-.007v0l0-.008c.009-.035.021-.086.038-.155l.006-.025.023-.1V431.1l.025.006c-.012.049-.022.09-.03.127l-.041.167" transform="translate(-315.399 -229.775)" fill="#a0a2a5"/>
          <path id="Path_91" data-name="Path 91" d="M591.739,431.835l-.026-.005s0-.008.005-.022h0l.026.007c0,.014-.005.021-.005.021" transform="translate(-315.383 -230.153)" fill="#a0a2a5"/>
          <path id="Path_92" data-name="Path 92" d="M542.2,477.954v-.026h.017l.165-.007v.026l-.056,0-.126.005Z" transform="translate(-288.99 -254.731)" fill="#a0a2a5"/>
          <rect id="Rectangle_143" data-name="Rectangle 143" width="97.732" height="73.675" transform="translate(64.251 266.239) rotate(-80.719)" fill="#3b455a"/>
          <g id="Group_20" data-name="Group 20" transform="translate(70.355 184.141)" opacity="0.26">
            <g id="Group_19" data-name="Group 19">
              <g id="Group_18" data-name="Group 18" clip-path="url(#clip-path-9)">
                <path id="Path_93" data-name="Path 93" d="M150.654,473.148l1.088.178L215.629,485.8l13.22-91.493-3.124.366Z" transform="translate(-150.654 -394.306)" fill="#040909"/>
              </g>
            </g>
          </g>
          <rect id="Rectangle_145" data-name="Rectangle 145" width="90.421" height="66.243" transform="translate(68.595 262.695) rotate(-80.719)" fill="#f7f7f7"/>
          <g id="Group_23" data-name="Group 23" transform="translate(76.369 173.058)" opacity="0.05">
            <g id="Group_22" data-name="Group 22">
              <g id="Group_21" data-name="Group 21" clip-path="url(#clip-path-10)">
                <path id="Path_94" data-name="Path 94" d="M170.037,370.574l47.023,7.684-53.528,31.653Z" transform="translate(-163.531 -370.574)"/>
              </g>
            </g>
          </g>
          <g id="Group_26" data-name="Group 26" transform="translate(101.311 176.008)" opacity="0.12">
            <g id="Group_25" data-name="Group 25">
              <g id="Group_24" data-name="Group 24" clip-path="url(#clip-path-11)">
                <rect id="Rectangle_147" data-name="Rectangle 147" width="2.685" height="28.77" transform="translate(0 2.649) rotate(-80.719)"/>
              </g>
            </g>
          </g>
          <path id="Path_95" data-name="Path 95" d="M241.254,359.482l-.441-.072.049-.3c.454-2.782-1.783-5.462-5-5.988l-4.233-.692c-3.214-.525-6.188,1.3-6.643,4.086l-.048.3-.441-.072c-3.214-.525-6.188,1.3-6.642,4.086l-.92,5.627,28.394,4.64.919-5.627c.454-2.781-1.783-5.462-5-5.987m-4.656-.642-7.481-1.223a1.4,1.4,0,1,1,.452-2.764l7.481,1.223a1.4,1.4,0,1,1-.452,2.764" transform="translate(-115.628 -187.8)" fill="#bec6cc"/>
          <g id="Group_29" data-name="Group 29" transform="translate(79.858 199.811)" opacity="0.47">
            <g id="Group_28" data-name="Group 28">
              <g id="Group_27" data-name="Group 27" clip-path="url(#clip-path-12)">
                <path id="Path_96" data-name="Path 96" d="M195.089,429.436l-9.6-1.568a.512.512,0,0,0-.581.415q-.779,4.771-1.559,9.542a.513.513,0,0,0,.419.579l9.6,1.569a.469.469,0,0,0,.36-.078l.02-.013.007-.005a.469.469,0,0,0,.194-.319q.78-4.77,1.558-9.542a.512.512,0,0,0-.418-.579m-2.059,9.46-8.6-1.405q.7-4.274,1.4-8.548l8.6,1.4-1.4,8.548" transform="translate(-177.58 -427.861)" fill="#c0c4c9"/>
                <path id="Path_97" data-name="Path 97" d="M188.917,467.213l-9.6-1.569a.513.513,0,0,0-.581.415q-.779,4.771-1.559,9.542a.512.512,0,0,0,.419.578l9.6,1.569a.47.47,0,0,0,.36-.078l.02-.014.011-.008a.464.464,0,0,0,.191-.317q.78-4.77,1.559-9.541a.513.513,0,0,0-.419-.579m-2.059,9.46-8.6-1.405q.7-4.273,1.4-8.548l8.6,1.405-1.4,8.548" transform="translate(-174.291 -447.996)" fill="#c0c4c9"/>
                <path id="Path_98" data-name="Path 98" d="M182.747,504.99l-9.6-1.568a.512.512,0,0,0-.581.415q-.779,4.771-1.558,9.542a.512.512,0,0,0,.418.579l9.6,1.569a.47.47,0,0,0,.36-.078l.019-.013.011-.008a.462.462,0,0,0,.191-.316q.78-4.77,1.559-9.542a.513.513,0,0,0-.419-.579m-2.059,9.46-8.6-1.405q.7-4.274,1.4-8.548l8.6,1.405-1.4,8.548" transform="translate(-171.002 -468.131)" fill="#c0c4c9"/>
              </g>
            </g>
          </g>
          <path id="Path_99" data-name="Path 99" d="M193.6,432.39l2.325-.37.868,2.393,11.774-5.831,1.186.444-13.888,7.987Z" transform="translate(-103.188 -228.434)" fill="#d34e4e"/>
          <path id="Path_100" data-name="Path 100" d="M185.559,470.845l2.325-.37.868,2.393,11.774-5.831,1.186.444-13.888,7.987Z" transform="translate(-98.903 -248.93)" fill="#d34e4e"/>
          <path id="Path_101" data-name="Path 101" d="M179.29,506.53l2.325-.37.868,2.393,11.774-5.831,1.186.444-13.888,7.987Z" transform="translate(-95.562 -267.951)" fill="#d34e4e"/>
          <g id="Group_32" data-name="Group 32" transform="translate(96.356 241.553)" opacity="0.32">
            <g id="Group_31" data-name="Group 31">
              <g id="Group_30" data-name="Group 30" clip-path="url(#clip-path-13)">
                <rect id="Rectangle_150" data-name="Rectangle 150" width="4.834" height="34.31" transform="translate(0 4.771) rotate(-80.718)" fill="#8ec3cb"/>
              </g>
            </g>
          </g>
          <g id="Group_35" data-name="Group 35" transform="translate(99.408 222.868)" opacity="0.32">
            <g id="Group_34" data-name="Group 34">
              <g id="Group_33" data-name="Group 33" clip-path="url(#clip-path-13)">
                <rect id="Rectangle_152" data-name="Rectangle 152" width="4.834" height="34.31" transform="translate(0 4.77) rotate(-80.718)" fill="#8ec3cb"/>
              </g>
            </g>
          </g>
          <g id="Group_38" data-name="Group 38" transform="translate(102.46 204.183)" opacity="0.32">
            <g id="Group_37" data-name="Group 37">
              <g id="Group_36" data-name="Group 36" clip-path="url(#clip-path-13)">
                <rect id="Rectangle_154" data-name="Rectangle 154" width="4.834" height="34.31" transform="translate(0 4.77) rotate(-80.718)" fill="#8ec3cb"/>
              </g>
            </g>
          </g>
          <path id="Path_102" data-name="Path 102" d="M739.466,456.829l-32.968,8a22.586,22.586,0,0,1-27.37-16.458h0A22.582,22.582,0,0,1,695.908,421.2l32.885-7.98Z" transform="translate(-361.638 -220.245)" fill="#e0e0e0"/>
          <path id="Path_103" data-name="Path 103" d="M799.458,445.171l37.067-9.071a20.874,20.874,0,0,0,15.362-25.208l-.744-3.063a20.873,20.873,0,0,0-25.206-15.361l-37.07,9.071Z" transform="translate(-420.466 -208.869)" fill="#3b455a"/>
          <path id="Path_104" data-name="Path 104" d="M741.053,450.208l-8.377,2.033-.785.19-1.463-6.028-.734-3.025a.653.653,0,0,0-.78-.469l-5.206,1.263a.653.653,0,0,0-.478.774l2.009,8.278q.094.388.188.775l-6.1,1.48-3.061.743a.653.653,0,0,0-.478.774q.625,2.572,1.249,5.145a.589.589,0,0,0,.286.391.6.6,0,0,0,.494.078l8.377-2.033.785-.19,1.463,6.028q.368,1.512.734,3.025a.654.654,0,0,0,.78.469l5.206-1.264a.6.6,0,0,0,.4-.285.583.583,0,0,0,.081-.489q-1-4.139-2.009-8.277l-.188-.776,6.1-1.479,3.06-.743a.653.653,0,0,0,.479-.774q-.625-2.572-1.249-5.145a.653.653,0,0,0-.78-.469" transform="translate(-381.506 -236.061)" fill="#3b455a"/>
          <path id="Path_105" data-name="Path 105" d="M597.644,427.508l-4.214,1.332L590,426.989l-.762.528.612.964-3.287-.722-2.428,1.251-.525,3.6,1.857,3.264,3.626.143L592.91,434l5.848-1.574Z" transform="translate(-311.064 -227.585)" fill="#c1796b"/>
          <path id="Path_106" data-name="Path 106" d="M605.988,393.13l19.636-4.6c1.762-.413,3.588-.5,5.351-.929,2.576-.623,3.282-.84,3.644-3.3,1.049-7.121-.284-14.508.791-21.523a68.18,68.18,0,0,1,7.719-.835c4.31.057,3.935,3.021,4.178,6.324.287,3.917.459,7.847.486,11.774.022,3.255,1.1,17.371-3.685,18.4-3.426.751-37.955,2.59-37.94,3.3-.006-.285-.181-8.611-.181-8.611" transform="translate(-322.992 -192.915)" fill="#474ebb"/>
          <path id="Path_107" data-name="Path 107" d="M201.313,455.107c.821-.257,6.919,1.274,6.516,1.807a11.179,11.179,0,0,1-1.547,1.539c1.738,1.061,7.179,2.905,3.3,4.877-1.682.854-6.159-.347-7.488-1.484l-.09-.078L199.844,456a3.092,3.092,0,0,1,1.469-.893" transform="translate(-106.517 -242.557)" fill="#c1796b"/>
          <path id="Path_108" data-name="Path 108" d="M147.955,419.253l24.205,17.579.028.073,2.158,5.768.56,1.5c-13.036-1.689-14.168-5.154-26.473-10.474Z" transform="translate(-78.86 -223.462)" fill="#8ec3cb"/>
        </g>
      </g>
    </g>
  </g>
</svg>
