<svg id="Group_152" data-name="Group 152" xmlns="http://www.w3.org/2000/svg" xmlns:xlink="http://www.w3.org/1999/xlink" width="348" height="339.07" viewBox="0 0 348 339.07">
  <defs>
    <clipPath id="clip-path">
      <rect id="Rectangle_243" data-name="Rectangle 243" width="348" height="339.07" fill="none"/>
    </clipPath>
    <clipPath id="clip-path-6">
      <rect id="Rectangle_220" data-name="Rectangle 220" width="124.476" height="169.05" fill="none"/>
    </clipPath>
    <clipPath id="clip-path-8">
      <rect id="Rectangle_222" data-name="Rectangle 222" width="27.223" height="8.67" fill="none"/>
    </clipPath>
    <clipPath id="clip-path-9">
      <rect id="Rectangle_223" data-name="Rectangle 223" width="36.91" height="39.851" fill="none"/>
    </clipPath>
    <clipPath id="clip-path-10">
      <rect id="Rectangle_224" data-name="Rectangle 224" width="0.109" height="0.105" fill="none"/>
    </clipPath>
    <clipPath id="clip-path-11">
      <rect id="Rectangle_225" data-name="Rectangle 225" width="19.919" height="63.116" fill="none"/>
    </clipPath>
    <clipPath id="clip-path-13">
      <rect id="Rectangle_227" data-name="Rectangle 227" width="84.793" height="46.2" fill="none"/>
    </clipPath>
    <clipPath id="clip-path-14">
      <rect id="Rectangle_228" data-name="Rectangle 228" width="41.53" height="21.791" fill="none"/>
    </clipPath>
    <clipPath id="clip-path-15">
      <rect id="Rectangle_229" data-name="Rectangle 229" width="17.358" height="3.996" fill="none"/>
    </clipPath>
    <clipPath id="clip-path-16">
      <rect id="Rectangle_230" data-name="Rectangle 230" width="6.043" height="4.338" fill="none"/>
    </clipPath>
    <clipPath id="clip-path-17">
      <rect id="Rectangle_231" data-name="Rectangle 231" width="0.225" height="7.957" fill="none"/>
    </clipPath>
    <clipPath id="clip-path-18">
      <rect id="Rectangle_232" data-name="Rectangle 232" width="5.581" height="3.462" fill="none"/>
    </clipPath>
    <clipPath id="clip-path-19">
      <rect id="Rectangle_234" data-name="Rectangle 234" width="12.798" height="2.972" fill="none"/>
    </clipPath>
    <clipPath id="clip-path-20">
      <rect id="Rectangle_235" data-name="Rectangle 235" width="4.587" height="5.619" fill="none"/>
    </clipPath>
    <clipPath id="clip-path-21">
      <rect id="Rectangle_236" data-name="Rectangle 236" width="41.976" height="24.891" fill="none"/>
    </clipPath>
    <clipPath id="clip-path-22">
      <rect id="Rectangle_237" data-name="Rectangle 237" width="1.11" height="1.296" fill="none"/>
    </clipPath>
    <clipPath id="clip-path-24">
      <rect id="Rectangle_239" data-name="Rectangle 239" width="11.047" height="23.862" fill="none"/>
    </clipPath>
    <clipPath id="clip-path-25">
      <rect id="Rectangle_240" data-name="Rectangle 240" width="27.972" height="44.252" fill="none"/>
    </clipPath>
    <clipPath id="clip-path-26">
      <rect id="Rectangle_241" data-name="Rectangle 241" width="16.384" height="20.34" fill="none"/>
    </clipPath>
  </defs>
  <g id="Group_151" data-name="Group 151" clip-path="url(#clip-path)">
    <g id="Group_84" data-name="Group 84">
      <g id="Group_83" data-name="Group 83" clip-path="url(#clip-path)">
        <path id="Path_244" data-name="Path 244" d="M50.964,352.787c67.95,40.1,178.122,40.1,246.072,0s67.952-105.118,0-145.219-178.121-40.1-246.072,0-67.951,105.118,0,145.219" transform="translate(0 -43.794)" fill="#f5f5f5"/>
      </g>
    </g>
    <g id="Group_86" data-name="Group 86">
      <g id="Group_85" data-name="Group 85" clip-path="url(#clip-path)">
        <path id="Path_245" data-name="Path 245" d="M382.985,353.648c13,7.5,13,19.674,0,27.179s-34.075,7.5-47.075,0-13-19.674,0-27.179,34.076-7.505,47.075,0" transform="translate(-80.475 -85.869)" fill="#e0e0e0"/>
      </g>
    </g>
    <g id="Group_88" data-name="Group 88">
      <g id="Group_87" data-name="Group 87" clip-path="url(#clip-path)">
        <path id="Path_246" data-name="Path 246" d="M341.783,44.1l5.777,3.335a6.959,6.959,0,0,1-.049-.765V44.993c0-2.978,2.091-4.184,4.67-2.7a9.031,9.031,0,0,1,2.783,2.677c.423-3.745,3.361-5.14,6.929-3.08A15.443,15.443,0,0,1,368.879,54v2.5a6.6,6.6,0,0,1-.591,2.9l4.8,2.771a5.724,5.724,0,0,1,2.59,4.486c0,1.652-1.159,2.322-2.59,1.5l-31.3-18.072a5.726,5.726,0,0,1-2.59-4.486c0-1.652,1.16-2.322,2.59-1.5" transform="translate(-83.691 -10.102)" fill="#ebebeb"/>
        <path id="Path_247" data-name="Path 247" d="M309.174,66.694l4.359,2.517a5.188,5.188,0,0,1-.037-.576V67.371c0-2.248,1.578-3.158,3.525-2.035a6.808,6.808,0,0,1,2.1,2.02c.319-2.826,2.536-3.879,5.229-2.324a11.654,11.654,0,0,1,5.273,9.132v1.89a4.974,4.974,0,0,1-.446,2.189l3.62,2.09a4.321,4.321,0,0,1,1.956,3.386c0,1.247-.875,1.752-1.956,1.129L309.174,71.209a4.322,4.322,0,0,1-1.955-3.386c0-1.247.875-1.752,1.955-1.129" transform="translate(-75.802 -15.868)" fill="#ebebeb"/>
      </g>
    </g>
    <g id="Group_93" data-name="Group 93">
      <g id="Group_92" data-name="Group 92" clip-path="url(#clip-path)">
        <path id="Path_248" data-name="Path 248" d="M57.141,237.914A6.993,6.993,0,0,0,60.4,243.33l91.39,52.765a7.213,7.213,0,0,0,6.523,0l125.048-72.2a6.129,6.129,0,0,0,0-10.833L191.974,160.3a7.208,7.208,0,0,0-6.523,0L60.4,232.5a6.991,6.991,0,0,0-3.262,5.416" transform="translate(-14.099 -39.36)" fill="#37474f"/>
        <path id="Path_249" data-name="Path 249" d="M155.057,313.788v7.058a6.651,6.651,0,0,1-3.262-.776L60.4,267.3a6.108,6.108,0,0,1-.331-10.621c-1.461,1.047-1.348,2.584.331,3.555L151.8,313a6.654,6.654,0,0,0,3.262.783" transform="translate(-14.099 -63.333)" fill="#263238"/>
        <path id="Path_250" data-name="Path 250" d="M52.077,193.255a7,7,0,0,1-3.06-5.533V78.661a7.207,7.207,0,0,1,3.262-5.649L177.326.816A7,7,0,0,1,183.648.7a7,7,0,0,1,3.06,5.533V115.293a7.211,7.211,0,0,1-3.262,5.649L58.4,193.138a6.994,6.994,0,0,1-6.321.117" transform="translate(-12.094 0)" fill="#455a64"/>
        <path id="Path_251" data-name="Path 251" d="M58.014,218.049a7.007,7.007,0,0,1-5.936-.083,6.988,6.988,0,0,1-3.058-5.529V103.372a6.582,6.582,0,0,1,.957-3.209l6.117,3.525v.008a6.686,6.686,0,0,0-.957,3.209V215.97c0,1.928,1.258,2.795,2.877,2.079" transform="translate(-12.095 -24.714)" fill="#263238"/>
        <path id="Path_252" data-name="Path 252" d="M57.141,83.472V192.534c0,2.08,1.46,2.923,3.262,1.883l125.048-72.2a7.209,7.209,0,0,0,3.262-5.649V7.51c0-2.081-1.461-2.923-3.262-1.883L60.4,77.823a7.207,7.207,0,0,0-3.262,5.649" transform="translate(-14.099 -1.278)" fill="#37474f"/>
        <path id="Path_253" data-name="Path 253" d="M61.028,236.265l91.391,52.764a7.208,7.208,0,0,0,6.523,0l125.047-72.2c1.8-1.04,1.8-2.727,0-3.766L192.6,160.3a7.208,7.208,0,0,0-6.523,0L61.028,232.5c-1.8,1.04-1.8,2.726,0,3.766" transform="translate(-14.724 -39.36)" fill="#455a64"/>
        <path id="Path_254" data-name="Path 254" d="M63.159,86.77,183.721,17.182c1.081-.624,1.957-.119,1.957,1.13v94.409a4.325,4.325,0,0,1-1.957,3.39L63.159,185.7c-1.081.624-1.957.118-1.957-1.13V90.16a4.325,4.325,0,0,1,1.957-3.39" transform="translate(-15.101 -4.173)" fill="#fff"/>
        <g id="Group_91" data-name="Group 91" transform="translate(46.101 12.741)" opacity="0.6">
          <g id="Group_90" data-name="Group 90">
            <g id="Group_89" data-name="Group 89" clip-path="url(#clip-path-6)">
              <path id="Path_255" data-name="Path 255" d="M63.159,86.77,183.721,17.182c1.081-.624,1.957-.119,1.957,1.13v94.409a4.325,4.325,0,0,1-1.957,3.39L63.159,185.7c-1.081.624-1.957.118-1.957-1.13V90.16a4.325,4.325,0,0,1,1.957-3.39" transform="translate(-61.202 -16.915)" fill="#22d1d1"/>
            </g>
          </g>
        </g>
        <path id="Path_256" data-name="Path 256" d="M141.581,101.467c3.21-1.854,5.812-.351,5.812,3.355a12.846,12.846,0,0,1-5.812,10.067c-3.21,1.853-5.812.351-5.812-3.356a12.846,12.846,0,0,1,5.812-10.066" transform="translate(-33.499 -24.84)" fill="#f0f0f0"/>
        <path id="Path_257" data-name="Path 257" d="M151.356,125.748c0-6.089-4.276-8.793-9.548-5.748l-3.3,1.9c-5.272,3.045-9.548,10.449-9.548,16.539v1.638l22.394-12.92Z" transform="translate(-31.82 -29.298)" fill="#f0f0f0"/>
        <path id="Path_258" data-name="Path 258" d="M159.993,131.885c-.213-.491-.754-.615-1.366-.265L119.52,154.184a3.2,3.2,0,0,0-1.445,2.507v4.6c0,.783.467,1.167,1.1.989l.1-.032a1.735,1.735,0,0,0,.243-.119l39.107-22.565a3.194,3.194,0,0,0,1.447-2.506v-4.6a1.794,1.794,0,0,0-.081-.572" transform="translate(-29.133 -32.426)" fill="#f0f0f0"/>
        <path id="Path_259" data-name="Path 259" d="M124.235,162.336c.759-.438,1.374-.083,1.374.793a3.038,3.038,0,0,1-1.374,2.38c-.759.438-1.374.083-1.374-.793a3.038,3.038,0,0,1,1.374-2.38" transform="translate(-30.314 -40.008)" fill="#27debf"/>
        <path id="Path_260" data-name="Path 260" d="M130.268,158.854c.759-.438,1.374-.083,1.374.793a3.037,3.037,0,0,1-1.374,2.38c-.759.438-1.373.083-1.373-.793a3.037,3.037,0,0,1,1.373-2.38" transform="translate(-31.803 -39.149)" fill="#27debf"/>
        <path id="Path_261" data-name="Path 261" d="M136.3,155.37c.759-.438,1.374-.083,1.374.793a3.038,3.038,0,0,1-1.374,2.38c-.759.438-1.374.083-1.374-.793a3.038,3.038,0,0,1,1.374-2.38" transform="translate(-33.291 -38.289)" fill="#27debf"/>
        <path id="Path_262" data-name="Path 262" d="M142.334,151.887c.759-.438,1.374-.083,1.374.793a3.038,3.038,0,0,1-1.374,2.38c-.759.438-1.374.083-1.374-.793a3.038,3.038,0,0,1,1.374-2.38" transform="translate(-34.78 -37.43)" fill="#27debf"/>
        <path id="Path_263" data-name="Path 263" d="M148.367,148.4c.759-.438,1.374-.083,1.374.793a3.038,3.038,0,0,1-1.374,2.38c-.759.438-1.374.083-1.374-.793a3.038,3.038,0,0,1,1.374-2.38" transform="translate(-36.269 -36.57)" fill="#27debf"/>
        <path id="Path_264" data-name="Path 264" d="M154.4,144.921c.758-.438,1.373-.083,1.373.793a3.039,3.039,0,0,1-1.373,2.38c-.759.438-1.375.083-1.375-.793a3.037,3.037,0,0,1,1.375-2.38" transform="translate(-37.757 -35.711)" fill="#27debf"/>
        <path id="Path_265" data-name="Path 265" d="M160.433,141.438c.759-.438,1.374-.083,1.374.793a3.038,3.038,0,0,1-1.374,2.38c-.759.438-1.374.083-1.374-.793a3.037,3.037,0,0,1,1.374-2.38" transform="translate(-39.246 -34.852)" fill="#27debf"/>
        <path id="Path_266" data-name="Path 266" d="M166.465,137.955c.759-.438,1.374-.083,1.374.793a3.038,3.038,0,0,1-1.374,2.38c-.759.438-1.374.083-1.374-.793a3.038,3.038,0,0,1,1.374-2.38" transform="translate(-40.734 -33.992)" fill="#27debf"/>
        <path id="Path_267" data-name="Path 267" d="M75.333,235.574,191.4,168.561a3.6,3.6,0,0,1,3.262,0l5.937,3.427a.994.994,0,0,1,0,1.882l-116.089,67a3.606,3.606,0,0,1-3.262,0l-5.919-3.417a.994.994,0,0,1,0-1.883" transform="translate(-18.421 -41.494)" fill="#37474f"/>
        <path id="Path_268" data-name="Path 268" d="M95.645,247.3l116.07-67.013a3.6,3.6,0,0,1,3.262,0l36.516,21.082a.994.994,0,0,1,0,1.883L135.555,270.173a3.623,3.623,0,0,1-3.265.005l-36.642-21a.99.99,0,0,1,0-1.878" transform="translate(-23.433 -44.387)" fill="#263238"/>
        <path id="Path_269" data-name="Path 269" d="M200.744,211.368l3.634-2.1c.154-.09.145-.24-.021-.335l-4.2-2.426a.642.642,0,0,0-.579-.012l-3.635,2.1c-.154.089-.145.239.021.334l4.2,2.427a.642.642,0,0,0,.581.012m-7.173-8.337-3.634,2.1c-.154.089-.145.239.02.334l4.2,2.426a.642.642,0,0,0,.579.012l3.635-2.1c.154-.089.145-.239-.02-.334l-4.2-2.426a.643.643,0,0,0-.58-.012m-11.74,6.779-6.15,3.551c-.154.087-.145.239.02.334l4.2,2.426a.638.638,0,0,0,.58.012l6.15-3.55c.154-.09.145-.24-.02-.335l-4.2-2.426a.639.639,0,0,0-.579-.011m6.429-3.713-3.635,2.1c-.154.089-.145.239.021.334l4.2,2.426a.642.642,0,0,0,.579.012l3.634-2.1c.154-.089.145-.239-.021-.334l-4.2-2.426a.643.643,0,0,0-.58-.012M174,214.329l-3.634,2.1c-.154.09-.145.239.02.335l4.2,2.426a.642.642,0,0,0,.579.012l3.634-2.1c.154-.09.145-.239-.021-.334l-4.2-2.426a.643.643,0,0,0-.58-.012m-5.311,3.067-3.634,2.1c-.154.09-.145.24.02.335l4.2,2.426a.641.641,0,0,0,.58.013l3.634-2.1c.155-.09.145-.239-.02-.334l-4.2-2.426a.642.642,0,0,0-.579-.012m16.53,9.866,3.634-2.1c.154-.089.145-.239-.021-.334l-4.2-2.426a.639.639,0,0,0-.579-.011l-3.634,2.1c-.154.089-.145.239.02.334l4.2,2.426a.643.643,0,0,0,.58.012m-5.312,3.067,3.634-2.1c.154-.09.145-.24-.021-.335l-4.2-2.426a.643.643,0,0,0-.58-.013l-3.634,2.1c-.154.089-.145.239.02.334l4.2,2.426a.642.642,0,0,0,.579.012M174.6,233.4l3.635-2.1c.154-.089.145-.239-.021-.334l-4.2-2.426a.646.646,0,0,0-.58-.012l-3.634,2.1c-.154.088-.145.239.021.334l4.2,2.426a.644.644,0,0,0,.579.012m-5.311,3.067,3.634-2.1c.154-.09.145-.24-.021-.335l-4.2-2.426a.642.642,0,0,0-.579-.013l-3.635,2.1c-.154.088-.145.24.021.334l4.2,2.426a.643.643,0,0,0,.58.012m26.145-22.027,3.634-2.1c.154-.089.145-.238-.02-.334l-4.2-2.427a.641.641,0,0,0-.579-.011l-3.634,2.1c-.154.09-.146.238.02.335l4.2,2.426a.643.643,0,0,0,.58.012m-4.9,9.761,8.107-4.681c.154-.089.145-.239-.021-.334l-10.205-5.892a.643.643,0,0,0-.58-.012l-4.193,2.421c-.154.09-.145.239.02.334l5.4,3.119c.165.1.175.246.02.335l-3.355,1.937c-.154.089-.145.239.021.334l4.2,2.426a.643.643,0,0,0,.58.012m-27.153-3.733-3.634,2.1c-.154.089-.145.239.021.334l4.2,2.426a.644.644,0,0,0,.579.012l3.634-2.1c.154-.089.145-.239-.02-.334l-4.2-2.426a.643.643,0,0,0-.58-.012m-5.311,3.067-3.634,2.1c-.155.09-.145.24.02.336l4.2,2.426a.643.643,0,0,0,.58.012l3.635-2.1c.154-.09.145-.239-.021-.334l-4.2-2.426a.641.641,0,0,0-.58-.012m-26.542,34.387a.645.645,0,0,0,.58.012l3.634-2.1c.154-.089.145-.24-.02-.335l-4.2-2.426a.644.644,0,0,0-.579-.011l-3.634,2.1c-.154.09-.145.24.02.335Zm-15.95-9.854-3.634,2.1c-.154.09-.145.24.021.335l4.2,2.426a.638.638,0,0,0,.58.011l3.634-2.1c.154-.09.145-.24-.021-.334l-4.2-2.426a.639.639,0,0,0-.579-.012m8.549,7.194a.639.639,0,0,0,.579.013l3.635-2.1c.154-.089.145-.239-.021-.334l-4.2-2.426a.641.641,0,0,0-.58-.012l-3.634,2.1c-.154.09-.145.24.02.336ZM140.9,259.78l3.634-2.1c.154-.09.145-.24-.02-.335l-4.2-2.426a.643.643,0,0,0-.58-.011l-3.634,2.1c-.154.089-.145.24.02.335l4.2,2.426a.642.642,0,0,0,.579.012m-5.891,3.055a.646.646,0,0,0,.579.012l3.635-2.1c.154-.088.145-.237-.021-.333l-4.2-2.427a.643.643,0,0,0-.58-.011l-3.634,2.1c-.154.089-.145.239.021.334Zm-14.126-17.84-3.634,2.1c-.155.09-.145.239.02.334l4.2,2.427a.642.642,0,0,0,.579.011l3.634-2.1c.154-.09.145-.239-.021-.334l-4.2-2.426a.643.643,0,0,0-.58-.013m26.557-15.333-3.634,2.1c-.154.089-.145.239.021.334l4.2,2.426a.641.641,0,0,0,.579.012l3.635-2.1c.154-.089.145-.239-.02-.334l-4.2-2.426a.643.643,0,0,0-.58-.012M126.2,241.929l-3.635,2.1c-.154.088-.145.24.02.334l4.2,2.426a.639.639,0,0,0,.579.012L131,244.7c.154-.09.145-.24-.021-.335l-4.2-2.426a.641.641,0,0,0-.579-.011M152.757,226.6l-3.634,2.1c-.154.089-.145.239.021.334l4.2,2.426a.638.638,0,0,0,.58.011l3.634-2.1c.155-.089.145-.239-.02-.334l-4.2-2.426a.643.643,0,0,0-.58-.012m-10.623,6.134-3.634,2.1c-.154.089-.145.239.02.334l4.2,2.426a.643.643,0,0,0,.58.012l3.634-2.1c.154-.089.145-.239-.02-.334l-4.2-2.426a.639.639,0,0,0-.579-.011m-5.311,3.066-3.634,2.1c-.154.088-.145.24.021.334l4.2,2.426a.645.645,0,0,0,.58.012l3.634-2.1c.154-.089.145-.239-.021-.334l-4.2-2.427a.646.646,0,0,0-.58-.011m-5.311,3.067-3.634,2.1c-.154.09-.145.239.021.334l4.2,2.426a.646.646,0,0,0,.58.012l3.634-2.1c.154-.089.145-.239-.02-.334l-4.2-2.426a.642.642,0,0,0-.579-.012m27.152,3.733,3.634-2.1c.155-.089.145-.24-.02-.335l-4.2-2.426a.643.643,0,0,0-.58-.012l-3.634,2.1c-.154.09-.145.24.021.335l4.2,2.426a.641.641,0,0,0,.58.011m46.65-46.342-3.635,2.1c-.154.089-.145.239.02.334l4.2,2.426a.643.643,0,0,0,.58.012l3.634-2.1c.154-.09.145-.24-.02-.335l-4.2-2.426a.642.642,0,0,0-.579-.012m-6.43,3.712-3.634,2.1c-.154.089-.145.239.02.334l4.2,2.426a.643.643,0,0,0,.58.012l3.634-2.1c.154-.089.145-.239-.021-.334l-4.2-2.426a.639.639,0,0,0-.579-.012m11.741-6.779-3.634,2.1c-.155.089-.145.239.02.334l4.2,2.426a.639.639,0,0,0,.579.011l3.635-2.1c.154-.089.145-.24-.021-.335l-4.2-2.426a.644.644,0,0,0-.579-.013m-27.493,28.351,3.634-2.1c.154-.09.145-.24-.02-.335l-4.2-2.426a.641.641,0,0,0-.58-.011l-3.634,2.1c-.154.089-.145.239.02.334l4.2,2.426a.643.643,0,0,0,.58.012m33.384-31.405a.646.646,0,0,0-.58-.013l-3.634,2.1c-.154.09-.145.24.02.335l4.2,2.426a.639.639,0,0,0,.579.013l3.634-2.1c.155-.088.146-.238-.02-.334Zm-52.54,49.4,3.634-2.1c.154-.09.145-.239-.021-.334l-4.2-2.427a.643.643,0,0,0-.58-.012l-3.634,2.1c-.155.09-.145.24.02.334l4.2,2.426a.643.643,0,0,0,.58.012m65.135-37.606,3.634-2.1c.154-.09.145-.24-.02-.335l-4.2-2.426a.635.635,0,0,0-.579-.012l-3.634,2.1c-.154.089-.145.239.02.334l4.2,2.426a.643.643,0,0,0,.581.013m-11.315-.4,3.634-2.1c.155-.09.145-.239-.02-.334l-4.2-2.426a.643.643,0,0,0-.58-.012l-3.634,2.1c-.154.089-.145.239.02.334l4.2,2.426a.645.645,0,0,0,.58.012m4.722-7.926a.643.643,0,0,0-.58-.012l-3.634,2.1c-.154.089-.145.239.02.334l4.2,2.426a.643.643,0,0,0,.58.012l3.634-2.1c.154-.09.146-.24-.02-.335Zm1.119-.646,10.205,5.892a.645.645,0,0,0,.58.012l3.634-2.1c.155-.09.145-.24-.02-.335l-10.205-5.892a.646.646,0,0,0-.58-.013l-3.634,2.1c-.154.089-.146.239.02.334m-12.32,6.767-3.635,2.1c-.154.089-.145.239.021.334l4.2,2.426a.639.639,0,0,0,.579.013l3.634-2.1c.154-.09.145-.24-.021-.335l-4.2-2.426a.637.637,0,0,0-.579-.011M171.34,222.8l-3.634,2.1c-.154.089-.145.24.021.334l4.2,2.426a.642.642,0,0,0,.579.012l3.635-2.1c.154-.09.145-.24-.021-.335l-4.2-2.426a.642.642,0,0,0-.579-.012m51.879-17.821a.645.645,0,0,0,.581.012l3.634-2.1c.154-.09.145-.24-.02-.334l-4.2-2.427a.643.643,0,0,0-.58-.012l-3.634,2.1c-.154.089-.145.24.02.334Zm-46.568,14.755-3.635,2.1c-.154.09-.145.239.021.334l4.2,2.426a.639.639,0,0,0,.579.013l3.634-2.1c.154-.089.145-.239-.021-.334l-4.2-2.427a.643.643,0,0,0-.58-.012m-39.814,35.117a.641.641,0,0,0,.58.013l3.635-2.1c.154-.089.145-.239-.021-.334l-4.2-2.426a.642.642,0,0,0-.579-.012l-3.634,2.1c-.154.09-.145.24.021.335Zm-7.989-7.518-3.634,2.1c-.154.089-.145.239.02.334l4.2,2.426a.642.642,0,0,0,.579.013l3.634-2.1c.154-.09.145-.239-.02-.334l-4.2-2.426a.639.639,0,0,0-.579-.012m13.88,4.462,3.634-2.1c.154-.09.146-.239-.02-.334l-4.2-2.426a.641.641,0,0,0-.58-.012l-3.634,2.1c-.154.089-.145.239.021.334l4.2,2.426a.635.635,0,0,0,.579.011m5.311-3.067,3.635-2.1c.154-.09.145-.239-.02-.334l-4.2-2.426a.637.637,0,0,0-.579-.012l-3.634,2.1c-.154.09-.145.24.02.336l4.2,2.426a.637.637,0,0,0,.579.011m5.312-3.067,3.634-2.1c.154-.09.145-.239-.02-.335l-4.2-2.426a.641.641,0,0,0-.579-.011l-3.635,2.1c-.154.089-.145.24.02.334l4.2,2.427a.641.641,0,0,0,.58.011m-19.192-1.4-3.635,2.1c-.154.09-.145.24.02.336l4.2,2.426a.637.637,0,0,0,.579.011l3.634-2.1c.155-.09.145-.24-.02-.335l-4.2-2.426a.641.641,0,0,0-.58-.012m5.311-3.067-3.634,2.1c-.155.09-.145.239.02.335l4.2,2.426a.645.645,0,0,0,.58.012l3.634-2.1c.154-.09.145-.239-.021-.334l-4.2-2.427a.645.645,0,0,0-.58-.011m21.246-12.266-3.634,2.1c-.154.09-.145.239.02.335l4.2,2.426a.639.639,0,0,0,.579.012l3.635-2.1c.154-.089.145-.24-.02-.335l-4.2-2.426a.639.639,0,0,0-.58-.012M155.406,232l-3.634,2.1c-.154.088-.145.24.021.334l4.2,2.426a.643.643,0,0,0,.58.012l3.634-2.1c.154-.089.145-.238-.021-.334l-4.2-2.426a.639.639,0,0,0-.58-.013m10.623-6.133-3.635,2.1c-.154.09-.145.239.02.334l4.2,2.427a.643.643,0,0,0,.58.011l3.634-2.1c.154-.09.145-.24-.02-.335l-4.2-2.426a.644.644,0,0,0-.579-.013m-21.246,12.267-3.634,2.1c-.154.089-.145.24.02.335l4.2,2.426a.641.641,0,0,0,.58.012l3.634-2.1c.154-.09.145-.239-.02-.335l-4.2-2.426a.639.639,0,0,0-.579-.012m5.311-3.067-3.634,2.1c-.154.09-.145.24.02.335l4.2,2.426a.639.639,0,0,0,.579.013l3.634-2.1c.154-.09.145-.239-.02-.334l-4.2-2.426a.638.638,0,0,0-.58-.012m-3.877,21.648,3.634-2.1c.154-.089.145-.238-.02-.334l-4.2-2.427a.639.639,0,0,0-.579-.011l-3.634,2.1c-.154.09-.145.238.02.335l4.2,2.426a.643.643,0,0,0,.58.012m-31.169-3.147-4.2-2.426a.641.641,0,0,0-.58-.012l-3.634,2.1c-.154.089-.145.239.02.333l4.2,2.427a.641.641,0,0,0,.58.011l3.634-2.1c.154-.09.145-.239-.02-.335m7.96,2.337-4.2-2.427a.641.641,0,0,0-.579-.011l-5.591,3.228c-.154.089-.145.239.021.334l4.2,2.426a.639.639,0,0,0,.579.011l5.591-3.228c.154-.089.145-.239-.021-.334M108.6,248.875l-4.2-2.425a.643.643,0,0,0-.58-.014l-4.473,2.583c-.154.09-.145.24.021.334l4.2,2.427a.641.641,0,0,0,.58.011l4.473-2.581c.154-.09.145-.24-.021-.336m3.43-1.979a.641.641,0,0,0,.58.011l3.634-2.1c.154-.089.145-.239-.02-.334l-4.2-2.426a.643.643,0,0,0-.58-.012l-3.634,2.1c-.154.09-.145.24.02.334Zm18.38,11.666-4.2-2.427a.643.643,0,0,0-.58-.011l-6.989,4.035c-.154.088-.145.239.02.334l4.2,2.426a.646.646,0,0,0,.58.012l6.989-4.035c.154-.089.145-.239-.02-.334m3.487,4.917-4.2-2.425a.637.637,0,0,0-.579-.012l-4.473,2.582c-.154.09-.145.24.02.334l4.2,2.426a.639.639,0,0,0,.579.011l4.474-2.581c.154-.089.145-.24-.021-.336M151.521,224.1a.639.639,0,0,0,.579.012l3.634-2.1c.154-.089.145-.239-.02-.334l-4.2-2.426a.64.64,0,0,0-.581-.012l-3.634,2.1c-.154.089-.145.239.02.334ZM140.9,230.228a.636.636,0,0,0,.58.011l3.635-2.1c.154-.089.145-.239-.021-.334l-4.2-2.427a.643.643,0,0,0-.58-.011l-3.635,2.1c-.154.09-.145.239.02.335Zm-23.557,13.6a.641.641,0,0,0,.58.011l3.634-2.1c.154-.09.145-.24-.021-.335l-4.2-2.426a.644.644,0,0,0-.579-.012l-3.634,2.1c-.154.09-.145.24.021.335Zm28.869-16.667a.639.639,0,0,0,.58.012l3.634-2.1c.154-.09.145-.24-.021-.335l-4.2-2.425a.641.641,0,0,0-.58-.012l-3.634,2.1c-.154.089-.145.239.02.334Zm-10.623,6.133a.641.641,0,0,0,.58.011l3.634-2.1c.154-.09.145-.24-.02-.335l-4.2-2.426a.639.639,0,0,0-.579-.012l-3.635,2.1c-.154.09-.145.24.021.335Zm1.229,30.579a.639.639,0,0,0-.579-.012l-5.591,3.227c-.155.09-.145.24.02.336l4.2,2.426a.639.639,0,0,0,.58.011l5.591-3.227c.154-.089.145-.239-.02-.334ZM127.964,237.7a.642.642,0,0,0,.579.012l3.634-2.1c.154-.089.145-.239-.02-.334l-4.2-2.426a.641.641,0,0,0-.58-.012l-3.634,2.1c-.154.09-.145.24.02.335Zm-5.311,3.067a.642.642,0,0,0,.579.012l3.634-2.1c.154-.089.145-.239-.02-.334l-4.2-2.426a.643.643,0,0,0-.58-.012l-3.634,2.1c-.154.089-.145.239.021.334Zm112.565-33.7a.642.642,0,0,0-.579-.012l-8.946,5.165c-.154.089-.146.239.02.334l4.2,2.426a.638.638,0,0,0,.58.011l8.945-5.164c.154-.089.145-.239-.021-.334Zm-11.741,6.779a.639.639,0,0,0-.579-.013l-3.635,2.1c-.155.089-.145.239.02.334l4.2,2.426a.643.643,0,0,0,.58.012l3.634-2.1c.154-.089.145-.239-.021-.334Zm-71.948,39.805,3.634-2.1c.154-.09.145-.24-.021-.335l-4.2-2.426a.642.642,0,0,0-.579-.012l-3.634,2.1c-.155.09-.145.239.02.334l4.2,2.427a.643.643,0,0,0,.58.012m61.325-33.673a.643.643,0,0,0-.58-.012l-3.634,2.1c-.154.089-.145.239.02.334l4.2,2.426a.643.643,0,0,0,.58.012l3.634-2.1c.154-.09.145-.24-.02-.335ZM240.528,204a.641.641,0,0,0-.58-.012l-3.634,2.1c-.154.089-.145.239.021.334l4.2,2.426a.639.639,0,0,0,.579.011l3.634-2.1c.154-.089.145-.239-.02-.334Zm9.514-.64-10.206-5.893a.643.643,0,0,0-.58-.012l-3.635,2.1c-.154.09-.145.24.022.334l10.2,5.893a.643.643,0,0,0,.58.012l3.634-2.1c.154-.089.146-.239-.02-.334m-57.038,28.078a.643.643,0,0,0-.58-.012L187.952,234c-.154.089-.145.239.02.334l4.2,2.426a.643.643,0,0,0,.58.012l4.473-2.582c.154-.09.145-.24-.021-.335Zm13.419-7.747a.643.643,0,0,0-.58-.011l-5.591,3.228c-.154.089-.145.239.021.334l4.2,2.426a.642.642,0,0,0,.579.012l5.591-3.228c.154-.089.145-.239-.021-.334Zm-25.719,14.849a.643.643,0,0,0-.58-.012l-29.912,17.27c-.154.089-.145.238.02.334l4.2,2.426a.643.643,0,0,0,.58.012l29.911-17.27c.155-.089.145-.239-.02-.334Zm-31.59,18.238a.643.643,0,0,0-.58-.012l-4.473,2.582c-.154.089-.145.24.021.335l4.2,2.426a.639.639,0,0,0,.579.011l4.474-2.582c.154-.089.145-.24-.02-.334Zm37.739-21.789a.642.642,0,0,0-.579-.012l-4.473,2.581c-.155.09-.145.24.02.336l4.2,2.426a.641.641,0,0,0,.58.013l4.472-2.583c.154-.089.145-.239-.021-.334Zm-43.89,25.34a.643.643,0,0,0-.58-.012l-4.473,2.581c-.154.09-.145.24.021.336l4.2,2.426a.643.643,0,0,0,.58.013l4.473-2.582c.154-.09.145-.24-.02-.335Zm56.19-32.441a.637.637,0,0,0-.579-.012l-4.473,2.582c-.154.089-.145.239.02.334l4.2,2.426a.64.64,0,0,0,.579.012l4.474-2.582c.154-.089.145-.24-.021-.335Zm19.009-10.976a.642.642,0,0,0-.579-.012l-3.634,2.1c-.154.089-.146.239.02.334l4.2,2.426a.641.641,0,0,0,.58.011l3.634-2.1c.154-.09.145-.24-.02-.335Zm11.639-8.452,3.634-2.1c.154-.089.145-.238-.02-.334l-4.2-2.426a.639.639,0,0,0-.579-.013l-3.634,2.1c-.154.09-.145.24.02.335l4.2,2.426a.641.641,0,0,0,.58.012m-23.748-.154,3.634-2.1c.154-.089.145-.239-.02-.334l-4.2-2.426a.639.639,0,0,0-.579-.011l-3.635,2.1c-.154.09-.145.239.022.334l4.2,2.426a.637.637,0,0,0,.579.011M194.02,229.114l10.623-6.133c.154-.089.145-.239-.021-.334l-4.2-2.426a.641.641,0,0,0-.58-.011l-10.623,6.133c-.154.088-.145.239.02.334l4.2,2.426a.637.637,0,0,0,.579.012m29.892-17.6a.639.639,0,0,0,.579.011l3.634-2.1c.154-.089.145-.239-.02-.335l-4.2-2.426a.636.636,0,0,0-.58-.012l-3.634,2.1c-.154.088-.145.239.02.334Zm-5.423-3.454,3.634-2.1c.154-.089.146-.24-.02-.334l-4.2-2.426a.639.639,0,0,0-.58-.012l-3.634,2.1c-.154.09-.145.24.021.335l4.2,2.426a.637.637,0,0,0,.579.012m-29.78,24.126,3.634-2.1c.154-.089.145-.239-.021-.334l-4.2-2.427a.645.645,0,0,0-.58-.011l-3.635,2.1c-.154.089-.145.239.021.334l4.2,2.426a.643.643,0,0,0,.58.012m23.461-13.892a.643.643,0,0,0,.58.012l3.634-2.1c.154-.089.145-.239-.02-.334l-4.2-2.426a.643.643,0,0,0-.58-.012l-3.634,2.1c-.154.09-.145.24.02.335Zm-50.018,29.224,3.634-2.1c.154-.089.145-.239-.02-.334l-4.2-2.426a.643.643,0,0,0-.58-.012l-3.634,2.1c-.154.09-.145.24.02.335l4.2,2.426a.641.641,0,0,0,.58.011m5.311-3.066,3.634-2.1c.154-.089.145-.239-.021-.334l-4.2-2.426a.639.639,0,0,0-.579-.011l-3.634,2.1c-.154.089-.145.239.02.335l4.2,2.426a.641.641,0,0,0,.58.012m-10.623,6.132,3.635-2.1c.154-.089.145-.239-.021-.334l-4.2-2.426a.639.639,0,0,0-.58-.012l-3.634,2.1c-.154.09-.145.24.021.334l4.2,2.427a.637.637,0,0,0,.579.011m21.246-12.265,3.635-2.1c.154-.09.145-.24-.02-.335l-4.2-2.426a.641.641,0,0,0-.58-.012l-3.634,2.1c-.154.089-.145.239.021.334l4.2,2.426a.643.643,0,0,0,.58.012m-5.311,3.067,3.634-2.1c.154-.089.146-.238-.02-.334l-4.2-2.426a.642.642,0,0,0-.579-.012l-3.635,2.1c-.154.09-.145.24.021.335l4.2,2.426a.642.642,0,0,0,.579.012m10.623-6.134,3.634-2.1c.154-.089.145-.239-.02-.334l-4.2-2.426a.643.643,0,0,0-.58-.012l-3.634,2.1c-.154.088-.145.239.021.334l4.2,2.426a.643.643,0,0,0,.58.011m24.3-45.365a.641.641,0,0,0,.58.012l3.635-2.1c.154-.089.145-.239-.021-.334l-1.119-.646a.642.642,0,0,0-.579-.012l-3.635,2.1c-.154.089-.145.239.022.334ZM181.564,206.75a.642.642,0,0,0,.579.013l3.634-2.1c.154-.089.145-.239-.02-.334l-4.2-2.426a.639.639,0,0,0-.579-.012l-3.634,2.1c-.154.09-.145.24.02.335Zm10.623-6.133a.637.637,0,0,0,.579.012l3.635-2.1c.154-.089.145-.239-.02-.336l-4.2-2.426a.641.641,0,0,0-.58-.011l-3.634,2.1c-.154.089-.145.24.021.335ZM175.077,210.5a.641.641,0,0,0,.58.011l3.634-2.1c.154-.089.145-.239-.021-.334l-4.2-2.426a.642.642,0,0,0-.579-.012l-3.635,2.1c-.154.089-.145.239.021.334Zm11.8-6.811a.642.642,0,0,0,.579.012l3.634-2.1c.154-.09.145-.239-.021-.334l-4.2-2.426a.642.642,0,0,0-.579-.012l-3.634,2.1c-.154.09-.145.239.021.335Zm-22.421,12.944a.641.641,0,0,0,.58.011l3.634-2.1c.154-.089.145-.239-.02-.335l-4.2-2.425a.641.641,0,0,0-.58-.011l-3.634,2.1c-.154.089-.145.239.021.334Zm5.312-3.067a.643.643,0,0,0,.58.012l3.634-2.1c.154-.089.145-.239-.021-.334l-4.2-2.426a.643.643,0,0,0-.58-.012l-3.634,2.1c-.154.09-.145.24.02.335Zm27.307-17.547a.643.643,0,0,0,.58.012l3.635-2.1c.154-.087.145-.237-.02-.333l-1.119-.646a.643.643,0,0,0-.58-.012l-3.634,2.1c-.154.089-.146.239.02.334Zm15.935-9.2a.639.639,0,0,0,.579.011l3.634-2.1c.154-.09.145-.239-.021-.334l-1.118-.646a.641.641,0,0,0-.58-.011l-3.634,2.1c-.154.089-.145.239.02.334Zm8.827,5.1a.644.644,0,0,0,.579.011l3.634-2.1c.154-.089.145-.24-.02-.334l-4.2-2.426a.638.638,0,0,0-.58-.012l-3.634,2.1c-.154.089-.145.239.02.334Zm13.278,13.476,3.634-2.1c.154-.088.145-.238-.021-.334l-4.2-2.426a.642.642,0,0,0-.579-.012l-3.635,2.1c-.154.09-.145.24.021.335l4.2,2.426a.645.645,0,0,0,.58.011m-32.729-12.44a.641.641,0,0,0,.58.012l3.634-2.1c.154-.09.145-.239-.02-.335l-1.119-.646a.639.639,0,0,0-.579-.011l-3.634,2.1c-.155.09-.145.239.02.334Zm-43.243,26.746a.641.641,0,0,0,.58.013l3.634-2.1c.154-.089.146-.239-.02-.334l-4.2-2.426a.642.642,0,0,0-.579-.012l-3.635,2.1c-.154.089-.145.239.02.334Z" transform="translate(-24.485 -45.319)" fill="#455a64"/>
        <path id="Path_270" data-name="Path 270" d="M209.77,266.882l35.863-20.706a4.327,4.327,0,0,1,3.914,0l20.565,11.873a1.193,1.193,0,0,1,0,2.26l-35.863,20.706a4.329,4.329,0,0,1-3.915,0L209.77,269.142a1.193,1.193,0,0,1,0-2.26" transform="translate(-51.558 -60.625)" fill="#263238"/>
      </g>
    </g>
    <g id="Group_107" data-name="Group 107">
      <g id="Group_106" data-name="Group 106" clip-path="url(#clip-path)">
        <path id="Path_271" data-name="Path 271" d="M275.739,140.02c0-.008.008-.008.008-.008l-.046-.03-6.123-3.527c-.353-.158-.874-.008-1.5.467a22.116,22.116,0,0,1-19.615,3.721,14.882,14.882,0,0,1-1.146-1.189c-.038-.045-.076-.09-.114-.128H247.2a2.415,2.415,0,0,0-.632-.52l-.106-.06-6.13-3.519c-.7-.331-1.333,0-1.755,1.039-5.92,14.711-18.538,29.618-26.952,33.347a4.759,4.759,0,0,0-1.657,1.235,3.53,3.53,0,0,0-.934,2.41l1.213,33.031c0,9.544,4.03,19.623,12.248,24.526l6.341,3.662.113.06a22.312,22.312,0,0,0,11.239,2.855c.882,0,1.778-.038,2.7-.128a9.071,9.071,0,0,0,4.79-2.4c18.387-18.99,27.328-44.691,27.328-58.913l1.214-34.552c.03-.746-.151-1.205-.483-1.386" transform="translate(-51.575 -33.335)" fill="#27debf"/>
        <path id="Path_272" data-name="Path 272" d="M278.228,142.56l-1.213,34.552c0,14.222-8.941,39.923-27.329,58.913a9.068,9.068,0,0,1-4.79,2.4c-.926.09-1.823.128-2.7.128a22.314,22.314,0,0,1-11.239-2.855l-.112-.06-.218-.136c-8.218-4.9-12.248-14.982-12.248-24.526l-1.213-33.031a3.532,3.532,0,0,1,.933-2.41,4.769,4.769,0,0,1,1.658-1.235c8.414-3.729,21.031-18.636,26.951-33.347.423-1.04,1.063-1.378,1.763-1.047l.106.06a2.43,2.43,0,0,1,.633.52h.007c.038.038.076.083.114.128,6.282,7.314,18.636,7.307,26.883.994.625-.475,1.146-.625,1.5-.467l.045.03s-.008,0-.008.008c.332.181.513.64.483,1.386" transform="translate(-53.581 -34.488)" fill="#5beaea"/>
        <g id="Group_96" data-name="Group 96" transform="translate(196.906 103.058)" opacity="0.4">
          <g id="Group_95" data-name="Group 95">
            <g id="Group_94" data-name="Group 94" clip-path="url(#clip-path-8)">
              <path id="Path_273" data-name="Path 273" d="M288.626,140.4c-.354-.158-.873-.008-1.5.467-7.767,5.943-19.178,6.3-25.725.2a22.07,22.07,0,0,0,19.6-3.721c.624-.475,1.144-.625,1.5-.467Z" transform="translate(-261.404 -136.815)" fill="#fff"/>
            </g>
          </g>
        </g>
        <g id="Group_99" data-name="Group 99" transform="translate(157.977 101.767)" opacity="0.4">
          <g id="Group_98" data-name="Group 98">
            <g id="Group_97" data-name="Group 97" clip-path="url(#clip-path-9)">
              <path id="Path_274" data-name="Path 274" d="M246.634,138.742c-.7-.331-1.341.008-1.763,1.047-5.921,14.711-18.538,29.618-26.952,33.347a4.76,4.76,0,0,0-1.657,1.235,3.928,3.928,0,0,0-.422.58l-6.116-3.533a4.235,4.235,0,0,1,.414-.572,3.145,3.145,0,0,1,.271-.279l.008-.008a1.4,1.4,0,0,0,.105-.105,1.25,1.25,0,0,0,.105-.1,4.529,4.529,0,0,1,1.168-.746c8.414-3.729,21.031-18.636,26.951-33.347.423-1.04,1.055-1.371,1.755-1.04Z" transform="translate(-209.724 -135.101)" fill="#fff"/>
            </g>
          </g>
        </g>
        <path id="Path_275" data-name="Path 275" d="M210.643,182.133a.651.651,0,0,1,.105-.1,1.394,1.394,0,0,1-.105.105s-.008-.008,0-.008" transform="translate(-51.972 -44.915)" fill="#27debf"/>
        <g id="Group_102" data-name="Group 102" transform="translate(158.667 137.12)" opacity="0.15">
          <g id="Group_101" data-name="Group 101">
            <g id="Group_100" data-name="Group 100" clip-path="url(#clip-path-10)">
              <path id="Path_276" data-name="Path 276" d="M210.748,182.035a1.409,1.409,0,0,1-.105.106s-.008-.008,0-.008a.726.726,0,0,1,.105-.1" transform="translate(-210.639 -182.035)"/>
            </g>
          </g>
        </g>
        <g id="Group_105" data-name="Group 105" transform="translate(157.455 138.085)" opacity="0.15">
          <g id="Group_104" data-name="Group 104">
            <g id="Group_103" data-name="Group 103" clip-path="url(#clip-path-11)">
              <path id="Path_277" data-name="Path 277" d="M228.95,246.431l-.113-.053-6.342-3.668c-8.218-4.9-12.248-14.982-12.248-24.526l-1.213-33.031a3.273,3.273,0,0,1,.52-1.838l6.117,3.533a3.3,3.3,0,0,0-.512,1.83l1.213,33.031c0,9.544,4.03,19.623,12.248,24.526l.218.136Z" transform="translate(-209.031 -183.315)"/>
            </g>
          </g>
        </g>
        <path id="Path_278" data-name="Path 278" d="M260.857,217.869l-9.789,5.652,1.517-17.709c-1.171-.618-1.917-2.142-1.917-4.33,0-3.9,2.37-8.429,5.3-10.118s5.294.1,5.294,4a13.3,13.3,0,0,1-1.917,6.544Z" transform="translate(-61.849 -47.06)" fill="#455a64"/>
        <path id="Path_279" data-name="Path 279" d="M260.988,225.082l-8.867-5.119-.923,10.771Z" transform="translate(-61.98 -54.273)" fill="#37474f"/>
        <path id="Path_280" data-name="Path 280" d="M256.219,191.364a11.553,11.553,0,0,0-4.516,5.992l7.893,4.557v0a13.3,13.3,0,0,0,1.917-6.544c0-3.9-2.371-5.692-5.294-4" transform="translate(-62.104 -47.06)" fill="#37474f"/>
      </g>
    </g>
    <g id="Group_139" data-name="Group 139">
      <g id="Group_138" data-name="Group 138" clip-path="url(#clip-path)">
        <path id="Path_281" data-name="Path 281" d="M95.13,359.885v2.944c-.012,3.459,2.268,6.922,6.84,9.561,6.885,3.975,17,4.944,25.466,2.917l7.865,4.541,6.043-1.366,4.124,2.382.224,4.984,2.222,1.283,5.58.49,4.01,2.237v2.81l5.033,2.905h12.8l4.587-2.647v-2.972L138.991,369.3a9.423,9.423,0,0,0,2.836-6.434v-2.976c-.615-2.873-3.009-4.355-6.831-6.562-9.12-5.265-23.906-5.265-33.025,0-4.1,2.367-6.427,3.466-6.84,6.562m12.537-3.439a10.34,10.34,0,0,1,9.356,0c2.584,1.491,2.584,3.909,0,5.4a10.34,10.34,0,0,1-9.356,0c-2.584-1.492-2.584-3.91,0-5.4" transform="translate(-23.472 -86.203)" fill="#27debf"/>
        <g id="Group_110" data-name="Group 110" transform="translate(71.658 263.171)" opacity="0.1">
          <g id="Group_109" data-name="Group 109">
            <g id="Group_108" data-name="Group 108" clip-path="url(#clip-path-13)">
              <path id="Path_282" data-name="Path 282" d="M95.13,359.885v2.944c-.012,3.459,2.268,6.922,6.84,9.561,6.885,3.975,17,4.944,25.466,2.917l7.865,4.541,6.043-1.366,4.124,2.382.224,4.984,2.222,1.283,5.58.49,4.01,2.237v2.81l5.033,2.905h12.8l4.587-2.647v-2.972L138.991,369.3a9.423,9.423,0,0,0,2.836-6.434v-2.976c-.615-2.873-3.009-4.355-6.831-6.562-9.12-5.265-23.906-5.265-33.025,0-4.1,2.367-6.427,3.466-6.84,6.562m12.537-3.439a10.34,10.34,0,0,1,9.356,0c2.584,1.491,2.584,3.909,0,5.4a10.34,10.34,0,0,1-9.356,0c-2.584-1.492-2.584-3.91,0-5.4" transform="translate(-95.13 -349.374)"/>
            </g>
          </g>
        </g>
        <path id="Path_283" data-name="Path 283" d="M101.97,368.445c6.885,3.975,17,4.944,25.466,2.917L135.3,375.9l6.043-1.366,4.124,2.382.224,4.984,2.222,1.283,5.58.49,4.351,2.427-.34,2.62,5.033,2.905h12.8l4.587-2.647L138.991,365.35c4.821-5.114,3.5-11.646-4-15.972-9.12-5.265-23.906-5.265-33.025,0s-9.12,13.8,0,19.067m5.7-15.945a10.34,10.34,0,0,1,9.356,0c2.584,1.491,2.584,3.909,0,5.4a10.34,10.34,0,0,1-9.356,0c-2.584-1.492-2.584-3.91,0-5.4" transform="translate(-23.472 -85.23)" fill="#5beaea"/>
        <g id="Group_113" data-name="Group 113" transform="translate(74.246 262.787)" opacity="0.3">
          <g id="Group_112" data-name="Group 112">
            <g id="Group_111" data-name="Group 111" clip-path="url(#clip-path-14)">
              <path id="Path_284" data-name="Path 284" d="M119.331,370.655a30.982,30.982,0,0,1-15.219-3.6c-3.525-2.036-5.546-4.694-5.546-7.294s2.021-5.258,5.546-7.293a30.979,30.979,0,0,1,15.22-3.6,30.974,30.974,0,0,1,15.219,3.6c3.525,2.035,5.546,4.694,5.546,7.293s-2.021,5.258-5.546,7.293a30.974,30.974,0,0,1-15.219,3.6m0-20.756a29.942,29.942,0,0,0-14.7,3.464c-3.2,1.846-5.028,4.178-5.028,6.4s1.833,4.551,5.029,6.4a29.937,29.937,0,0,0,14.7,3.464,29.939,29.939,0,0,0,14.7-3.464c3.2-1.846,5.028-4.178,5.028-6.4s-1.833-4.551-5.028-6.4a29.939,29.939,0,0,0-14.7-3.464" transform="translate(-98.565 -348.864)"/>
            </g>
          </g>
        </g>
        <g id="Group_116" data-name="Group 116" transform="translate(86.606 286.133)" opacity="0.1">
          <g id="Group_115" data-name="Group 115">
            <g id="Group_114" data-name="Group 114" clip-path="url(#clip-path-15)">
              <path id="Path_285" data-name="Path 285" d="M114.975,379.982v2.97a39.6,39.6,0,0,0,17.357-.124v-2.971a39.6,39.6,0,0,1-17.357.124" transform="translate(-114.975 -379.858)"/>
            </g>
          </g>
        </g>
        <g id="Group_119" data-name="Group 119" transform="translate(111.829 289.307)" opacity="0.1">
          <g id="Group_118" data-name="Group 118">
            <g id="Group_117" data-name="Group 117" clip-path="url(#clip-path-16)">
              <path id="Path_286" data-name="Path 286" d="M148.459,385.438v2.972l6.043-1.366v-2.972Z" transform="translate(-148.459 -384.072)"/>
            </g>
          </g>
        </g>
        <g id="Group_122" data-name="Group 122" transform="translate(121.996 291.688)" opacity="0.1">
          <g id="Group_121" data-name="Group 121">
            <g id="Group_120" data-name="Group 120" clip-path="url(#clip-path-17)">
              <path id="Path_287" data-name="Path 287" d="M161.956,387.233V390.2l.224,4.985v-2.972Z" transform="translate(-161.956 -387.233)"/>
            </g>
          </g>
        </g>
        <g id="Group_125" data-name="Group 125" transform="translate(124.442 297.956)" opacity="0.1">
          <g id="Group_124" data-name="Group 124">
            <g id="Group_123" data-name="Group 123" clip-path="url(#clip-path-18)">
              <path id="Path_288" data-name="Path 288" d="M165.2,395.553v2.972l5.58.49v-2.972Z" transform="translate(-165.204 -395.553)"/>
            </g>
          </g>
        </g>
        <g id="Group_128" data-name="Group 128" transform="translate(139.066 306.399)" opacity="0.1">
          <g id="Group_127" data-name="Group 127">
            <g id="Group_126" data-name="Group 126" clip-path="url(#clip-path-19)">
              <rect id="Rectangle_233" data-name="Rectangle 233" width="12.798" height="2.972" transform="translate(0 0)"/>
            </g>
          </g>
        </g>
        <g id="Group_131" data-name="Group 131" transform="translate(151.864 303.752)" opacity="0.15">
          <g id="Group_130" data-name="Group 130">
            <g id="Group_129" data-name="Group 129" clip-path="url(#clip-path-20)">
              <path id="Path_289" data-name="Path 289" d="M206.2,403.247v2.972l-4.587,2.647v-2.972l2.01-1.161v1.283l1.11-.64v-1.3Z" transform="translate(-201.608 -403.247)"/>
            </g>
          </g>
        </g>
        <path id="Path_290" data-name="Path 290" d="M205.386,404.352l-1.11.654v1.283l1.11-.64Z" transform="translate(-50.402 -99.768)" fill="#27debf"/>
        <g id="Group_134" data-name="Group 134" transform="translate(113.008 280.989)" opacity="0.15">
          <g id="Group_133" data-name="Group 133">
            <g id="Group_132" data-name="Group 132" clip-path="url(#clip-path-21)">
              <path id="Path_291" data-name="Path 291" d="M192,396.624v1.3l-41.976-24.238,1.11-.654Z" transform="translate(-150.024 -373.028)"/>
            </g>
          </g>
        </g>
        <g id="Group_137" data-name="Group 137" transform="translate(113.008 280.989)" opacity="0.15">
          <g id="Group_136" data-name="Group 136">
            <g id="Group_135" data-name="Group 135" clip-path="url(#clip-path-22)">
              <path id="Path_292" data-name="Path 292" d="M151.134,373.029v1.3l-1.11-.643Z" transform="translate(-150.024 -373.029)"/>
            </g>
          </g>
        </g>
      </g>
    </g>
    <g id="Group_150" data-name="Group 150">
      <g id="Group_149" data-name="Group 149" clip-path="url(#clip-path)">
        <path id="Path_293" data-name="Path 293" d="M389.5,247.409c.528-19.619-1.045-24.321-6.268-27.915l-2.023,11.368s2.379,13.4,2.123,17.858c-.224,3.92-.6,8.824-1.533,11.993a2.385,2.385,0,0,1-1.039,1.344,13.713,13.713,0,0,0-2.868,2.735c-.784.821-1.452,1.025-1.349,1.287a1.291,1.291,0,0,0,1.653.586,9.021,9.021,0,0,0,1.887-1.024,11.965,11.965,0,0,1-1.932,3.321c-1.865,2.287-1.947,3.691,1.818,3.724,2.359.021,4.242-1.434,6.018-6.634a42.244,42.244,0,0,0,1.659-5.839,105.158,105.158,0,0,0,1.853-12.8" transform="translate(-92.904 -54.157)" fill="#b16668"/>
        <path id="Path_294" data-name="Path 294" d="M379.591,217.486a7.528,7.528,0,0,1,8.071,4.077c2.189,3.915,2.726,10.65,2.975,17.347,0,0-4.348,3.637-9.564,1.849Z" transform="translate(-93.659 -53.638)" fill="#27debf"/>
        <g id="Group_142" data-name="Group 142" transform="translate(285.932 163.752)" opacity="0.7">
          <g id="Group_141" data-name="Group 141">
            <g id="Group_140" data-name="Group 140" clip-path="url(#clip-path-24)">
              <path id="Path_295" data-name="Path 295" d="M379.591,217.486a7.528,7.528,0,0,1,8.071,4.077c2.189,3.915,2.726,10.65,2.975,17.347,0,0-4.348,3.637-9.564,1.849Z" transform="translate(-379.591 -217.39)"/>
            </g>
          </g>
        </g>
        <path id="Path_296" data-name="Path 296" d="M385.6,358.464c.4.15.5.9.556,2.4.046,1.135.289,3.115-1.04,3.511s-3.275.194-4.127-.876c-1.063-1.335-1.781-2.51-3.3-4.138-1.316-1.412-2.74-2.731-3.271-4.712-.479-1.791-.08-2.567,1.142-3.088,1.679-.716,4.318,1.623,5.634,1.991,1.134.317,4.01,4.76,4.405,4.91" transform="translate(-92.335 -86.71)" fill="#263238"/>
        <path id="Path_297" data-name="Path 297" d="M387.647,358.708v1.841a4.508,4.508,0,0,1-4.652.126c-.08-.178-.482-2.633-.482-2.633Z" transform="translate(-94.38 -88.342)" fill="#b16668"/>
        <path id="Path_298" data-name="Path 298" d="M362.828,374.853a30.91,30.91,0,0,1,.813,3c.227,1.113.551,2.973.161,3.81s-1.91,1.378-4.267,1.36c-1.526-.011-3.906,1.025-5.534,1.934a14.633,14.633,0,0,1-6.961,1.1c-2.1-.246-4.27-1.463-4.608-2.331s.111-1.77,5.053-3.876c.044-.02,6.87-2.239,9.261-4.877Z" transform="translate(-84.469 -92.49)" fill="#263238"/>
        <path id="Path_299" data-name="Path 299" d="M367.544,372.211s-.007,1.366,0,2.147-.915,1.944-3.3,1.859c-1.676-.06-2.847-.511-2.78-1.891v-1.99Z" transform="translate(-89.185 -91.838)" fill="#b16668"/>
        <path id="Path_300" data-name="Path 300" d="M381.427,310.609a50.059,50.059,0,0,0-2.174-9.588s.657-8.272.972-16.115c.34-8.472-.018-19.12.143-21.234,0,0-27.336-5.531-27.824,4.261s1.079,34.722,1.4,39.024,1.067,8.108,1.955,15.08c.877,6.883,3.336,23.134,3.336,23.134a6.455,6.455,0,0,0,6.082-.124s1.925-19.582,1.722-24.546a42.383,42.383,0,0,0-1.882-10.834s.519-8.075.976-15.1.942-10.4,1.049-13.453l.588-.292s.6,12.117.924,16.42,1.007,8.427,2.251,16.417c1.079,6.932,4.3,21.6,4.3,21.6,3.123,1.688,4.986-.221,4.986-.221s2.041-18.415,1.2-24.431" transform="translate(-86.963 -64.674)" fill="#37474f"/>
        <path id="Path_301" data-name="Path 301" d="M372.011,285.3s6.632-3.268,9.951-6.215c0,0-3.082,4.343-7.127,6.267,0,0-1.439,15.052-1.431,14.754l-.832-14.829Z" transform="translate(-91.789 -68.861)" fill="#263238"/>
        <path id="Path_302" data-name="Path 302" d="M364.176,212.816l1.617,8.9,8.043-.587-1.689-10.092Z" transform="translate(-89.856 -52.071)" fill="#b16668"/>
        <path id="Path_303" data-name="Path 303" d="M379.442,222.08c-.8-2.421-3.867-5.055-6.941-4.485a90.718,90.718,0,0,0-13.459,3.361c-2.813,1-5.377,3.436-5.609,12.691,0,0-.943,21.576-.96,25.748a34.11,34.11,0,0,0,18.475,1.822c8.455-1.847,9.475-5.354,9.475-5.354s.108-15.515-.145-22.216c-.215-5.692-.29-9.9-.837-11.567" transform="translate(-86.968 -53.669)" fill="#27debf"/>
        <g id="Group_145" data-name="Group 145" transform="translate(265.506 163.847)" opacity="0.15">
          <g id="Group_144" data-name="Group 144">
            <g id="Group_143" data-name="Group 143" clip-path="url(#clip-path-25)">
              <path id="Path_304" data-name="Path 304" d="M379.442,222.08c-.8-2.421-3.867-5.055-6.941-4.485a90.718,90.718,0,0,0-13.459,3.361c-2.813,1-5.377,3.436-5.609,12.691,0,0-.943,21.576-.96,25.748a34.11,34.11,0,0,0,18.475,1.822c8.455-1.847,9.475-5.354,9.475-5.354l.022-6.223s-.015-11.979-.167-15.993c-.215-5.692-.29-9.9-.837-11.567" transform="translate(-352.474 -217.516)"/>
            </g>
          </g>
        </g>
        <path id="Path_305" data-name="Path 305" d="M355.345,199.022s-2.039,3.251-1.792,3.561,1.808.558,1.808.558Z" transform="translate(-87.229 -49.106)" fill="#9a4a4d"/>
        <path id="Path_306" data-name="Path 306" d="M361.575,186.914c-4.253,1-5.445,2.9-5.694,9.7-.261,7.1.514,9.316,1.467,10.25.644.63,4.141.668,5.894.142,2.193-.658,7.14-2.538,9.4-6.157,2.652-4.26,3.247-9.964.252-12.232-4.213-3.191-9.585-2.108-11.315-1.7" transform="translate(-87.796 -45.993)" fill="#b16668"/>
        <path id="Path_307" data-name="Path 307" d="M355.684,187.389a8.67,8.67,0,0,0,3.957,3.158c.816.929.366,4.552,1.8,5.127,0,0,.616-2.637,2.833-2.358,2.232.282,2.6,3.11,1.233,4.864s-2.685,1.123-2.685,1.123.154,3.746,1.861,5.83a11.34,11.34,0,0,0,5.362-.25c2.126-.5,5.086-3.241,6.293-6.1,2.551-6.041,2.618-11.427-1.237-12.953-.475-2.747-2.673-3.934-5.159-4.446-5.352-1.1-8.8,2.236-12.922,1.946-2.358-.166-2.8,1.551-1.337,4.054" transform="translate(-87.553 -44.7)" fill="#263238"/>
        <path id="Path_308" data-name="Path 308" d="M381.781,187.842l2.523-1.565a1.485,1.485,0,0,0-2.523,1.565" transform="translate(-94.144 -45.788)" fill="#263238"/>
        <path id="Path_309" data-name="Path 309" d="M313.111,238.1c1.323.588,16.9,12.1,19.332,10.762s14.893-15.9,14.893-15.9a10.059,10.059,0,0,0,0-10.923,10.253,10.253,0,0,0-6.086,3.9c-2.089,3.161-11.122,14.49-11.122,14.49q-3.347-1.676-6.67-3.4c-1.825-.945-3.655-1.89-5.442-2.906a6.727,6.727,0,0,1-1.4-.866c-.881-.872-.73-2.98-.713-4.126a15.64,15.64,0,0,1,.078-1.605c.076-.655.2-2.259-.978-1.75a1.478,1.478,0,0,0-.563.473,2.65,2.65,0,0,0-.423.8c-.222.693-.151,1.452-.354,2.151a.616.616,0,0,1-.145.279.517.517,0,0,1-.372.114c-1.717-.052-3.342-2.458-4.131-3.735a3.5,3.5,0,0,0-1.3-1.485,2.323,2.323,0,0,0-2.673,1.032,5.434,5.434,0,0,0-.851,3.783,7.521,7.521,0,0,0,2.239,4.744,23.026,23.026,0,0,0,6.69,4.164" transform="translate(-75.042 -54.784)" fill="#b16668"/>
        <path id="Path_310" data-name="Path 310" d="M358.275,221.409a10.013,10.013,0,0,0-7.371,3.5c-3.271,3.7-7.577,9.75-7.577,9.75a9.546,9.546,0,0,0,7.536,7.094s5.9-6.04,7.536-9.366,1.9-8.729-.124-10.974" transform="translate(-84.711 -54.63)" fill="#27debf"/>
        <g id="Group_148" data-name="Group 148" transform="translate(258.616 166.779)" opacity="0.7">
          <g id="Group_147" data-name="Group 147">
            <g id="Group_146" data-name="Group 146" clip-path="url(#clip-path-26)">
              <path id="Path_311" data-name="Path 311" d="M358.275,221.409a10.013,10.013,0,0,0-7.371,3.5c-3.271,3.7-7.577,9.75-7.577,9.75a9.546,9.546,0,0,0,7.536,7.094s5.9-6.04,7.536-9.366,1.9-8.729-.124-10.974" transform="translate(-343.327 -221.409)"/>
            </g>
          </g>
        </g>
      </g>
    </g>
  </g>
</svg>
