<?xml version="1.0" encoding="utf-8"?>
<!-- Generator: Adobe Illustrator 25.2.0, SVG Export Plug-In . SVG Version: 6.00 Build 0)  -->
<svg version="1.1" id="payment" xmlns="http://www.w3.org/2000/svg" xmlns:xlink="http://www.w3.org/1999/xlink" x="0px" y="0px"
	 viewBox="0 0 103.8 133.1" style="enable-background:new 0 0 103.8 133.1;" xml:space="preserve">
<style type="text/css">
	.st0{fill:#407BFF;}
	.st1{opacity:0.2;enable-background:new    ;}
	.st2{opacity:0.2;}
	.st3{opacity:0.2;fill:#FFFFFF;enable-background:new    ;}
	.st4{opacity:0.1;enable-background:new    ;}
	.st5{opacity:0.5;fill:#FAFAFA;enable-background:new    ;}
	.st6{fill:none;stroke:#407BFF;stroke-miterlimit:10;}
	.st7{opacity:0.2;fill:none;stroke:#000000;stroke-width:2;stroke-linecap:round;stroke-linejoin:round;enable-background:new    ;}
	.st8{opacity:0.2;fill:#FAFAFA;enable-background:new    ;}
	
		.st9{opacity:0.2;fill:none;stroke:#FAFAFA;stroke-linecap:round;stroke-linejoin:round;stroke-dasharray:5,5;enable-background:new    ;}
</style>
<g id="Coin" transform="translate(37.652)">
	<g id="Group_616" transform="translate(0 0)">
		<g id="Group_603" transform="translate(0 25.463)">
			<path id="Path_40603" class="st0" d="M18.3,10.6c-0.8,2-5.6,1.8-10.6-0.2s-8.4-5.3-7.6-7.3c0.2-0.5,0.7-2.2,1.3-2.4
				c1.9-0.8,5.4,1,9.2,2.6c3.6,1.5,7.7,2.4,8.3,4.4C19.3,8.8,18.5,10.1,18.3,10.6z"/>
			<path id="Path_40604" class="st1" d="M18.9,7.6c0.2,1-0.1,2.1-0.7,3c-0.5,0.8-1.4,1.3-2.3,1.3c-0.1,0-0.3,0-0.4,0
				c-0.9,0.1-1.8,0-2.7-0.1c-0.1,0-0.3,0-0.4-0.1c-1.1-0.2-2.1-0.5-3.1-0.8c-0.1,0-0.2-0.1-0.4-0.1c-0.4-0.1-0.8-0.3-1.2-0.5
				C7.3,10.2,6.9,10,6.5,9.9C6.4,9.8,6.3,9.7,6.2,9.7c-0.9-0.5-1.8-1-2.7-1.6C3.4,8.1,3.3,8,3.2,7.9c-0.7-0.5-1.4-1.1-2-1.8
				C1.1,6,1,5.9,0.9,5.8c-0.7-0.7-1-1.7-0.8-2.7c0.2-0.5,0.6-2.2,1.3-2.4c0.8-0.2,1.6-0.2,2.4,0c0.1,0,0.2,0.1,0.4,0.1
				c2.2,0.7,4.4,1.5,6.5,2.5c2.8,1.1,6.1,2.3,7.7,3.7c0.1,0.1,0.2,0.2,0.3,0.3C18.7,7.4,18.8,7.5,18.9,7.6z"/>
			<g id="Group_598" transform="translate(0.908 0.304)" class="st2">
				<path id="Path_40605" d="M3.4,0.2L3.2,0.5l-3,5.3C0.2,5.7,0.1,5.6,0,5.5l2.9-5.1L3.1,0L3.4,0.2z"/>
			</g>
			<g id="Group_599" transform="translate(3.191 2.467)" class="st2">
				<path id="Path_40606" d="M3.4,0.2L0.3,5.7C0.2,5.6,0.1,5.5,0,5.5L3,0L3.4,0.2z"/>
			</g>
			<g id="Group_600" transform="translate(8.939 5.619)" class="st2">
				<path id="Path_40607" d="M3.3,0.2L0.4,5.4C0.2,5.3,0.1,5.3,0,5.2L2.9,0L3.3,0.2z"/>
			</g>
			<g id="Group_601" transform="translate(6.155 4.154)" class="st2">
				<path id="Path_40608" d="M3.4,0.2L0.3,5.7C0.2,5.6,0.1,5.6,0,5.5L3.1,0L3.4,0.2z"/>
			</g>
			<g id="Group_602" transform="translate(12.402 6.622)" class="st2">
				<path id="Path_40609" d="M3.2,0.2L0.4,5.2c-0.1,0-0.3,0-0.4-0.1L2.9,0L3.2,0.2z"/>
			</g>
			<path id="Path_40610" class="st0" d="M18.9,8.9c-0.8,2-5.5,1.9-10.5-0.2S0,3.4,0.8,1.4s5.5-1.9,10.5,0.2S19.7,6.9,18.9,8.9z"/>
			<path id="Path_40611" class="st3" d="M17.2,8.2C16.6,9.6,13,9.4,9,7.8S2.3,3.7,2.9,2.3s4.2-1.2,8.2,0.4S17.8,6.8,17.2,8.2z"/>
		</g>
		<g id="Group_609" transform="translate(24.506 13.842)">
			<path id="Path_40612" class="st0" d="M19,4.5c1.3,1.7-1.2,5.8-5.5,9.1s-8.8,4.6-10.1,2.9c-0.3-0.4-1.5-1.7-1.4-2.3
				c0.2-2,3.5-4.2,6.8-6.7c3.1-2.4,5.9-5.4,7.9-5C18,2.7,18.6,4,19,4.5z"/>
			<path id="Path_40613" class="st1" d="M16.8,2.4c1,0.4,1.8,1.1,2.3,2.1c0.5,0.8,0.5,1.8,0,2.7c-0.1,0.1-0.1,0.3-0.2,0.4
				c-0.4,0.8-0.9,1.6-1.5,2.3c-0.1,0.1-0.2,0.2-0.2,0.3c-0.7,0.8-1.4,1.6-2.2,2.3c-0.1,0.1-0.2,0.2-0.3,0.2c-0.3,0.3-0.7,0.6-1,0.8
				s-0.7,0.5-1.1,0.8c-0.1,0.1-0.2,0.1-0.3,0.2c-0.9,0.6-1.8,1.1-2.7,1.5c-0.1,0.1-0.2,0.1-0.3,0.2c-0.8,0.4-1.7,0.7-2.6,0.9
				c-0.1,0-0.3,0.1-0.4,0.1c-1,0.3-2,0-2.7-0.7C3.1,16,1.9,14.8,2,14.2c0.2-0.8,0.6-1.5,1.2-2.1c0.1-0.1,0.2-0.2,0.3-0.3
				c1.7-1.6,3.5-3,5.4-4.4c2.4-1.8,5-4.1,7-4.8c0.1,0,0.2-0.1,0.4-0.1C16.4,2.4,16.6,2.4,16.8,2.4z"/>
			<g id="Group_604" transform="translate(2.965 11.527)" class="st2">
				<path id="Path_40614" d="M0.3,0l0.2,0.3l3.1,5.2c-0.1,0-0.3,0.1-0.4,0.1l-3-5L0,0.2L0.3,0z"/>
			</g>
			<g id="Group_605" transform="translate(5.962 10.653)" class="st2">
				<path id="Path_40615" d="M0.3,0l3.2,5.4C3.4,5.4,3.3,5.5,3.2,5.5L0,0.2L0.3,0z"/>
			</g>
			<g id="Group_606" transform="translate(11.499 7.328)" class="st2">
				<path id="Path_40616" d="M0.3,0l3.1,5.1C3.3,5.2,3.2,5.3,3.1,5.3L0,0.2L0.3,0z"/>
			</g>
			<g id="Group_607" transform="translate(8.925 8.874)" class="st2">
				<path id="Path_40617" d="M0.3,0l3.3,5.4C3.5,5.5,3.4,5.6,3.3,5.6L0,0.2L0.3,0z"/>
			</g>
			<g id="Group_608" transform="translate(14.07 4.862)" class="st2">
				<path id="Path_40618" d="M0.3,0l3,5C3.2,5.1,3.1,5.2,3,5.3L0,0.2L0.3,0z"/>
			</g>
			
				<ellipse id="Ellipse_64" transform="matrix(0.7909 -0.6119 0.6119 0.7909 -3.4219 8.0696)" class="st0" cx="10.1" cy="9" rx="9.8" ry="3.9"/>
			
				<ellipse id="Ellipse_65" transform="matrix(0.7909 -0.6119 0.6119 0.7909 -3.3104 8.1422)" class="st3" cx="10.3" cy="8.9" rx="7.7" ry="2.7"/>
		</g>
		<g id="Group_615" transform="translate(3.155)">
			<path id="Path_40619" class="st0" d="M22.7,10.4c-0.4,2.4-5.8,3.4-12,2.3S0,8.8,0.4,6.4c0.1-0.6,0.3-2.6,0.8-3
				c1.9-1.3,6.3-0.2,11,0.6c4.4,0.8,9.2,0.8,10.4,2.9C23.4,8.1,22.8,9.7,22.7,10.4z"/>
			<path id="Path_40620" class="st1" d="M22.7,6.9c0.4,1.1,0.4,2.4,0,3.5c-0.2,0.9-1,1.6-2.3,2.1c-0.2,0.1-0.3,0.1-0.5,0.2
				c-1,0.3-2,0.5-3.1,0.5c-0.1,0-0.3,0-0.4,0c-1.2,0-2.5,0-3.7-0.1c-0.1,0-0.3,0-0.4-0.1c-0.5-0.1-1-0.1-1.5-0.2s-1-0.2-1.5-0.3
				c-0.1,0-0.3-0.1-0.4-0.1c-1.2-0.3-2.3-0.7-3.4-1.1c-0.1-0.1-0.3-0.1-0.4-0.2c-1-0.4-1.9-0.9-2.7-1.5C2.2,9.5,2.1,9.4,2,9.3
				C0.8,8.3,0.2,7.4,0.4,6.4c0.1-0.6,0.2-2.6,0.8-3C2.1,3,3,2.8,3.9,2.8c0.1,0,0.3,0,0.4,0C7,3.1,9.7,3.5,12.3,4
				c3.4,0.6,7.4,1.1,9.5,2.3c0.1,0.1,0.3,0.1,0.4,0.2C22.4,6.6,22.5,6.8,22.7,6.9z"/>
			<g id="Group_610" transform="translate(1.964 2.324)" class="st2">
				<path id="Path_40621" d="M2.5,0.1L2.4,0.5l-2,6.7C0.2,7.1,0.1,7,0,6.9l2-6.4L2.1,0L2.5,0.1z"/>
			</g>
			<g id="Group_611" transform="translate(5.051 4.204)" class="st2">
				<path id="Path_40622" d="M2.5,0.1L0.4,7C0.3,7,0.1,6.9,0,6.9L2.1,0L2.5,0.1z"/>
			</g>
			<g id="Group_612" transform="translate(12.243 6.364)" class="st2">
				<path id="Path_40623" d="M2.4,0.1l-2,6.6c-0.1,0-0.3,0-0.4-0.1L2,0L2.4,0.1z"/>
			</g>
			<g id="Group_613" transform="translate(8.823 5.361)" class="st2">
				<path id="Path_40624" d="M2.5,0.1l-2.1,7C0.3,7.1,0.1,7,0,7l2.1-7L2.5,0.1z"/>
			</g>
			<g id="Group_614" transform="translate(16.365 6.653)" class="st2">
				<path id="Path_40625" d="M2.4,0.1L0.4,6.5c-0.1,0-0.3,0-0.4,0L2,0L2.4,0.1z"/>
			</g>
			
				<ellipse id="Ellipse_66" transform="matrix(0.1752 -0.9845 0.9845 0.1752 3.549 16.9193)" class="st0" cx="11.9" cy="6.3" rx="4.4" ry="11.3"/>
			
				<ellipse id="Ellipse_67" transform="matrix(0.1749 -0.9846 0.9846 0.1749 3.7086 17.1829)" class="st3" cx="12.1" cy="6.4" rx="3.1" ry="8.9"/>
		</g>
	</g>
</g>
<g id="Wallet" transform="translate(0 36.041)">
	<g id="Group_625" transform="translate(0 0)">
		<g id="Group_617" transform="translate(10.892 35.929)">
			<path id="Path_40626" class="st0" d="M84.6,0L46.9,2.2c-1.3,0.1-2.6,0.4-3.9,0.9L2,21.5c-1.5,0.7-2.3,2.2-2,3.8l6.8,32
				c0.4,1.9,2.3,3,4.1,2.6c0.3-0.1,0.6-0.2,0.8-0.3l40.4-20.2l37.3-1.3c1.8,0,3.2-1.5,3.1-3.3c0-0.1,0-0.3,0-0.4l-5-30.6
				C87.4,2.2,86.2,0,84.6,0z"/>
			<path id="Path_40627" class="st4" d="M84.6,0L46.9,2.2c-1.3,0.1-2.6,0.4-3.9,0.9L2,21.5c-1.5,0.7-2.3,2.2-2,3.8l6.8,32
				c0.4,1.9,2.3,3,4.1,2.6c0.3-0.1,0.6-0.2,0.8-0.3l40.4-20.2l37.3-1.3c1.8,0,3.2-1.5,3.1-3.3c0-0.1,0-0.3,0-0.4l-5-30.6
				C87.4,2.2,86.2,0,84.6,0z"/>
		</g>
		<g id="Group_622">
			<g id="Group_619" transform="translate(0 15.093)">
				<g id="Group_618">
					
						<rect id="Rectangle_490" x="14.2" y="2.2" transform="matrix(0.735 -0.678 0.678 0.735 -11.9101 26.266)" class="st0" width="26.9" height="52.4"/>
					<path id="Path_40628" class="st5" d="M55.3,38.5L35.5,56.8L0,18.2l13-12L19.8,0l1.1,1.2L55.3,38.5z"/>
				</g>
				
					<rect id="Rectangle_491" x="15.9" y="3.9" transform="matrix(0.7353 -0.6777 0.6777 0.7353 -11.9048 26.3614)" class="st6" width="23.7" height="49"/>
				
					<ellipse id="Ellipse_68" transform="matrix(0.735 -0.678 0.678 0.735 -11.7801 26.1216)" class="st0" cx="27.5" cy="28.1" rx="4.9" ry="6.2"/>
			</g>
			<path id="Path_40629" class="st4" d="M35.3,56.2l-7,2.4L13,21.4l6.8-6.3l1.1,1.2L35.3,56.2z"/>
			<g id="Group_621" transform="translate(11.363)">
				<g id="Group_620">
					
						<rect id="Rectangle_492" x="8.1" y="3" transform="matrix(0.9401 -0.341 0.341 0.9401 -8.667 9.1108)" class="st0" width="26.9" height="52.4"/>
					
						<rect id="Rectangle_493" x="8.1" y="3" transform="matrix(0.9401 -0.341 0.341 0.9401 -8.667 9.1108)" class="st5" width="26.9" height="52.4"/>
				</g>
				
					<rect id="Rectangle_494" x="9.8" y="4.8" transform="matrix(0.9401 -0.3408 0.3408 0.9401 -8.6897 9.1506)" class="st6" width="23.7" height="49"/>
				
					<ellipse id="Ellipse_69" transform="matrix(0.9401 -0.341 0.341 0.9401 -8.5763 9.0894)" class="st0" cx="21.6" cy="28.9" rx="4.9" ry="6.2"/>
			</g>
		</g>
		<path id="Path_40630" class="st0" d="M95.7,37.2l-37.2,2.1c-1.3,0.1-2.6,0.4-3.8,0.9L14.4,58.5c-1.5,0.7-2.3,2.3-1.9,3.8l6.8,32
			c0.4,1.8,2.2,3,4.1,2.6c0.3-0.1,0.6-0.2,0.8-0.3l39.8-20.1l36.8-1.2c1.8-0.1,3.2-1.5,3.1-3.3c0-0.1,0-0.3,0-0.4l-5-30.6
			C98.5,39.5,97.3,37.2,95.7,37.2z"/>
		<line id="Line_93" class="st7" x1="60" y1="44.9" x2="92" y2="43"/>
		<line id="Line_94" class="st7" x1="56.2" y1="45.8" x2="62.1" y2="72.5"/>
		<g id="Group_623" transform="translate(17.355 54.933)">
			<path id="Path_40631" class="st8" d="M0,15l4.1,20.6C4.1,35.6,7.3,27.4,0,15z"/>
			<path id="Path_40632" class="st8" d="M0.5,15.2C0.7,15.6,37.1,0,37.1,0c0.2,7.2-3.7,13.9-10,17.4C16.1,23.5,0.5,15.2,0.5,15.2z"
				/>
			<circle id="Ellipse_70" class="st0" cx="24.7" cy="14.3" r="1.6"/>
			<path id="Path_40633" class="st1" d="M37.1,0c0,0,4.5,6.8,3.4,18.4"/>
		</g>
		<line id="Line_95" class="st9" x1="15.6" y1="61.8" x2="53.9" y2="44.9"/>
		<g id="Group_624" transform="translate(61.115 48.986)">
			<line id="Line_96" class="st7" x1="0" y1="2" x2="31.9" y2="0"/>
			<line id="Line_97" class="st7" x1="1.4" y1="9.5" x2="33.3" y2="7.5"/>
		</g>
	</g>
</g>
</svg>
