<svg xmlns="http://www.w3.org/2000/svg" width="251.255" height="206.789" viewBox="0 0 251.255 206.789">
  <g id="Group_241" data-name="Group 241" transform="translate(-235 -47.654)">
    <g id="Group_240" data-name="Group 240" transform="translate(235 47.654)">
      <g id="Group_208" data-name="Group 208" transform="translate(35.82)">
        <path id="Rectangle_304" data-name="Rectangle 304" d="M32.353,0H76.63a32.352,32.352,0,0,1,32.352,32.352V174.437A32.353,32.353,0,0,1,76.63,206.789H32.352A32.352,32.352,0,0,1,0,174.437V32.353A32.353,32.353,0,0,1,32.353,0Z" transform="translate(0 0)" fill="#78acea"/>
        <path id="Path_40018" data-name="Path 40018" d="M1520.933,540.818V736.453a5.594,5.594,0,0,1-5.578,5.576h-97.829a5.592,5.592,0,0,1-5.576-5.576V540.818a5.592,5.592,0,0,1,5.576-5.578h97.829A5.594,5.594,0,0,1,1520.933,540.818Z" transform="translate(-1406.191 -535.24)" fill="#afcdfb"/>
        <g id="Group_207" data-name="Group 207" transform="translate(41.758 5.623)">
          <path id="Path_40019" data-name="Path 40019" d="M1679.408,570.068h-28.33a1.106,1.106,0,0,1-1.1-1.1h0a1.106,1.106,0,0,1,1.1-1.1h28.33a1.105,1.105,0,0,1,1.1,1.1h0A1.105,1.105,0,0,1,1679.408,570.068Z" transform="translate(-1644.944 -567.863)" fill="#5e92dd" opacity="0.4"/>
          <path id="Path_40020" data-name="Path 40020" d="M1621.888,570.068h0a1.106,1.106,0,0,1-1.1-1.1h0a1.105,1.105,0,0,1,1.1-1.1h0a1.106,1.106,0,0,1,1.1,1.1h0A1.106,1.106,0,0,1,1621.888,570.068Z" transform="translate(-1620.786 -567.863)" fill="#5e92dd" opacity="0.4"/>
        </g>
        <path id="Path_40021" data-name="Path 40021" d="M1708.868,1634.468a7.11,7.11,0,1,1-7.11-7.108A7.087,7.087,0,0,1,1708.868,1634.468Z" transform="translate(-1640.157 -1439.105)" fill="#95c0f4"/>
        <rect id="Rectangle_305" data-name="Rectangle 305" width="96.642" height="172.02" transform="translate(12.286 12.739)" fill="#95c0f4"/>
        <path id="Path_40022" data-name="Path 40022" d="M1706.806,1644.79a7.109,7.109,0,1,1-8.859-11.005A15.937,15.937,0,0,0,1706.806,1644.79Z" transform="translate(-1640.157 -1444.422)" fill="#8cbaf1"/>
      </g>
      <path id="Path_40023" data-name="Path 40023" d="M1563.9,728.454h-89.938a1.64,1.64,0,0,0-1.389,1.8v57.5a1.64,1.64,0,0,0,1.389,1.8H1563.9a1.64,1.64,0,0,0,1.391-1.8v-57.5A1.64,1.64,0,0,0,1563.9,728.454Z" transform="translate(-1420.539 -695.149)" fill="#78acea" opacity="0.9"/>
      <path id="Path_40024" data-name="Path 40024" d="M1465.865,1133.715h-70.119c-.6,0-1.083.81-1.083,1.8v57.5c0,.989.488,1.8,1.083,1.8h70.119c.6,0,1.084-.81,1.084-1.8v-57.5C1466.95,1134.525,1466.462,1133.715,1465.865,1133.715Z" transform="translate(-1356.063 -1030.552)" fill="#78acea" opacity="0.9"/>
      <g id="Group_212" data-name="Group 212" transform="translate(57.501 28.125)">
        <path id="Path_40025" data-name="Path 40025" d="M1624.355,700.2v57.5a1.8,1.8,0,0,1-1.8,1.8H1506.105a1.8,1.8,0,0,1-1.8-1.8V700.2a1.8,1.8,0,0,1,1.8-1.8h116.448A1.805,1.805,0,0,1,1624.355,700.2Z" transform="translate(-1504.308 -698.401)" fill="#fcecdb"/>
        <path id="Path_40026" data-name="Path 40026" d="M1912.543,700.2v57.5a1.968,1.968,0,0,1-2.093,1.8h-57.93V698.4h57.93A1.968,1.968,0,0,1,1912.543,700.2Z" transform="translate(-1792.497 -698.403)" fill="#f99746"/>
        <g id="Group_209" data-name="Group 209" transform="translate(66.66 19.71)">
          <path id="Path_40027" data-name="Path 40027" d="M1912.823,815.353h-20.495a1.309,1.309,0,0,1-1.305-1.305h0a1.309,1.309,0,0,1,1.305-1.305h20.495a1.309,1.309,0,0,1,1.305,1.305h0A1.309,1.309,0,0,1,1912.823,815.353Z" transform="translate(-1891.023 -812.743)" fill="#fcecdb"/>
          <path id="Rectangle_306" data-name="Rectangle 306" d="M1.305,0H16.579a1.305,1.305,0,0,1,1.305,1.305v0A1.305,1.305,0,0,1,16.579,2.61H1.305A1.305,1.305,0,0,1,0,1.305v0A1.305,1.305,0,0,1,1.305,0Z" transform="translate(0 3.916)" fill="#fcecdb"/>
        </g>
        <g id="Group_210" data-name="Group 210" transform="translate(67.504 6.724)">
          <path id="Path_40028" data-name="Path 40028" d="M1896.647,738.383a2.391,2.391,0,0,1,3.841-.009,4.264,4.264,0,0,1,0,4.776,2.4,2.4,0,0,1-3.841,0,4.25,4.25,0,0,1,0-4.767Zm3.342.444a1.679,1.679,0,0,0-2.833,0,3.251,3.251,0,0,0-.555,1.935,3.321,3.321,0,0,0,.546,1.944,1.693,1.693,0,0,0,1.425.768,1.666,1.666,0,0,0,1.416-.768,3.663,3.663,0,0,0,0-3.878Z" transform="translate(-1895.916 -737.411)" fill="#fcecdb"/>
          <path id="Path_40029" data-name="Path 40029" d="M1938.146,738.216a3.426,3.426,0,0,1,.657,2.231c.037,2.018-1.055,3.684-2.814,3.666a2.321,2.321,0,0,1-1.37-.4v-.657a2.282,2.282,0,0,0,1.314.416c1.536,0,2.175-1.4,2.2-2.768a2.3,2.3,0,0,1-3.388.389,2,2,0,0,1-.6-1.49,2.127,2.127,0,0,1,.629-1.573,2.164,2.164,0,0,1,1.574-.62A2.19,2.19,0,0,1,1938.146,738.216Zm-2.879.278a1.479,1.479,0,0,0-.444,1.111,1.341,1.341,0,0,0,.454,1.065,1.635,1.635,0,0,0,1.129.4,1.734,1.734,0,0,0,1.055-.361,1.8,1.8,0,0,0,.657-.9c-.111-1.111-.722-1.759-1.731-1.759A1.543,1.543,0,0,0,1935.268,738.494Z" transform="translate(-1927.558 -737.411)" fill="#fcecdb"/>
          <path id="Path_40030" data-name="Path 40030" d="M1968.437,750.544a.484.484,0,1,1,0,.685A.492.492,0,0,1,1968.437,750.544Zm0,3.443a.484.484,0,1,1,0,.685A.492.492,0,0,1,1968.437,753.988Z" transform="translate(-1955.821 -748.166)" fill="#fcecdb"/>
          <path id="Path_40031" data-name="Path 40031" d="M1980.7,744.534V738.8l-1.453.833v-.657l1.527-.916h.6v6.479Z" transform="translate(-1964.887 -737.944)" fill="#fcecdb"/>
          <path id="Path_40032" data-name="Path 40032" d="M2001.783,738.383a2.39,2.39,0,0,1,3.841-.009,4.265,4.265,0,0,1,0,4.776,2.4,2.4,0,0,1-3.841,0,4.25,4.25,0,0,1,0-4.767Zm3.342.444a1.679,1.679,0,0,0-2.833,0,3.251,3.251,0,0,0-.555,1.935,3.323,3.323,0,0,0,.546,1.944,1.694,1.694,0,0,0,1.426.768,1.666,1.666,0,0,0,1.416-.768,3.665,3.665,0,0,0,0-3.878Z" transform="translate(-1982.929 -737.411)" fill="#fcecdb"/>
          <path id="Path_40033" data-name="Path 40033" d="M2054.962,744.534v-6.479h2.721c1.3,0,2.073.722,2.073,1.8a1.821,1.821,0,0,1-2.073,1.824h-2.036v2.86Zm.685-3.48h1.99c.917,0,1.444-.435,1.444-1.185,0-.768-.527-1.194-1.444-1.194h-1.99Z" transform="translate(-2027.546 -737.944)" fill="#fcecdb"/>
          <path id="Path_40034" data-name="Path 40034" d="M2090.671,744.534v-6.479h.676l2.342,3.138,2.342-3.138h.666v6.479h-.675v-5.443l-2.12,2.832h-.416l-2.138-2.832v5.443Z" transform="translate(-2057.1 -737.944)" fill="#fcecdb"/>
        </g>
        <path id="Path_40035" data-name="Path 40035" d="M1538.867,856.62h-32.761a1.8,1.8,0,0,1-1.8-1.8V815.746C1513.239,826.3,1530.725,846.984,1538.867,856.62Z" transform="translate(-1504.308 -795.519)" fill="#f9e5d1"/>
        <path id="Path_40036" data-name="Path 40036" d="M1620.137,742.315a11.87,11.87,0,0,0-11.87,11.87c0,6.556,11.87,21.13,11.87,21.13s11.87-14.574,11.87-21.13A11.87,11.87,0,0,0,1620.137,742.315Zm0,17.3a5.548,5.548,0,1,1,5.549-5.549A5.548,5.548,0,0,1,1620.137,759.613Z" transform="translate(-1590.348 -734.745)" fill="#f99746"/>
        <g id="Group_211" data-name="Group 211" transform="translate(6.992 47.812)">
          <path id="Path_40037" data-name="Path 40037" d="M1566.669,978.38h-20.495a1.309,1.309,0,0,1-1.305-1.305h0a1.309,1.309,0,0,1,1.305-1.305h20.495a1.309,1.309,0,0,1,1.305,1.305h0A1.309,1.309,0,0,1,1566.669,978.38Z" transform="translate(-1544.869 -975.77)" fill="#efcbab"/>
          <path id="Rectangle_307" data-name="Rectangle 307" d="M1.305,0H16.579a1.305,1.305,0,0,1,1.305,1.305v0A1.305,1.305,0,0,1,16.579,2.61H1.305A1.305,1.305,0,0,1,0,1.305v0A1.305,1.305,0,0,1,1.305,0Z" transform="translate(0 3.915)" fill="#efcbab"/>
        </g>
      </g>
      <g id="Group_221" data-name="Group 221" transform="translate(0 98.749)">
        <path id="Path_40038" data-name="Path 40038" d="M1290.778,1109.916v57.5a1.8,1.8,0,0,1-1.8,1.8H1172.532a1.805,1.805,0,0,1-1.8-1.8v-57.5a1.8,1.8,0,0,1,1.8-1.8h116.446A1.8,1.8,0,0,1,1290.778,1109.916Z" transform="translate(-1170.731 -1108.117)" fill="#fcecdb"/>
        <path id="Path_40039" data-name="Path 40039" d="M1609.855,1109.912v57.5a1.8,1.8,0,0,1-1.8,1.8h-51.792v-61.1h51.792A1.8,1.8,0,0,1,1609.855,1109.912Z" transform="translate(-1489.807 -1108.113)" fill="#f99746"/>
        <g id="Group_215" data-name="Group 215" transform="translate(74.832 13.284)">
          <g id="Group_213" data-name="Group 213" transform="translate(7.468)">
            <path id="Path_40040" data-name="Path 40040" d="M1658.737,1214.9a2.9,2.9,0,0,1-2.506-1.438l-7.654-13.084a2.9,2.9,0,0,1,5.014-2.934l4.91,8.394,9.246-19.023a2.9,2.9,0,0,1,5.225,2.54l-11.621,23.91a2.905,2.905,0,0,1-2.5,1.633Z" transform="translate(-1648.178 -1185.177)" fill="#fcecdb"/>
          </g>
          <g id="Group_214" data-name="Group 214" transform="translate(0 0.396)">
            <path id="Path_40041" data-name="Path 40041" d="M1622.88,1223.532a18.028,18.028,0,1,1,18.028-18.028A18.048,18.048,0,0,1,1622.88,1223.532Zm0-33.943a15.915,15.915,0,1,0,15.915,15.915A15.933,15.933,0,0,0,1622.88,1189.589Z" transform="translate(-1604.852 -1187.477)" fill="#fcecdb"/>
          </g>
        </g>
        <path id="Path_40042" data-name="Path 40042" d="M1204.838,1240.292h-32.306a1.8,1.8,0,0,1-1.8-1.8V1194Z" transform="translate(-1170.731 -1179.192)" fill="#f9e5d1"/>
        <g id="Group_220" data-name="Group 220" transform="translate(9.167 9.974)">
          <g id="Group_217" data-name="Group 217">
            <path id="Path_40043" data-name="Path 40043" d="M1230.369,1165.977a6.457,6.457,0,1,0,6.457,6.457A6.457,6.457,0,0,0,1230.369,1165.977Zm4.472,6.663h-4.472a.206.206,0,0,1-.206-.206v-4.808a.206.206,0,0,1,.412,0v4.6h4.266a.206.206,0,1,1,0,.412Z" transform="translate(-1223.912 -1165.977)" fill="#f99746"/>
            <g id="Group_216" data-name="Group 216" transform="translate(17.881 1.442)">
              <path id="Path_40044" data-name="Path 40044" d="M1349.444,1176.955h-20.495a1.309,1.309,0,0,1-1.305-1.305h0a1.309,1.309,0,0,1,1.305-1.305h20.495a1.309,1.309,0,0,1,1.305,1.305h0A1.309,1.309,0,0,1,1349.444,1176.955Z" transform="translate(-1327.644 -1174.345)" fill="#efcbab"/>
              <rect id="Rectangle_308" data-name="Rectangle 308" width="17.884" height="2.61" rx="1.305" transform="translate(0 3.915)" fill="#efcbab"/>
            </g>
          </g>
          <g id="Group_219" data-name="Group 219" transform="translate(0 24.992)">
            <path id="Path_40045" data-name="Path 40045" d="M1229.724,1310.965a5.812,5.812,0,0,0-5.812,5.812c0,3.21,5.812,10.347,5.812,10.347s5.813-7.137,5.813-10.347A5.812,5.812,0,0,0,1229.724,1310.965Zm0,8.47a2.717,2.717,0,1,1,2.717-2.717A2.717,2.717,0,0,1,1229.724,1319.435Z" transform="translate(-1223.912 -1310.965)" fill="#f99746"/>
            <g id="Group_218" data-name="Group 218" transform="translate(16.322 1.627)">
              <path id="Path_40046" data-name="Path 40046" d="M1340.4,1323.012h-20.495a1.309,1.309,0,0,1-1.305-1.305h0a1.309,1.309,0,0,1,1.305-1.305H1340.4a1.309,1.309,0,0,1,1.305,1.305h0A1.309,1.309,0,0,1,1340.4,1323.012Z" transform="translate(-1318.603 -1320.402)" fill="#efcbab"/>
              <rect id="Rectangle_309" data-name="Rectangle 309" width="17.884" height="2.61" rx="1.305" transform="translate(0 3.916)" fill="#efcbab"/>
            </g>
          </g>
        </g>
      </g>
      <g id="Group_235" data-name="Group 235" transform="translate(157.196 14.852)">
        <path id="Path_40086" data-name="Path 40086" d="M2091.555,806.365s-1.909-6.16-2.993-6.822-5.605-2.891-5.875-2.289,2.441,3.528,3.044,4.5.9,1.94.482,1.518-2.71-1.832-2.951-1.518,1.145,1.518,1.807,2.482,1.385,2.59,3.734,2.951S2091.555,806.365,2091.555,806.365Z" transform="translate(-2082.668 -766.857)" fill="#ffb27d"/>
        <path id="Path_40087" data-name="Path 40087" d="M2504.342,1146.015s-.573,5.565-1.2,6.617-3.3,4.416-4.441,5.076.7-4.432.464-5.423-.938,1.808-1.44,1.874-.373-2.453-.391-3.37,2.443-3.18,3.311-5.132S2504.342,1146.015,2504.342,1146.015Z" transform="translate(-2425.854 -1054.64)" fill="#ffb27d"/>
        <path id="Path_40088" data-name="Path 40088" d="M2167.456,816.289s-4.626,22.709-30.088,30.129c-7.949,2.316-26-23.851-26-23.851s.635-2.412,4.612-1.858c0,0,17.581,11.639,19.795,12.9,1.964,1.122,14.88-14.422,20.768-16.93A15.027,15.027,0,0,1,2167.456,816.289Z" transform="translate(-2106.417 -782.006)" fill="#233862"/>
        <g id="Group_234" data-name="Group 234" transform="translate(34.119 85.683)">
          <path id="Path_40089" data-name="Path 40089" d="M2558.179,1641.906s3.159,2.883,2.542,4.931-3.467,3.414-3.852,5.917-1.926,3.869-3.313,3.869h-6.611s-1.021-1.761,1.445-2.293,3.395-3.473,3.241-6.2a48.123,48.123,0,0,1,.231-6.372l5.239-1.214Z" transform="translate(-2500.861 -1550.549)" fill="#233862"/>
          <path id="Path_40090" data-name="Path 40090" d="M2299.171,1679.524s.567,6.56-.82,7.243l-17.747-.036s0-2.048,2.85-2.5,7.859-2.124,8.706-5.841S2299.171,1679.524,2299.171,1679.524Z" transform="translate(-2280.604 -1580.711)" fill="#233862"/>
          <path id="Path_40091" data-name="Path 40091" d="M2301.392,1146.467s.936,11.5,2.036,25.323c1.5,18.777,3.293,41.842,3.472,46.211.307,7.587,1.541,19.724,1.541,19.724s2.926,2.883,8.783,1.668a195.836,195.836,0,0,0,6.709-35.656c.023-.3.046-.6.07-.906,1.386-18.661,3.543-57.956,3.543-57.956Z" transform="translate(-2297.809 -1140.323)" fill="#f99746"/>
          <path id="Path_40092" data-name="Path 40092" d="M2301.392,1146.467s.936,11.5,2.036,25.323l20.505,31.947c.023-.3.046-.6.07-.906,1.386-18.661,3.543-57.956,3.543-57.956Z" transform="translate(-2297.809 -1140.323)" fill="#ed7d2b"/>
          <path id="Path_40093" data-name="Path 40093" d="M2326.19,1125.981s16.872,41.646,27.966,61.218,14.561,25.033,14.561,25.033,6.356-2.5,6.934-4.21c0,0-4.242-37.783-11.672-46.994-4.2-5.2-9.129-20.823-9.36-26.285s-1.5-16.272-1.5-16.272Z" transform="translate(-2318.332 -1118.471)" fill="#f99746"/>
        </g>
        <path id="Path_40094" data-name="Path 40094" d="M2368.562,723.3s-11.416,5.508-18,3.464a15.534,15.534,0,0,1,4.455-3.564c-.228-1.321-.4-2.467-.506-3.439a31.781,31.781,0,0,1-.278-3.514l4.4-3.464,4.177-3.315C2362.487,718.786,2368.562,723.3,2368.562,723.3Z" transform="translate(-2304.386 -694.285)" fill="#ffb27d"/>
        <path id="Path_40095" data-name="Path 40095" d="M2329.324,836.085c.026.7-1.467,1.5-2.127,1.794a46.573,46.573,0,0,1-14.6,4.138c-6.1.623-13.314-.748-15.8-.7a1.028,1.028,0,0,1-.683-.275c-.177-.125-.3-7.477-.177-16.724,0-.372,0-.746.025-1.12v-.125c.051-3.614.177-7.4.354-11.191.355-8.324,1.014-16.35,2.127-20.786a22.538,22.538,0,0,1,7.139-11.217l2.276-1.993a10.956,10.956,0,0,0,7.088-.847c2.632-1.27,5.468-2.642,5.923-2.293,3.442,2.517,5.771,8.174,7.012,15.4.005.036.012.07.018.107a80.34,80.34,0,0,1,1.02,13.6c0,1.8-.051,3.639-.152,5.458a162.459,162.459,0,0,0,.164,20.665c.065,1,.132,1.921.19,2.739C2329.223,834.166,2329.3,835.288,2329.324,836.085Z" transform="translate(-2259.133 -748.27)" fill="#2a4e96"/>
        <path id="Path_40096" data-name="Path 40096" d="M2435.821,904.713c-18.923-21.848-7.184-37.727-7.184-37.727l6.152-2a80.317,80.317,0,0,1,1.019,13.6c0,1.8-.051,3.639-.151,5.458A162.505,162.505,0,0,0,2435.821,904.713Z" transform="translate(-2366.022 -823.001)" fill="#233862"/>
        <path id="Path_40097" data-name="Path 40097" d="M2380.514,728.945s-2.886,5.259-8.378,6.729a31.756,31.756,0,0,1-.279-3.514l4.4-3.464Z" transform="translate(-2322.008 -710.201)" fill="#ed985f"/>
        <path id="Path_40098" data-name="Path 40098" d="M2350,662.736s10.89,1.781,11.912-4.914,3.116-10.974-3.794-12.394-8.654.934-9.547,3.087S2347.2,662.1,2350,662.736Z" transform="translate(-2302.163 -640.929)" fill="#ffb27d"/>
        <path id="Path_40099" data-name="Path 40099" d="M2348.977,625.1c.1-.113.327-.2.835-.233a2.059,2.059,0,0,0-.948-.267,2.554,2.554,0,0,0-1.7-2.258,1.523,1.523,0,0,1,.738,1.1c-1.407-1.445-4.421-2.5-12.767-1.837-11,.868-7.374,7.911-5.95,8.75s5.008-1.462,7.662-1.251,3.157,4.044,4.057,4.57.546-.4,1.764-.955,1.333,1.467.982,2.779,1.322,3.043,1.322,3.043l1.691-1.821c1.691-1.821,3.284-9.534,2.515-11.178C2349.114,625.395,2349.047,625.248,2348.977,625.1Z" transform="translate(-2285.266 -621.402)" fill="#2c3a64"/>
        <path id="Path_40100" data-name="Path 40100" d="M2415.755,774.691s6.89,3.263,10.194,8.279c5.125,7.781,11.065,36.137,11.175,38.763s-4.336,21.164-4.336,21.164-4.508-.3-5.671-2.573c0,0,.9-19.048.33-20.272s-18.8-25.551-16.746-30.742S2415.755,774.691,2415.755,774.691Z" transform="translate(-2354.022 -748.268)" fill="#2a4e96"/>
      </g>
      <rect id="Rectangle_313" data-name="Rectangle 313" width="35.774" height="9.813" rx="4.906" transform="translate(130.308 74.098)" fill="#fcecdb"/>
      <g id="Group_238" data-name="Group 238" transform="translate(144.773 75.604)">
        <g id="Group_236" data-name="Group 236" transform="translate(1.394)">
          <path id="Path_40101" data-name="Path 40101" d="M2020.654,979.386a.543.543,0,0,1-.468-.268l-1.428-2.442a.542.542,0,1,1,.936-.547l.916,1.566,1.725-3.549a.542.542,0,0,1,.975.474l-2.168,4.461a.542.542,0,0,1-.467.3Z" transform="translate(-2018.684 -973.841)" fill="#f99746"/>
        </g>
        <g id="Group_237" data-name="Group 237" transform="translate(0 0.074)">
          <path id="Path_40102" data-name="Path 40102" d="M2013.963,981a3.364,3.364,0,1,1,3.364-3.364A3.367,3.367,0,0,1,2013.963,981Zm0-6.333a2.97,2.97,0,1,0,2.97,2.97A2.973,2.973,0,0,0,2013.963,974.664Z" transform="translate(-2010.6 -974.27)" fill="#f99746"/>
        </g>
      </g>
    </g>
  </g>
</svg>
