<?xml version="1.0" encoding="utf-8"?>
<!-- Generator: Adobe Illustrator 25.2.0, SVG Export Plug-In . SVG Version: 6.00 Build 0)  -->
<svg version="1.1" id="add_client" xmlns="http://www.w3.org/2000/svg" xmlns:xlink="http://www.w3.org/1999/xlink" x="0px" y="0px"
	 viewBox="0 0 34.3 25.5" style="enable-background:new 0 0 34.3 25.5;" xml:space="preserve">
<path id="Path_40697" d="M22.4,0L22.4,0c-3.7,0-6.6,3-6.6,6.7c0,3.6,2.9,6.6,6.5,6.6c1.8,0,3.6-0.6,4.9-1.9c1.3-1.3,2-3,1.9-4.8
	C29.1,2.9,26.1,0,22.4,0z M26.1,10.4c-1,0.9-2.2,1.5-3.6,1.5h-0.1c-2.8,0-5.1-2.3-5.1-5.2c0-1.4,0.5-2.7,1.5-3.6
	c1-1,2.3-1.6,3.7-1.6c1.4,0,2.7,0.6,3.7,1.6c1,1,1.5,2.3,1.5,3.7C27.7,8.1,27.1,9.4,26.1,10.4z"/>
<path id="Path_40698" d="M18.2,16.3c2.6,0,5.4,0,8.5,0c3.2-0.2,6,2.3,6.1,5.5c0,0.2,0,0.4,0,0.6c0,0.7,0,1.5,0,2.2v0.8h1.5v-0.8
	c0-0.8,0-1.5,0-2.3c0.2-4-2.9-7.4-6.9-7.5c-0.2,0-0.4,0-0.6,0c-1,0-2.1,0-3.1,0c-1.7,0-3.5,0-5.2,0c-2.7-0.2-5.2,1.1-6.7,3.4
	c-1.2,1.9-1.2,3.9-1.1,6c0,0.4,0,0.8,0,1.3h1.4v-0.9c0-0.8,0-1.6,0-2.3c-0.1-3.2,2.4-5.9,5.6-6C17.8,16.3,18,16.3,18.2,16.3z"/>
<path id="Path_40699" d="M11.4,11.5c0-0.1,0-0.1,0-0.1h-5V6.4H4.9v5H0v1.4h5v5h1.4v-5h0.3h1.1c0.8,0,1.6,0,2.3,0
	c0.6,0,1.1,0,1.2-0.1S11.4,12.1,11.4,11.5z"/>
</svg>
