<?xml version="1.0" encoding="utf-8"?>
<!-- Generator: Adobe Illustrator 25.2.0, SVG Export Plug-In . SVG Version: 6.00 Build 0)  -->
<svg version="1.1" id="approved" xmlns="http://www.w3.org/2000/svg" xmlns:xlink="http://www.w3.org/1999/xlink" x="0px" y="0px"
	 viewBox="0 0 65.6 65.6" style="enable-background:new 0 0 65.6 65.6;" xml:space="preserve">
<style type="text/css">
	.st0{fill:#F5F8FA;}
	.st1{fill:#FFBC53;}
	.st2{fill:#FFFFFF;}
	.st3{fill:#5CC1FF;}
	.st4{fill:#FFCDAC;}
	.st5{fill:#7ACCFF;}
	.st6{fill:#95E540;}
</style>
<path id="Path_40210" class="st0" d="M32.8,0C51,0,65.6,14.7,65.6,32.8S51,65.6,32.8,65.6S0,51,0,32.8c0,0,0,0,0,0
	C0,14.7,14.7,0,32.8,0z"/>
<g id="hired" transform="translate(6 -4.063)">
	<path id="Path_40169" class="st1" d="M12.3,40.8H6.8c-3.2,0-5.7,2.6-5.7,5.7v3.1h17v-3.1C18.1,43.4,15.5,40.8,12.3,40.8
		C12.3,40.8,12.3,40.8,12.3,40.8z"/>
	<path id="Path_40170" class="st2" d="M12.7,40.8L9.6,44l-3.2-3.2H12.7z"/>
	<path id="Path_40171" class="st3" d="M8.7,30.9h4.6v2.3c0,1.2-1,2.2-2.2,2.2h0H5.8v-1.6C5.8,32.1,7.1,30.9,8.7,30.9z"/>
	<path id="Path_40172" class="st4" d="M13.3,35.3v1.8c0,2.1-1.7,3.7-3.7,3.7l0,0c-2.1,0-3.7-1.7-3.7-3.7v-1.8H13.3z"/>
	<path id="Path_40173" class="st5" d="M46.4,40.8h-5.6c-3.2,0-5.7,2.6-5.7,5.7v3.1h17v-3.1C52.2,43.4,49.6,40.8,46.4,40.8
		C46.4,40.8,46.4,40.8,46.4,40.8z"/>
	<path id="Path_40174" class="st2" d="M46.8,40.8L43.6,44l-3.2-3.2H46.8z"/>
	<path id="Path_40175" class="st3" d="M42.7,30.9h4.6v2.3c0,1.2-1,2.2-2.2,2.2l0,0h-5.3v-1.6C39.9,32.1,41.2,30.9,42.7,30.9z"/>
	<path id="Path_40176" class="st4" d="M47.4,35.3v1.8c0,2.1-1.7,3.7-3.7,3.7l0,0c-2.1,0-3.7-1.7-3.7-3.7v-1.8H47.4z"/>
	<path id="Path_40177" class="st6" d="M30.4,37.7h-7.6c-4.3,0-7.8,3.5-7.8,7.8v4.2h23.2v-4.2C38.2,41.2,34.7,37.7,30.4,37.7z"/>
	<path id="Path_40178" class="st2" d="M30.9,37.7L26.6,42l-4.3-4.3H30.9z"/>
	<path id="Path_40179" class="st1" d="M25.4,24.1h6.3v3.1c0,1.6-1.3,2.9-2.9,2.9l0,0h-7.2V28C21.5,25.8,23.2,24.1,25.4,24.1
		C25.4,24.1,25.4,24.1,25.4,24.1z"/>
	<path id="Path_40180" class="st4" d="M31.7,30.2v2.4c0,2.8-2.3,5.1-5.1,5.1l0,0c-2.8,0-5.1-2.3-5.1-5.1v-2.4H31.7z"/>
	<path id="Path_40181" d="M47.5,39.9c0.6-0.8,0.9-1.8,0.9-2.8v-6.2c0-0.6-0.5-1-1-1h0h-4.6c-2.1,0-3.9,1.7-3.9,3.9v3.4
		c0,1,0.3,2,0.9,2.8c-0.7,0.1-1.4,0.3-2,0.7c-1.5-2.2-3.9-3.6-6.5-3.9l0,0c1-1.1,1.6-2.6,1.6-4.1v-8.5c0-0.6-0.5-1-1-1c0,0,0,0,0,0
		h-6.3c-2.7,0-4.9,2.2-4.9,4.9v4.6c0,1.5,0.6,3,1.6,4.1l0,0c-2.7,0.2-5,1.7-6.5,3.9c-0.6-0.3-1.3-0.6-2-0.7c0.6-0.8,0.9-1.8,0.9-2.8
		v-6.2c0-0.6-0.5-1-1-1h0H8.7c-2.1,0-3.9,1.7-3.9,3.9v3.4c0,1,0.3,2,0.9,2.8C2.4,40.4,0,43.3,0,46.6v3.1c0,0.6,0.5,1,1,1
		c0,0,0,0,0,0h51.1c0.6,0,1-0.5,1-1c0,0,0,0,0,0v-3.1C53.2,43.3,50.8,40.4,47.5,39.9z M46.3,37.1c0,1.5-1.2,2.7-2.7,2.8
		c-1.5,0-2.7-1.2-2.8-2.7c0,0,0-0.1,0-0.1v-0.7h4.3c0.4,0,0.8-0.1,1.1-0.2V37.1L46.3,37.1z M44.3,41.9l-0.7,0.7L43,41.9H44.3z
		 M40.9,33.7c0-1,0.8-1.8,1.8-1.8h3.6v1.3c0,0.6-0.5,1.1-1.1,1.1h-4.3L40.9,33.7z M22.5,31.2h6.2c0.7,0,1.3-0.2,1.9-0.5v1.9
		c0,2.2-1.8,4.1-4.1,4.1s-4.1-1.8-4.1-4.1c0,0,0,0,0,0L22.5,31.2L22.5,31.2z M28.4,38.7l-1.8,1.8l-1.8-1.8L28.4,38.7z M22.5,28
		c0-1.6,1.3-2.8,2.8-2.8h5.3v2.1c0,1-0.9,1.9-1.9,1.9h-6.2L22.5,28L22.5,28z M12.3,37.1c0,1.5-1.2,2.7-2.7,2.8s-2.7-1.2-2.8-2.7
		c0,0,0-0.1,0-0.1v-0.7h4.3c0.4,0,0.8-0.1,1.1-0.2V37.1z M10.2,41.9l-0.7,0.7l-0.7-0.7H10.2z M6.8,33.7c0-1,0.8-1.8,1.8-1.8h3.6v1.3
		c0,0.6-0.5,1.1-1.1,1.1H6.8L6.8,33.7z M2.1,46.6c0-2.3,1.7-4.3,3.9-4.6l2.8,2.8c0.4,0.4,1.1,0.4,1.5,0l2.8-2.8
		c0.5,0.1,1,0.2,1.4,0.5c-0.4,1-0.5,2-0.5,3.1v3.1H2.1V46.6z M35.1,48.6H16.1v-2.1h6.8c0.6,0,1-0.5,1-1s-0.5-1-1-1h-6.7
		c0.5-3,2.8-5.3,5.8-5.7l4,4c0.4,0.4,1.1,0.4,1.5,0l4-4c3.3,0.5,5.8,3.3,5.9,6.7v3.1L35.1,48.6z M51.1,48.6H39.2v-3.1
		c0-1-0.2-2.1-0.5-3.1c0.4-0.2,0.9-0.4,1.4-0.5l2.8,2.8c0.4,0.4,1.1,0.4,1.5,0l2.8-2.8c2.3,0.4,3.9,2.3,3.9,4.6L51.1,48.6L51.1,48.6
		z"/>
	<path id="Path_40185" d="M26.6,44.5c-0.6,0-1,0.5-1,1c0,0.6,0.5,1,1,1s1-0.5,1-1c0-0.3-0.1-0.5-0.3-0.7
		C27.1,44.6,26.9,44.5,26.6,44.5z"/>
</g>
</svg>
