<?xml version="1.0" encoding="utf-8"?>
<!-- Generator: Adobe Illustrator 25.2.0, SVG Export Plug-In . SVG Version: 6.00 Build 0)  -->
<svg version="1.1" id="Layer_1" xmlns="http://www.w3.org/2000/svg" xmlns:xlink="http://www.w3.org/1999/xlink" x="0px" y="0px"
	 viewBox="0 0 44.2 44.2" style="enable-background:new 0 0 44.2 44.2;" xml:space="preserve">
<style type="text/css">
	.st0{fill:#23D08B;}
</style>
<g id="check" transform="translate(0 74)">
	<g id="Group_351">
		<path id="Path_40237" class="st0" d="M22.1-74C9.9-74,0-64.1,0-51.9s9.9,22.1,22.1,22.1s22.1-9.9,22.1-22.1S34.3-74,22.1-74
			C22.1-74,22.1-74,22.1-74z M34.3-58.7L18.5-42.9c-0.6,0.6-1.6,0.6-2.2,0l-6.3-6.3c-0.6-0.6-0.7-1.6-0.1-2.2
			c0.6-0.6,1.6-0.7,2.2-0.1c0,0,0,0,0,0l0,0l5.2,5.2L32-60.9c0.6-0.6,1.6-0.6,2.2,0C34.9-60.3,34.9-59.3,34.3-58.7L34.3-58.7z"/>
	</g>
</g>
</svg>
