<?xml version="1.0" encoding="utf-8"?>
<!-- Generator: Adobe Illustrator 25.2.3, SVG Export Plug-In . SVG Version: 6.00 Build 0)  -->
<svg version="1.1" id="Layer_1" xmlns="http://www.w3.org/2000/svg" xmlns:xlink="http://www.w3.org/1999/xlink" x="0px" y="0px"
	 viewBox="0 0 22.62 21.51" style="enable-background:new 0 0 22.62 21.51;" xml:space="preserve">
<style type="text/css">
	.st0{fill:#768C90;}
</style>
<g id="filter_2_" transform="translate(57)">
	<path id="Path_40713" class="st0" d="M-35.3,1.89h-13.47c-0.49-1.45-2.07-2.24-3.52-1.75c-0.82,0.28-1.47,0.92-1.75,1.75h-2.1
		c-0.49,0.02-0.87,0.43-0.85,0.91c0.02,0.47,0.39,0.84,0.85,0.85h2.1c0.49,1.45,2.06,2.24,3.52,1.75c0.83-0.28,1.47-0.92,1.75-1.75
		h13.48c0.49,0.02,0.9-0.37,0.91-0.85s-0.37-0.9-0.85-0.91C-35.26,1.89-35.28,1.89-35.3,1.89L-35.3,1.89z M-51.41,3.79
		c-0.56,0-1.01-0.45-1.01-1.01c0-0.56,0.45-1.01,1.01-1.01c0.56,0,1.01,0.45,1.01,1.01C-50.4,3.34-50.85,3.79-51.41,3.79z"/>
	<path id="Path_40714" class="st0" d="M-35.3,9.87h-2.1c-0.49-1.45-2.06-2.24-3.52-1.75c-0.83,0.28-1.47,0.93-1.75,1.75h-13.48
		c-0.49,0.02-0.87,0.43-0.85,0.91c0.02,0.47,0.39,0.84,0.85,0.85h13.47c0.49,1.45,2.06,2.24,3.52,1.75
		c0.83-0.28,1.47-0.92,1.75-1.75h2.11c0.49,0.02,0.9-0.37,0.91-0.85s-0.37-0.9-0.85-0.91C-35.26,9.87-35.28,9.87-35.3,9.87
		L-35.3,9.87z M-40.04,11.77c-0.56,0-1.01-0.45-1.01-1.01c0-0.56,0.45-1.01,1.01-1.01s1.01,0.45,1.01,1.01l0,0
		C-39.03,11.31-39.48,11.77-40.04,11.77z"/>
	<path id="Path_40715" class="st0" d="M-35.3,17.85h-9.68c-0.49-1.45-2.07-2.24-3.52-1.75c-0.82,0.28-1.47,0.92-1.75,1.75h-5.89
		c-0.49,0.02-0.87,0.43-0.85,0.91c0.02,0.47,0.39,0.84,0.85,0.85h5.89c0.49,1.45,2.07,2.24,3.52,1.75c0.82-0.28,1.47-0.92,1.75-1.75
		h9.69c0.49,0.02,0.9-0.37,0.91-0.85c0.02-0.49-0.37-0.9-0.85-0.91C-35.26,17.85-35.28,17.85-35.3,17.85L-35.3,17.85z M-47.62,19.74
		c-0.56,0-1.01-0.45-1.01-1.01c0-0.56,0.45-1.01,1.01-1.01c0.56,0,1.01,0.45,1.01,1.01C-46.61,19.29-47.06,19.74-47.62,19.74z"/>
</g>
</svg>
