<?xml version="1.0" encoding="utf-8"?>
<!-- Generator: Adobe Illustrator 25.2.3, SVG Export Plug-In . SVG Version: 6.00 Build 0)  -->
<svg version="1.1" id="Layer_1" xmlns="http://www.w3.org/2000/svg" xmlns:xlink="http://www.w3.org/1999/xlink" x="0px" y="0px"
	 viewBox="0 0 12.8 14.18" style="enable-background:new 0 0 12.8 14.18;" xml:space="preserve">
<style type="text/css">
	.st0{fill:#768C90;}
</style>
<g id="filter_1_">
	<path id="Path_40710" class="st0" d="M4.5,7c0.22,0.32,0.16,0.05,0.16,6.48c0,0.39,0.31,0.7,0.7,0.7c0.15,0,0.3-0.05,0.42-0.14
		c1.98-1.49,2.37-1.62,2.37-2.32C8.14,7.04,8.09,7.31,8.3,7l3.21-4.37H1.29L4.5,7z"/>
	<path id="Path_40711" class="st0" d="M12.72,0.36C12.61,0.14,12.38,0,12.14,0H0.66C0.3,0,0,0.3,0,0.66C0,0.8,0.04,0.93,0.12,1.04
		L0.67,1.8h11.45C12.62,1.11,12.96,0.82,12.72,0.36L12.72,0.36z"/>
</g>
</svg>
