<svg id="Layer_1" data-name="Layer 1" xmlns="http://www.w3.org/2000/svg" viewBox="0 0 27.5 28.74"><defs><style>.cls-1{fill:#30bebf;}</style></defs><g id="Group_325" data-name="Group 325"><path id="Path_40223" data-name="Path 40223" class="cls-1" d="M27.21,12.62,14.42.27a1,1,0,0,0-1.34,0L.29,12.62A1,1,0,0,0,1,14.28h1.7v13.5a1,1,0,0,0,1,1h6.75a1,1,0,0,0,1-1h0V20.06h4.82v7.72a1,1,0,0,0,1,1h6.75a1,1,0,0,0,1-1h0V14.28h1.7a1,1,0,0,0,1-1A.94.94,0,0,0,27.21,12.62Zm-2.37.69a1,1,0,0,0-1,1h0v13.5H17.13V20.06a1,1,0,0,0-1-1H11.34a1,1,0,0,0-1,1h0v7.72H3.63V14.28a1,1,0,0,0-1-1H1L13.75,1,26.54,13.31Z"/></g></svg>