<?xml version="1.0" encoding="utf-8"?>
<!-- Generator: Adobe Illustrator 25.2.0, SVG Export Plug-In . SVG Version: 6.00 Build 0)  -->
<svg version="1.1" id="minus" xmlns="http://www.w3.org/2000/svg" xmlns:xlink="http://www.w3.org/1999/xlink" x="0px" y="0px"
	 viewBox="0 0 24.1 24.1" style="enable-background:new 0 0 24.1 24.1;" xml:space="preserve">
<style type="text/css">
	.st0{fill:#F75B5B;}
	.st1{fill:#FFFFFF;}
</style>
<g id="Group_380">
	<path id="Rectangle_419" class="st0" d="M12,0L12,0c6.7,0,12,5.4,12,12v0c0,6.6-5.4,12-12,12h0c-6.6,0-12-5.4-12-12v0
		C0,5.4,5.4,0,12,0z"/>
</g>
<g id="plus" transform="translate(7.385 11.69)">
	<path id="Path_40252" class="st1" d="M9.1,1.2H0.6C0.3,1.2,0,0.9,0,0.6C0,0.3,0.3,0,0.6,0l0,0h8.5c0.3,0,0.6,0.3,0.6,0.6
		C9.7,0.9,9.4,1.2,9.1,1.2z"/>
</g>
</svg>
