<svg id="Layer_1" data-name="Layer 1" xmlns="http://www.w3.org/2000/svg" viewBox="0 0 19.73 24.3"><defs><style>.cls-1{fill:#3cc0c1;}</style></defs><g id="clipboard"><path class="cls-1" d="M16.78,24.3H3a3,3,0,0,1-2.95-3V5.21A3,3,0,0,1,3,2.26h2.3a.65.65,0,0,1,0,1.3H3A1.65,1.65,0,0,0,1.3,5.21V21.34A1.65,1.65,0,0,0,3,23H16.78a1.65,1.65,0,0,0,1.65-1.65V5.21a1.65,1.65,0,0,0-1.65-1.65h-2.3a.65.65,0,0,1,0-1.3h2.3a3,3,0,0,1,2.95,3V21.34A3,3,0,0,1,16.78,24.3Z"/><path class="cls-1" d="M14.65,6.3h-9A.65.65,0,0,1,5,5.65v-5A.65.65,0,0,1,5.65,0h9a.65.65,0,0,1,.65.65v5A.65.65,0,0,1,14.65,6.3ZM6.3,5H14V1.3H6.3Z"/></g></svg>