<svg id="Layer_1" data-name="Layer 1" xmlns="http://www.w3.org/2000/svg" viewBox="0 0 30.73 30.73"><defs><style>.cls-1{fill:#3cc0c1;}</style></defs><path id="Path_40687" data-name="Path 40687" class="cls-1" d="M11.55,26.89H3.2A3.2,3.2,0,0,1,0,23.69H0V3.2A3.2,3.2,0,0,1,3.2,0H18.57a3.2,3.2,0,0,1,3.2,3.2h0V11a.64.64,0,0,1-.64.64.64.64,0,0,1-.64-.64V3.2a1.92,1.92,0,0,0-1.92-1.92H3.2A1.92,1.92,0,0,0,1.28,3.2V23.69A1.92,1.92,0,0,0,3.2,25.61h8.35a.64.64,0,0,1,0,1.28Z"/><path id="Path_40688" data-name="Path 40688" class="cls-1" d="M17.29,11.52H4.48a.64.64,0,0,1-.64-.64.64.64,0,0,1,.64-.64h12.8a.64.64,0,0,1,.64.64.63.63,0,0,1-.64.64h0Z"/><path id="Path_40689" data-name="Path 40689" class="cls-1" d="M12.16,16.65H4.48A.64.64,0,0,1,3.84,16a.64.64,0,0,1,.64-.64h7.68a.64.64,0,1,1,0,1.28Z"/><path id="Path_40690" data-name="Path 40690" class="cls-1" d="M10.88,6.4H4.48a.64.64,0,0,1-.64-.64.64.64,0,0,1,.64-.64h6.4a.64.64,0,0,1,.64.64.63.63,0,0,1-.64.64Z"/><path id="Path_40691" data-name="Path 40691" class="cls-1" d="M22.41,30.73a8.32,8.32,0,1,1,8.32-8.32h0A8.33,8.33,0,0,1,22.41,30.73Zm0-15.37a7,7,0,1,0,7,7.05A7,7,0,0,0,22.41,15.36Z"/><path id="Path_40692" data-name="Path 40692" class="cls-1" d="M22.41,26.89a.64.64,0,0,1-.64-.64V18.57a.64.64,0,0,1,1.28,0v7.68a.64.64,0,0,1-.64.64Z"/><path id="Path_40693" data-name="Path 40693" class="cls-1" d="M26.25,23.05H18.57a.64.64,0,0,1,0-1.28h7.68a.64.64,0,0,1,.64.64A.64.64,0,0,1,26.25,23.05Z"/></svg>