<?xml version="1.0" encoding="utf-8"?>
<!-- Generator: Adobe Illustrator 25.2.0, SVG Export Plug-In . SVG Version: 6.00 Build 0)  -->
<svg version="1.1" id="new_service_request" xmlns="http://www.w3.org/2000/svg" xmlns:xlink="http://www.w3.org/1999/xlink"
	 x="0px" y="0px" viewBox="0 0 31.3 31.3" style="enable-background:new 0 0 31.3 31.3;" xml:space="preserve">
<style type="text/css">
	.st0{fill:#FFFFFF;}
</style>
<path id="Path_40687" class="st0" d="M11.8,27.4H3.3c-1.8,0-3.3-1.5-3.3-3.3V3.3C0,1.5,1.5,0,3.3,0h15.6c1.8,0,3.3,1.5,3.3,3.3v7.9
	c0,0.4-0.3,0.7-0.6,0.7c-0.4,0-0.7-0.3-0.7-0.6c0,0,0,0,0-0.1V3.3c0-1.1-0.9-2-2-2l0,0H3.3c-1.1,0-2,0.9-2,2l0,0v20.8
	c0,1.1,0.9,2,2,2h8.5c0.4,0,0.6,0.3,0.6,0.7C12.3,27.1,12.1,27.3,11.8,27.4L11.8,27.4z"/>
<path id="Path_40688" class="st0" d="M17.6,11.7h-13c-0.4,0-0.6-0.3-0.6-0.7c0-0.3,0.3-0.6,0.6-0.6h13c0.4,0,0.7,0.3,0.7,0.6
	C18.3,11.4,18,11.7,17.6,11.7C17.6,11.7,17.6,11.7,17.6,11.7z"/>
<path id="Path_40689" class="st0" d="M12.4,16.9H4.6c-0.4,0-0.6-0.3-0.6-0.7c0-0.3,0.3-0.6,0.6-0.6h7.8c0.4,0,0.6,0.3,0.6,0.7
	C13,16.7,12.7,16.9,12.4,16.9z"/>
<path id="Path_40690" class="st0" d="M11.1,6.5H4.6c-0.4,0-0.7-0.3-0.7-0.6c0-0.4,0.3-0.7,0.6-0.7c0,0,0,0,0.1,0h6.5
	c0.4,0,0.7,0.3,0.7,0.6C11.8,6.2,11.5,6.5,11.1,6.5C11.1,6.5,11.1,6.5,11.1,6.5L11.1,6.5z"/>
<path id="Path_40691" class="st0" d="M22.8,31.3c-4.7,0-8.5-3.8-8.5-8.5s3.8-8.5,8.5-8.5s8.5,3.8,8.5,8.5l0,0
	C31.3,27.5,27.5,31.3,22.8,31.3z M22.8,15.6c-4,0-7.2,3.2-7.2,7.2s3.2,7.2,7.2,7.2s7.2-3.2,7.2-7.2l0,0C30,18.8,26.8,15.6,22.8,15.6
	L22.8,15.6z"/>
<path id="Path_40692" class="st0" d="M22.8,27.4c-0.4,0-0.7-0.3-0.7-0.7v-7.8c0-0.4,0.3-0.6,0.7-0.6c0.3,0,0.6,0.3,0.6,0.6v7.8
	C23.4,27.1,23.2,27.4,22.8,27.4z"/>
<path id="Path_40693" class="st0" d="M26.7,23.4h-7.8c-0.4,0-0.6-0.3-0.6-0.7c0-0.3,0.3-0.6,0.6-0.6h7.8c0.4,0,0.6,0.3,0.6,0.7
	C27.3,23.2,27,23.4,26.7,23.4z"/>
</svg>
