<?xml version="1.0" encoding="utf-8"?>
<!-- Generator: Adobe Illustrator 25.2.3, SVG Export Plug-In . SVG Version: 6.00 Build 0)  -->
<svg version="1.1" id="Layer_1" xmlns="http://www.w3.org/2000/svg" xmlns:xlink="http://www.w3.org/1999/xlink" x="0px" y="0px"
	 viewBox="0 0 21.75 21.75" style="enable-background:new 0 0 21.75 21.75;" xml:space="preserve">
<style type="text/css">
	.st0{fill:#607072;}
</style>
<g id="phone" transform="translate(0.123)">
	<g id="Group_250">
		<path id="Path_40108" class="st0" d="M21.06,16.78l-4.4-2.94c-0.56-0.37-1.31-0.25-1.72,0.28l-1.28,1.65
			c-0.16,0.22-0.46,0.28-0.7,0.15l-0.24-0.14c-1.44-0.79-2.74-1.81-3.84-3.02c-1.21-1.1-2.24-2.4-3.02-3.84L5.71,8.68
			c-0.13-0.24-0.07-0.53,0.14-0.7l1.65-1.29c0.53-0.41,0.65-1.16,0.28-1.72l-2.94-4.4C4.47,0,3.71-0.17,3.13,0.18L1.28,1.29
			c-0.58,0.34-1,0.89-1.18,1.54c-0.66,2.42-0.16,6.59,5.98,12.73c4.89,4.89,8.52,6.2,11.02,6.2c0.57,0,1.15-0.07,1.7-0.22
			c0.65-0.18,1.2-0.61,1.54-1.18l1.11-1.84C21.8,17.92,21.63,17.16,21.06,16.78z M20.82,18.13l-1.1,1.84
			c-0.24,0.42-0.64,0.72-1.11,0.86c-2.23,0.61-6.13,0.1-12.02-5.79S0.19,5.25,0.8,3.02c0.13-0.47,0.44-0.86,0.86-1.11l1.84-1.1
			c0.25-0.15,0.58-0.08,0.75,0.17l1.6,2.39l1.33,2.01c0.16,0.24,0.11,0.57-0.12,0.75L5.41,7.41c-0.5,0.38-0.64,1.08-0.33,1.63
			l0.13,0.24c0.82,1.5,1.88,2.86,3.14,4.01c1.15,1.26,2.51,2.32,4.01,3.14l0.24,0.13c0.55,0.31,1.25,0.17,1.63-0.34l1.28-1.65
			c0.18-0.23,0.5-0.28,0.75-0.12l4.4,2.94C20.9,17.55,20.98,17.88,20.82,18.13L20.82,18.13z"/>
		<path id="Path_40109" class="st0" d="M12.2,3.63c3.4,0,6.16,2.76,6.16,6.16c-0.01,0.2,0.14,0.37,0.34,0.38
			c0.2,0.01,0.37-0.14,0.38-0.34c0-0.01,0-0.03,0-0.04c-0.01-3.8-3.09-6.88-6.89-6.89c-0.2,0.01-0.35,0.18-0.34,0.38
			C11.87,3.47,12.02,3.62,12.2,3.63z"/>
		<path id="Path_40110" class="st0" d="M12.2,5.8c2.2,0,3.99,1.79,3.99,3.99c-0.01,0.2,0.14,0.37,0.34,0.38
			c0.2,0.01,0.37-0.14,0.38-0.34c0-0.01,0-0.03,0-0.04c0-2.6-2.11-4.71-4.71-4.71c-0.2,0.01-0.35,0.18-0.34,0.38
			C11.87,5.64,12.02,5.79,12.2,5.8z"/>
		<path id="Path_40111" class="st0" d="M12.2,7.98c1,0,1.81,0.81,1.81,1.81c-0.01,0.2,0.14,0.37,0.34,0.38
			c0.2,0.01,0.37-0.14,0.38-0.34c0-0.01,0-0.03,0-0.04c0-1.4-1.14-2.54-2.54-2.54C12,7.24,11.83,7.4,11.82,7.6
			c-0.01,0.2,0.14,0.37,0.34,0.38C12.18,7.98,12.19,7.98,12.2,7.98L12.2,7.98z"/>
	</g>
</g>
</svg>
