<?xml version="1.0" encoding="utf-8"?>
<!-- Generator: Adobe Illustrator 25.2.0, SVG Export Plug-In . SVG Version: 6.00 Build 0)  -->
<svg version="1.1" id="printer" xmlns="http://www.w3.org/2000/svg" xmlns:xlink="http://www.w3.org/1999/xlink" x="0px" y="0px"
	 viewBox="0 0 23.1 23.1" style="enable-background:new 0 0 23.1 23.1;" xml:space="preserve">
<style type="text/css">
	.st0{fill:#90BAE1;}
	.st1{fill:#BDC3C7;}
	.st2{fill:#2C3E50;}
	.st3{fill:#4482C3;}
	.st4{fill:#285680;}
	.st5{fill:#CC4B4C;}
	.st6{fill:#4FBA6F;}
</style>
<g id="_004---Printer">
	<path id="Shape" class="st0" d="M7.2,4.8H4.9C4.3,4.8,3.8,5,3.4,5.4L0,9.2l11.3,1.2l11.8-1.2l-3.4-3.7c-0.4-0.4-0.9-0.7-1.5-0.7
		h-2.3"/>
	<path id="Shape-2" class="st1" d="M7.6,0h8C15.8,0,16,0.2,16,0.4v6.8H7.2V0.4C7.2,0.2,7.4,0,7.6,0z"/>
	<path id="Shape-3" class="st2" d="M16.7,7.6H6.4C6.2,7.6,6,7.4,6,7.2s0.2-0.4,0.4-0.4c0,0,0,0,0,0h10.4c0.2,0,0.4,0.2,0.4,0.4
		C17.1,7.4,17,7.6,16.7,7.6C16.7,7.6,16.7,7.6,16.7,7.6z"/>
	<path id="Shape-4" d="M14.8,19.1H8.4C8.2,19.1,8,19,8,18.7c0-0.2,0.2-0.4,0.4-0.4h6.4c0.2,0,0.4,0.2,0.4,0.4
		C15.2,19,15,19.1,14.8,19.1L14.8,19.1z"/>
	<path id="Shape-5" class="st3" d="M17.5,18.7h3.6c1.1,0,2-0.9,2-2V9.2H0v7.6c0,1.1,0.9,2,2,2h3.6"/>
	<path id="Shape-6" class="st2" d="M5.6,18.7H5.2v-3.6c0-1.8,1.4-3.2,3.2-3.2h6.4c1.8,0,3.2,1.4,3.2,3.2v3.6h-0.4"/>
	<path id="Shape-7" d="M14.8,19.1H8.4C8.2,19.1,8,19,8,18.7c0-0.2,0.2-0.4,0.4-0.4h6.4c0.2,0,0.4,0.2,0.4,0.4
		C15.2,19,15,19.1,14.8,19.1L14.8,19.1z"/>
	<ellipse id="Oval" class="st4" cx="20.5" cy="12.1" rx="0.5" ry="1"/>
	<circle id="Oval-2" class="st5" cx="20.5" cy="14.6" r="0.5"/>
	<circle id="Oval-3" class="st6" cx="20.5" cy="15.6" r="0.5"/>
	<circle id="Oval-4" class="st6" cx="20.5" cy="16.6" r="0.5"/>
	<path id="Shape-8" class="st4" d="M7.6,15.5h8c0.4,0,0.8,0.4,0.8,0.8v1.6H6.8v-1.6C6.8,15.9,7.1,15.5,7.6,15.5z"/>
	<path id="Shape-9" class="st0" d="M1.6,11.6c-0.2,0-0.4-0.2-0.4-0.4v-0.4c0-0.2,0.2-0.4,0.4-0.4c0.2,0,0.4,0.2,0.4,0.4v0.4
		C2,11.4,1.8,11.6,1.6,11.6z"/>
	<path id="Shape-10" class="st0" d="M1.6,15.5c-0.2,0-0.4-0.2-0.4-0.4l0,0v-2.4c0-0.2,0.2-0.4,0.4-0.4c0.2,0,0.4,0.2,0.4,0.4v2.4
		C2,15.4,1.8,15.5,1.6,15.5z"/>
	<path id="Shape-11" class="st3" d="M16.2,21.9h2.9c0.2,0,0.4-0.2,0.4-0.4c0-0.1,0-0.2-0.1-0.2l-1.9-2.6l-1.2-1.6H6.8l-1.2,1.6
		l-1.9,2.6c-0.1,0.2-0.1,0.4,0.1,0.6c0.1,0.1,0.2,0.1,0.2,0.1h2.9"/>
	<path id="Shape-12" class="st1" d="M16.1,23.1H7c-0.2,0-0.4-0.2-0.4-0.4c0-0.1,0-0.1,0-0.2L8.3,19c0.1-0.1,0.2-0.2,0.4-0.2h5.9
		c0.2,0,0.3,0.1,0.4,0.2l1.6,3.6c0.1,0.2,0,0.4-0.2,0.5C16.2,23.1,16.2,23.1,16.1,23.1z"/>
	<path id="Shape-13" class="st2" d="M13.2,20.7H10c-0.2,0-0.4-0.2-0.4-0.4s0.2-0.4,0.4-0.4c0,0,0,0,0,0h3.2c0.2,0,0.4,0.2,0.4,0.4
		S13.4,20.7,13.2,20.7C13.2,20.7,13.2,20.7,13.2,20.7L13.2,20.7z"/>
	<path id="Shape-14" class="st2" d="M14,21.9H9.2c-0.2,0-0.4-0.2-0.4-0.4s0.2-0.4,0.4-0.4c0,0,0,0,0,0H14c0.2,0,0.4,0.2,0.4,0.4
		C14.4,21.8,14.2,21.9,14,21.9L14,21.9z"/>
</g>
</svg>
