<svg id="Layer_1" data-name="Layer 1" xmlns="http://www.w3.org/2000/svg" viewBox="0 0 26.49 26.5"><defs><style>.cls-1{fill:#30bebf;}</style></defs><g id="user"><g id="Group_324" data-name="Group 324"><path id="Path_40222" data-name="Path 40222" class="cls-1" d="M13.25,0A13.24,13.24,0,0,0,3,21.68a0,0,0,0,0,0,0,13.26,13.26,0,0,0,5,3.73l.06,0,.47.18.19.07.41.14.26.08.37.11.32.08.33.07.38.08.3,0,.42.06.27,0,.48,0,.22,0,.72,0,.71,0,.22,0,.48,0,.27,0,.42-.06.3,0L16,26.2l.33-.07.32-.08.37-.1.26-.09.41-.14.19-.07c.16,0,.31-.12.47-.18l.06,0a13.26,13.26,0,0,0,5-3.73s0,0,0,0A13.26,13.26,0,0,0,13.25,0Zm5.37,24.39h0c-.15.08-.31.15-.48.22l-.11.05-.42.17-.19.06L17,25l-.25.08-.34.1-.3.07-.32.07-.34.07-.28,0-.39.05-.25,0-.45,0h-.2l-.66,0c-.22,0-.43,0-.65,0h-.2l-.45,0-.25,0-.39-.05-.28,0-.34-.07-.32-.07-.3-.07-.34-.1L9.47,25,9.1,24.9l-.18-.07-.43-.16-.11-.05L7.9,24.4h0a12.44,12.44,0,0,1-4-3.09,9.74,9.74,0,0,1,6.38-6.69l.19.11.11.06.4.2.32.12.06,0a5.57,5.57,0,0,0,3.82,0l.07,0,.32-.12.4-.2.11-.06.19-.11a9.78,9.78,0,0,1,6.38,6.69A12.37,12.37,0,0,1,18.62,24.39ZM8.39,9.72a4.86,4.86,0,1,1,7.5,4.07,4.68,4.68,0,0,1-.54.3l-.06,0a5,5,0,0,1-4.08,0l-.06,0a4.68,4.68,0,0,1-.54-.3A4.87,4.87,0,0,1,8.39,9.72Zm14.9,10.74A10.63,10.63,0,0,0,17.09,14,5.74,5.74,0,1,0,9,13.54a6.09,6.09,0,0,0,.44.44,10.67,10.67,0,0,0-6.21,6.48,12.37,12.37,0,1,1,20.08,0Z"/></g></g></svg>