<?xml version="1.0" encoding="utf-8"?>
<!-- Generator: Adobe Illustrator 25.2.0, SVG Export Plug-In . SVG Version: 6.00 Build 0)  -->
<svg version="1.1" id="Layer_1" xmlns="http://www.w3.org/2000/svg" xmlns:xlink="http://www.w3.org/1999/xlink" x="0px" y="0px"
	 viewBox="0 0 44.2 44.2" style="enable-background:new 0 0 44.2 44.2;" xml:space="preserve">
<style type="text/css">
	.st0{fill:#F44336;}
	.st1{fill:#FAFAFA;}
</style>
<g id="remove">
	<path id="Path_40238" class="st0" d="M22.1,0C9.9,0,0,9.9,0,22.1s9.9,22.1,22.1,22.1s22.1-9.9,22.1-22.1C44.2,9.9,34.3,0,22.1,0z"
		/>
	<path id="Path_40239" class="st1" d="M30.2,27.6c0.8,0.7,0.8,1.8,0.2,2.6c-0.7,0.8-1.8,0.8-2.6,0.2c-0.1-0.1-0.1-0.1-0.2-0.2
		l-5.5-5.5l-5.5,5.5c-0.8,0.7-1.9,0.6-2.6-0.2c-0.6-0.7-0.6-1.7,0-2.4l5.5-5.5L14,16.6c-0.7-0.8-0.6-1.9,0.2-2.6
		c0.7-0.6,1.7-0.6,2.4,0l5.5,5.5l5.5-5.5c0.8-0.7,1.9-0.6,2.6,0.2c0.6,0.7,0.6,1.7,0,2.4l-5.5,5.5L30.2,27.6z"/>
</g>
</svg>
