<?xml version="1.0" encoding="utf-8"?>
<!-- Generator: Adobe Illustrator 25.2.0, SVG Export Plug-In . SVG Version: 6.00 Build 0)  -->
<svg version="1.1" id="invoices" xmlns="http://www.w3.org/2000/svg" xmlns:xlink="http://www.w3.org/1999/xlink" x="0px" y="0px"
	 viewBox="0 0 32.9 37.6" style="enable-background:new 0 0 32.9 37.6;" xml:space="preserve">
<style type="text/css">
	.st0{fill:#121212;}
</style>
<path id="invoices-2" class="st0" d="M14.5,12.9c0,4.5,3.7,8.2,8.2,8.2s8.2-3.7,8.2-8.2s-3.7-8.2-8.2-8.2
	C18.2,4.6,14.5,8.3,14.5,12.9z M29.7,12.9c0,3.9-3.1,7-7,7s-7-3.1-7-7s3.1-7,7-7c0,0,0,0,0,0C26.6,5.9,29.7,9,29.7,12.9L29.7,12.9z
	 M22.7,8.6c0.3,0,0.6,0.3,0.6,0.6v0.3c0.8,0.3,1.3,1,1.3,1.8c0,0.3-0.3,0.6-0.6,0.6c-0.3,0-0.6-0.3-0.6-0.6s-0.3-0.6-0.6-0.6
	c-0.3,0-0.6,0.3-0.6,0.6v0.3c0,0.3,0.2,0.5,0.4,0.6l0.7,0.2c0.8,0.2,1.3,1,1.3,1.8v0.3c0,0.9-0.6,1.7-1.5,1.8v0.2
	c0,0.3-0.3,0.6-0.6,0.6c-0.3,0-0.6-0.3-0.6-0.6v-0.4c-0.6-0.3-1-1-1-1.7c0-0.3,0.3-0.6,0.6-0.6c0.3,0,0.6,0.3,0.6,0.6
	s0.3,0.6,0.6,0.6c0.3,0,0.6-0.3,0.6-0.6l0,0v-0.3c0-0.3-0.2-0.5-0.4-0.6l-0.7-0.2c-0.8-0.2-1.3-1-1.3-1.8v-0.2
	c0-0.8,0.5-1.5,1.3-1.8V9.3C22.1,8.9,22.4,8.6,22.7,8.6C22.7,8.6,22.7,8.6,22.7,8.6z M32.9,25.2v8c0,2.4-2,4.4-4.4,4.4H4.4
	c-2.4,0-4.4-2-4.4-4.4V2.5C0,1.1,1.1,0,2.5,0h20.4c1.4,0,2.5,1.1,2.5,2.5c0,0.3-0.3,0.6-0.6,0.6c-0.3,0-0.6-0.3-0.6-0.6
	c0-0.7-0.6-1.3-1.3-1.3H2.5c-0.7,0-1.3,0.6-1.3,1.3v30.7c0,1.7,1.4,3.1,3.1,3.1h21.1c-0.8-0.8-1.3-2-1.3-3.1v-9.8
	c0-0.3,0.3-0.6,0.6-0.6c0.3,0,0.6,0.3,0.6,0.6v9.8c0,1.7,1.4,3.1,3.1,3.1c1.7,0,3.1-1.4,3.1-3.1c0,0,0,0,0,0v-8
	c0-0.7-0.6-1.3-1.3-1.3h-2.7c-0.3,0-0.6-0.3-0.6-0.6c0-0.3,0.3-0.6,0.6-0.6h2.7C31.8,22.7,32.9,23.9,32.9,25.2z M5.5,16.9
	c0-0.3,0.3-0.6,0.6-0.6h5.3c0.3,0,0.6,0.3,0.6,0.6c0,0.3-0.3,0.6-0.6,0.6c0,0,0,0,0,0H6.1C5.8,17.5,5.5,17.2,5.5,16.9L5.5,16.9z
	 M5.5,9.8c0-0.3,0.3-0.6,0.6-0.6h5.3c0.3,0,0.6,0.3,0.6,0.6c0,0.3-0.3,0.6-0.6,0.6H6.1C5.8,10.4,5.5,10.1,5.5,9.8
	C5.5,9.8,5.5,9.8,5.5,9.8L5.5,9.8z M19.9,23.9c0,0.3-0.3,0.6-0.6,0.6H6.1c-0.3,0-0.6-0.3-0.6-0.6c0-0.3,0.3-0.6,0.6-0.6c0,0,0,0,0,0
	h13.2C19.6,23.3,19.9,23.6,19.9,23.9L19.9,23.9z M19.9,30.5c0,0.3-0.3,0.6-0.6,0.6H6.1c-0.3,0-0.6-0.3-0.6-0.6
	c0-0.3,0.3-0.6,0.6-0.6h13.2C19.6,29.9,19.9,30.2,19.9,30.5C19.9,30.5,19.9,30.5,19.9,30.5L19.9,30.5z"/>
</svg>
