<?xml version="1.0" encoding="utf-8"?>
<!-- Generator: Adobe Illustrator 25.2.3, SVG Export Plug-In . SVG Version: 6.00 Build 0)  -->
<svg version="1.1" id="Layer_1" xmlns="http://www.w3.org/2000/svg" xmlns:xlink="http://www.w3.org/1999/xlink" x="0px" y="0px"
	 viewBox="0 0 23.51 23.51" style="enable-background:new 0 0 23.51 23.51;" xml:space="preserve">
<style type="text/css">
	.st0{fill:#8A8A8A;}
</style>
<g id="loupe" transform="translate(23)">
	<g id="Group_739">
		<g id="Group_738">
			<path id="Path_40708" class="st0" d="M-12.65,0C-18.36,0-23,4.64-23,10.35s4.64,10.35,10.35,10.35s10.35-4.64,10.35-10.35
				C-2.3,4.64-6.93,0.01-12.65,0z M-12.65,18.8c-4.66,0-8.44-3.78-8.44-8.44s3.78-8.44,8.44-8.44c4.66,0,8.44,3.78,8.44,8.44
				C-4.2,15.02-7.98,18.8-12.65,18.8z"/>
		</g>
	</g>
	<g id="Group_741" transform="translate(16.122 16.122)">
		<g id="Group_740">
			<path id="Path_40709" class="st0" d="M-15.89,5.76l-5.48-5.48c-0.37-0.37-0.98-0.37-1.35,0s-0.37,0.98,0,1.35l5.48,5.48
				c0.37,0.37,0.98,0.37,1.35,0S-15.51,6.13-15.89,5.76z"/>
		</g>
	</g>
</g>
</svg>
