<svg id="Layer_1" data-name="Layer 1" xmlns="http://www.w3.org/2000/svg" viewBox="0 0 21.81 29.74"><defs><style>.cls-1{fill:#3cc0c1;}</style></defs><g id="files"><g id="Group_187" data-name="Group 187"><g id="Group_186" data-name="Group 186"><path id="Path_442" data-name="Path 442" class="cls-1" d="M21.8,5.45a.52.52,0,0,0-.14-.35L16.71.15A.49.49,0,0,0,16.36,0H1.49A1.49,1.49,0,0,0,0,1.49V28.25a1.49,1.49,0,0,0,1.49,1.49H20.32a1.49,1.49,0,0,0,1.49-1.49V5.45ZM16.85,1.69,20.11,5H17.35a.5.5,0,0,1-.5-.5Zm4,26.56a.5.5,0,0,1-.5.5H1.49a.5.5,0,0,1-.5-.5V1.49a.5.5,0,0,1,.5-.5H15.86V4.46A1.49,1.49,0,0,0,17.35,6h3.47Z"/></g></g><g id="Group_189" data-name="Group 189"><g id="Group_188" data-name="Group 188"><path id="Path_443" data-name="Path 443" class="cls-1" d="M5,13.38a1.49,1.49,0,1,0,1.48,1.49h0A1.49,1.49,0,0,0,5,13.38Zm0,2a.5.5,0,0,1-.5-.5.5.5,0,0,1,.5-.5.51.51,0,0,1,.5.5A.5.5,0,0,1,5,15.36Z"/></g></g><g id="Group_191" data-name="Group 191"><g id="Group_190" data-name="Group 190"><rect id="Rectangle_290" data-name="Rectangle 290" class="cls-1" x="8.74" y="14.19" width="9.72" height="0.97"/></g></g><g id="Group_193" data-name="Group 193"><g id="Group_192" data-name="Group 192"><path id="Path_444" data-name="Path 444" class="cls-1" d="M5,8.43A1.49,1.49,0,1,0,6.44,9.91h0A1.48,1.48,0,0,0,5,8.43Zm0,2a.5.5,0,0,1-.5-.5.5.5,0,0,1,.5-.5.5.5,0,0,1,.5.5A.51.51,0,0,1,5,10.41Z"/></g></g><g id="Group_195" data-name="Group 195"><g id="Group_194" data-name="Group 194"><rect id="Rectangle_291" data-name="Rectangle 291" class="cls-1" x="8.74" y="9.33" width="9.72" height="0.97"/></g></g><g id="Group_197" data-name="Group 197"><g id="Group_196" data-name="Group 196"><path id="Path_445" data-name="Path 445" class="cls-1" d="M5,18.34a1.49,1.49,0,1,0,1.48,1.49h0A1.48,1.48,0,0,0,5,18.34Zm0,2a.5.5,0,0,1,0-1,.5.5,0,1,1,0,1Z"/></g></g><g id="Group_199" data-name="Group 199"><g id="Group_198" data-name="Group 198"><rect id="Rectangle_292" data-name="Rectangle 292" class="cls-1" x="8.74" y="19.05" width="9.72" height="0.97"/></g></g><g id="Group_201" data-name="Group 201"><g id="Group_200" data-name="Group 200"><path id="Path_446" data-name="Path 446" class="cls-1" d="M5,23.29a1.49,1.49,0,1,0,1.48,1.49h0A1.49,1.49,0,0,0,5,23.29Zm0,2a.5.5,0,0,1-.5-.5.5.5,0,0,1,.5-.5.5.5,0,0,1,.5.5A.51.51,0,0,1,5,25.28Z"/></g></g><g id="Group_203" data-name="Group 203"><g id="Group_202" data-name="Group 202"><rect id="Rectangle_293" data-name="Rectangle 293" class="cls-1" x="8.74" y="23.91" width="9.72" height="0.97"/></g></g></g></svg>