<?xml version="1.0" encoding="utf-8"?>
<!-- Generator: Adobe Illustrator 25.2.0, SVG Export Plug-In . SVG Version: 6.00 Build 0)  -->
<svg version="1.1" id="service_request" xmlns="http://www.w3.org/2000/svg" xmlns:xlink="http://www.w3.org/1999/xlink" x="0px"
	 y="0px" viewBox="0 0 26.9 36.7" style="enable-background:new 0 0 26.9 36.7;" xml:space="preserve">
<style type="text/css">
	.st0{fill:#121212;}
</style>
<g id="Group_187">
	<g id="Group_186" transform="translate(0)">
		<path id="Path_442" class="st0" d="M26.9,6.7c0-0.2-0.1-0.3-0.2-0.4l-6.1-6.1C20.5,0.1,20.4,0,20.2,0v0H1.8C0.8,0,0,0.8,0,1.8
			v33.1c0,1,0.8,1.8,1.8,1.8h23.3c1,0,1.8-0.8,1.8-1.8c0,0,0,0,0,0L26.9,6.7L26.9,6.7z M20.8,2.1l4,4h-3.4c-0.3,0-0.6-0.3-0.6-0.6
			L20.8,2.1z M25.7,34.9c0,0.3-0.3,0.6-0.6,0.6H1.8c-0.3,0-0.6-0.3-0.6-0.6V1.8c0-0.3,0.3-0.6,0.6-0.6h17.8v4.3c0,1,0.8,1.8,1.8,1.8
			h4.3L25.7,34.9z"/>
	</g>
</g>
<g id="Group_189" transform="translate(4.286 16.531)">
	<g id="Group_188" transform="translate(0)">
		<path id="Path_443" class="st0" d="M1.8,0C0.8,0,0,0.8,0,1.8c0,1,0.8,1.8,1.8,1.8c1,0,1.8-0.8,1.8-1.8S2.9,0,1.8,0L1.8,0z
			 M1.8,2.4c-0.3,0-0.6-0.3-0.6-0.6s0.3-0.6,0.6-0.6s0.6,0.3,0.6,0.6l0,0C2.4,2.2,2.2,2.4,1.8,2.4z"/>
	</g>
</g>
<g id="Group_191" transform="translate(10.804 17.53)">
	<g id="Group_190" transform="translate(0 0)">
		<rect id="Rectangle_290" x="0" y="0" class="st0" width="12" height="1.2"/>
	</g>
</g>
<g id="Group_193" transform="translate(4.286 10.409)">
	<g id="Group_192" transform="translate(0)">
		<path id="Path_444" class="st0" d="M1.8,0C0.8,0,0,0.8,0,1.8c0,1,0.8,1.8,1.8,1.8c1,0,1.8-0.8,1.8-1.8S2.9,0,1.8,0L1.8,0z
			 M1.8,2.4c-0.3,0-0.6-0.3-0.6-0.6s0.3-0.6,0.6-0.6s0.6,0.3,0.6,0.6l0,0C2.4,2.2,2.2,2.4,1.8,2.4z"/>
	</g>
</g>
<g id="Group_195" transform="translate(10.804 11.528)">
	<g id="Group_194" transform="translate(0 0)">
		<rect id="Rectangle_291" x="0" y="0" class="st0" width="12" height="1.2"/>
	</g>
</g>
<g id="Group_197" transform="translate(4.286 22.654)">
	<g id="Group_196" transform="translate(0)">
		<path id="Path_445" class="st0" d="M1.8,0C0.8,0,0,0.8,0,1.8c0,1,0.8,1.8,1.8,1.8c1,0,1.8-0.8,1.8-1.8S2.9,0,1.8,0L1.8,0z
			 M1.8,2.4c-0.3,0-0.6-0.3-0.6-0.6s0.3-0.6,0.6-0.6s0.6,0.3,0.6,0.6l0,0C2.4,2.2,2.2,2.4,1.8,2.4z"/>
	</g>
</g>
<g id="Group_199" transform="translate(10.804 23.532)">
	<g id="Group_198" transform="translate(0 0)">
		<rect id="Rectangle_292" x="0" y="0" class="st0" width="12" height="1.2"/>
	</g>
</g>
<g id="Group_201" transform="translate(4.286 28.777)">
	<g id="Group_200" transform="translate(0)">
		<path id="Path_446" class="st0" d="M1.8,0C0.8,0,0,0.8,0,1.8c0,1,0.8,1.8,1.8,1.8c1,0,1.8-0.8,1.8-1.8S2.9,0,1.8,0L1.8,0z
			 M1.8,2.4c-0.3,0-0.6-0.3-0.6-0.6s0.3-0.6,0.6-0.6s0.6,0.3,0.6,0.6l0,0C2.4,2.2,2.2,2.4,1.8,2.4z"/>
	</g>
</g>
<g id="Group_203" transform="translate(10.804 29.534)">
	<g id="Group_202" transform="translate(0 0)">
		<rect id="Rectangle_293" x="0" y="0" class="st0" width="12" height="1.2"/>
	</g>
</g>
</svg>
