<svg id="Layer_1" data-name="Layer 1" xmlns="http://www.w3.org/2000/svg" viewBox="0 0 21.3 23.3"><defs><style>.cls-1{fill:#3cc0c1;}</style></defs><g id="share"><path class="cls-1" d="M17.15,8.3A4.15,4.15,0,1,1,21.3,4.15,4.15,4.15,0,0,1,17.15,8.3Zm0-7A2.85,2.85,0,1,0,20,4.15,2.86,2.86,0,0,0,17.15,1.3Z"/><path class="cls-1" d="M4.15,15.3A3.93,3.93,0,0,1,0,11.65,3.93,3.93,0,0,1,4.15,8,3.93,3.93,0,0,1,8.3,11.65,3.93,3.93,0,0,1,4.15,15.3Zm0-6A2.64,2.64,0,0,0,1.3,11.65,2.64,2.64,0,0,0,4.15,14,2.64,2.64,0,0,0,7,11.65,2.64,2.64,0,0,0,4.15,9.3Z"/><path class="cls-1" d="M17.15,23.3a4.15,4.15,0,1,1,4.15-4.15A4.15,4.15,0,0,1,17.15,23.3Zm0-7A2.85,2.85,0,1,0,20,19.15,2.86,2.86,0,0,0,17.15,16.3Z"/><path class="cls-1" d="M14.47,18.43a.68.68,0,0,1-.33-.09L6.51,13.9a.65.65,0,0,1,.66-1.13l7.63,4.45a.65.65,0,0,1,.23.89A.64.64,0,0,1,14.47,18.43Z"/><path class="cls-1" d="M6.84,10.61a.64.64,0,0,1-.56-.32.65.65,0,0,1,.23-.89L14.13,5a.66.66,0,0,1,.89.24.65.65,0,0,1-.23.89L7.17,10.52A.66.66,0,0,1,6.84,10.61Z"/></g></svg>