<?xml version="1.0" encoding="utf-8"?>
<!-- Generator: Adobe Illustrator 25.2.0, SVG Export Plug-In . SVG Version: 6.00 Build 0)  -->
<svg version="1.1" id="submitted" xmlns="http://www.w3.org/2000/svg" xmlns:xlink="http://www.w3.org/1999/xlink" x="0px" y="0px"
	 viewBox="0 0 65.6 65.6" style="enable-background:new 0 0 65.6 65.6;" xml:space="preserve">
<style type="text/css">
	.st0{fill:#F5F8FA;}
	.st1{fill:#FFFFFF;}
	.st2{fill:#FE6663;}
	.st3{fill:#FFCDAC;}
	.st4{fill:#A5DDFF;}
	.st5{fill:#FFBC53;}
	.st6{fill:#9AD8FF;}
</style>
<path id="Path_40231" class="st0" d="M32.8,0C51,0,65.6,14.7,65.6,32.8S51,65.6,32.8,65.6S0,51,0,32.8c0,0,0,0,0,0
	C0,14.7,14.7,0,32.8,0z"/>
<g id="resume" transform="translate(13.993 14.371)">
	<path id="Path_40153" class="st1" d="M29,36.9H2.2c-0.8,0-1.5-0.7-1.5-1.5l0,0V2.2c0-0.8,0.7-1.5,1.5-1.5l0,0H29
		c0.8,0,1.5,0.7,1.5,1.5v0v33.2C30.4,36.2,29.8,36.9,29,36.9C29,36.9,29,36.9,29,36.9z"/>
	<ellipse id="Ellipse_9" class="st2" cx="15.5" cy="10.6" rx="6.5" ry="6"/>
	<path id="Path_40154" class="st3" d="M17.5,10v0.5c0,1.1-0.9,1.9-1.9,1.9l0,0c-1.1,0-1.9-0.9-1.9-1.9V10c0-1.1,0.9-1.9,1.9-1.9l0,0
		C16.6,8,17.5,8.9,17.5,10z"/>
	<path id="Path_40155" class="st4" d="M15.6,12.3L15.6,12.3c-1.8,0-3.4,1.1-4.1,2.8c2.3,2.2,5.9,2.2,8.2,0
		C19,13.5,17.4,12.3,15.6,12.3z"/>
	<path id="Path_40156" class="st5" d="M32.1,11.8l0.4-0.7c0.6-1.1,2.1-1.5,3.2-0.9c0,0,0,0,0,0l0,0c1.1,0.6,1.5,2.1,0.9,3.2
		c0,0,0,0,0,0l-9.2,16l-4.1-2.4l4-6.9L32.1,11.8z"/>
	<path id="Path_40157" class="st2" d="M35.7,10.2L35.7,10.2c-1.1-0.6-2.6-0.3-3.2,0.9c0,0,0,0,0,0L31.4,13l4.1,2.4l1.1-1.9
		C37.2,12.3,36.8,10.9,35.7,10.2z"/>
	<path id="Path_40158" class="st6" d="M27.3,29.4l-4.7,3.5l0.7-5.8L27.3,29.4z"/>
	<path id="Path_40159" d="M30.4,29.3c-0.4,0-0.7,0.3-0.7,0.7c0,0,0,0,0,0v5.4c0,0.4-0.3,0.7-0.7,0.7H2.2c-0.4,0-0.7-0.3-0.7-0.7V2.2
		c0-0.4,0.3-0.7,0.7-0.7H29c0.4,0,0.7,0.3,0.7,0.7v8c0,0.4,0.3,0.7,0.7,0.7c0.4,0,0.7-0.3,0.7-0.7v-8C31.2,1,30.2,0,29,0H2.2
		C1,0,0,1,0,2.2v33.2c0,1.2,1,2.2,2.2,2.2H29c1.2,0,2.2-1,2.2-2.2V30C31.2,29.6,30.8,29.3,30.4,29.3z"/>
	<path id="Path_40160" d="M22.3,10.7c0-3.7-3-6.8-6.8-6.8c-3.7,0-6.8,3-6.8,6.8c0,1.9,0.8,3.6,2.1,4.9c0,0,0.1,0.1,0.1,0.1
		c2.6,2.4,6.5,2.4,9.1,0c0,0,0.1,0,0.1-0.1C21.6,14.4,22.3,12.6,22.3,10.7z M15.6,5.4c2.9,0,5.3,2.4,5.3,5.3c0,1.1-0.4,2.2-1,3.1
		c-0.5-0.8-1.3-1.4-2.2-1.8c0.4-0.5,0.6-1,0.6-1.6V10c0-1.5-1.2-2.6-2.6-2.6c-1.5,0-2.6,1.2-2.6,2.6v0.5c0,0.6,0.2,1.2,0.6,1.6
		c-0.9,0.4-1.6,1-2.2,1.8c-1.7-2.3-1.2-5.7,1.1-7.4C13.4,5.8,14.5,5.4,15.6,5.4L15.6,5.4z M14.4,10.4V10c0-0.6,0.5-1.2,1.2-1.2
		c0.6,0,1.2,0.5,1.2,1.2v0.5c0,0.6-0.5,1.2-1.2,1.2C14.9,11.6,14.4,11.1,14.4,10.4L14.4,10.4z M12.4,14.9c1-1.8,3.2-2.4,5-1.4
		c0.6,0.3,1.1,0.8,1.4,1.4C16.9,16.4,14.3,16.4,12.4,14.9z"/>
	<path id="Path_40161" d="M19.6,32.2h-4c-0.4,0-0.7,0.3-0.7,0.7c0,0.4,0.3,0.7,0.7,0.7h4c0.4,0,0.7-0.3,0.7-0.7
		C20.3,32.5,20,32.2,19.6,32.2z"/>
	<path id="Path_40162" d="M19.6,28.1H9.1c-0.4,0-0.7,0.3-0.7,0.7c0,0.4,0.3,0.7,0.7,0.7h10.4c0.4,0,0.7-0.3,0.7-0.7
		C20.3,28.4,20,28.1,19.6,28.1z"/>
	<path id="Path_40163" d="M19.6,24H9.1c-0.4,0-0.7,0.3-0.7,0.7c0,0.4,0.3,0.7,0.7,0.7h10.4c0.4,0,0.7-0.3,0.7-0.7
		C20.3,24.3,20,24,19.6,24z"/>
	<path id="Path_40164" d="M6.5,20.1c-0.3-0.3-0.8-0.3-1,0s-0.3,0.8,0,1c0.3,0.3,0.8,0.3,1,0c0.1-0.1,0.2-0.3,0.2-0.5
		C6.7,20.4,6.6,20.2,6.5,20.1z"/>
	<path id="Path_40165" d="M6.5,24.2c-0.3-0.3-0.8-0.3-1,0s-0.3,0.8,0,1c0.3,0.3,0.8,0.3,1,0c0.1-0.1,0.2-0.3,0.2-0.5
		C6.7,24.5,6.6,24.3,6.5,24.2z"/>
	<path id="Path_40166" d="M6,28.1c-0.4,0-0.7,0.3-0.7,0.7c0,0.4,0.3,0.7,0.7,0.7s0.7-0.3,0.7-0.7c0-0.2-0.1-0.4-0.2-0.5
		C6.4,28.2,6.2,28.1,6,28.1z"/>
	<path id="Path_40167" d="M19.6,19.8H9.1c-0.4,0-0.7,0.3-0.7,0.7c0,0.4,0.3,0.7,0.7,0.7h10.4c0.4,0,0.7-0.3,0.7-0.7
		C20.3,20.2,20,19.8,19.6,19.8z"/>
	<path id="Path_40168" d="M36.1,9.6c-1.5-0.9-3.4-0.3-4.2,1.1c0,0,0,0,0,0l-9.2,16c-0.1,0.1-0.1,0.2-0.1,0.3l-0.7,5.8
		c0,0.4,0.2,0.8,0.6,0.8c0.2,0,0.4,0,0.5-0.1l4.7-3.5c0.1-0.1,0.1-0.1,0.2-0.2l9.2-16C38.1,12.3,37.6,10.4,36.1,9.6z M23.9,28.3
		l2.1,1.2l-2.5,1.8L23.9,28.3z M27.1,28.4l-2.8-1.6L31.7,14l2.8,1.6L27.1,28.4z M36,13.1l-0.7,1.3l-2.8-1.6l0.7-1.3
		c0.5-0.8,1.5-1,2.2-0.5C36.1,11.3,36.4,12.3,36,13.1z"/>
</g>
</svg>
