<?xml version="1.0" encoding="utf-8"?>
<!-- Generator: Adobe Illustrator 25.2.0, SVG Export Plug-In . SVG Version: 6.00 Build 0)  -->
<svg version="1.1" id="timer" xmlns="http://www.w3.org/2000/svg" xmlns:xlink="http://www.w3.org/1999/xlink" x="0px" y="0px"
	 viewBox="0 0 32 32" style="enable-background:new 0 0 32 32;" xml:space="preserve">
<style type="text/css">
	.st0{fill:#FFB426;}
	.st1{fill:none;stroke:#FFFFFF;}
	.st2{fill:#FFFFFF;}
</style>
<g id="Ellipse">
	<circle class="st0" cx="16" cy="16" r="16"/>
	<circle class="st1" cx="16" cy="16" r="15.5"/>
</g>
<path id="old-sand-clock" class="st2" d="M21.6,23.3h-0.4v-1.1c0-0.2-0.2-0.4-0.4-0.4h-0.5v-3.6c0-1.1-0.6-2.2-1.6-2.8l-1.1-0.7
	l0.1-0.1l1.1-0.7c1-0.6,1.6-1.7,1.6-2.8V7.6h0.5c0.2,0,0.4-0.2,0.4-0.4V6h0.4c0.2,0,0.4-0.2,0.4-0.4c0-0.2-0.2-0.4-0.4-0.4H11.2
	c-0.2,0-0.4,0.2-0.4,0.4C10.8,5.8,11,6,11.2,6h0.4v1.1c0,0.2,0.2,0.4,0.4,0.4h0.5v3.6c0,1.1,0.6,2.2,1.6,2.8l0.9,0.6l0.2,0.2
	l-1.1,0.7c-1,0.6-1.6,1.7-1.6,2.8v3.6h-0.5c-0.2,0-0.4,0.2-0.4,0.4v1.1h-0.4c-0.2,0-0.4,0.2-0.4,0.4c0,0.2,0.2,0.4,0.4,0.4h10.4
	c0.2,0,0.4-0.2,0.4-0.4C22.1,23.5,21.9,23.3,21.6,23.3L21.6,23.3z M19.4,18.2v0.1l-2.5-1v-2.1c0,0,0.1,0,0.1,0.1l1.3,0.8
	C18.9,16.6,19.4,17.4,19.4,18.2L19.4,18.2z M19.4,7.6v3.6c0,0.4-0.1,0.7-0.2,1.1h-5.4c-0.2-0.3-0.2-0.7-0.2-1.1V7.6L19.4,7.6z
	 M14.6,16.2l1.3-0.8c0,0,0.1,0,0.1-0.1v2.1l-2.5,1v-0.1C13.5,17.4,13.9,16.6,14.6,16.2L14.6,16.2z"/>
</svg>
